<svg width="512" height="512" viewBox="0 0 512 512" fill="none" xmlns="http://www.w3.org/2000/svg">
<path d="M256 420.74C361.54 420.74 447.097 415.417 447.097 408.851C447.097 402.285 361.54 396.962 256 396.962C150.46 396.962 64.9031 402.285 64.9031 408.851C64.9031 415.417 150.46 420.74 256 420.74Z" fill="#0C5795"/>
<path d="M424.97 119.916H87.03V339.936H424.97V119.916Z" fill="#EEF3F7"/>
<path d="M91.5249 91.2571H420.474C425.855 91.2571 430.257 95.6581 430.257 101.041V123.662H81.7429V101.041C81.7429 95.6581 86.1449 91.2571 91.5249 91.2571Z" fill="white"/>
<path d="M424.97 321.532H87.03V407.434H424.97V321.532Z" fill="#EEF3F7"/>
<path d="M424.97 407.441V346.933H87.03L424.97 407.441Z" fill="#D9DADA"/>
<path d="M424.97 321.532H87.03V346.931H424.97V321.532Z" fill="white"/>
<path d="M327.461 346.932H184.55V407.434H327.461V346.932Z" fill="#21D0C3"/>
<path d="M324.058 115.988H321.1V97.1549H324.058V105.227H327.421V97.1549H330.434V115.988H327.421V107.916H324.058V115.988ZM337.589 111.658C337.589 112.338 337.728 112.819 338.006 113.096C338.284 113.375 338.657 113.513 339.122 113.513C339.589 113.513 339.96 113.375 340.24 113.096C340.517 112.819 340.656 112.338 340.656 111.658V101.487C340.656 100.805 340.517 100.326 340.24 100.049C339.961 99.7699 339.589 99.6319 339.122 99.6319C338.656 99.6319 338.284 99.7699 338.006 100.049C337.728 100.326 337.589 100.806 337.589 101.487V111.658ZM334.628 101.676C334.628 100.151 335.013 98.9799 335.786 98.1649C336.556 97.3489 337.669 96.9399 339.121 96.9399C340.574 96.9399 341.686 97.3479 342.458 98.1649C343.228 98.9799 343.613 100.151 343.613 101.676V111.468C343.613 112.993 343.229 114.164 342.458 114.979C341.686 115.795 340.575 116.204 339.121 116.204C337.669 116.204 336.556 115.796 335.786 114.979C335.014 114.164 334.628 112.993 334.628 111.468V101.676ZM347.43 101.676C347.43 100.151 347.793 98.9799 348.52 98.1649C349.247 97.3489 350.335 96.9399 351.788 96.9399C353.241 96.9399 354.331 97.3479 355.058 98.1649C355.786 98.9799 356.147 100.151 356.147 101.676V102.268H353.349V101.487C353.349 100.805 353.218 100.326 352.959 100.049C352.699 99.7699 352.335 99.6319 351.869 99.6319C351.402 99.6319 351.041 99.7699 350.78 100.049C350.52 100.326 350.39 100.806 350.39 101.487C350.39 102.134 350.534 102.704 350.82 103.197C351.107 103.69 351.466 104.156 351.896 104.596C352.326 105.034 352.788 105.474 353.282 105.913C353.775 106.353 354.237 106.832 354.667 107.352C355.097 107.873 355.455 108.465 355.743 109.128C356.029 109.793 356.173 110.572 356.173 111.469C356.173 112.994 355.802 114.165 355.057 114.98C354.312 115.796 353.214 116.205 351.761 116.205C350.308 116.205 349.209 115.797 348.465 114.98C347.72 114.165 347.347 112.994 347.347 111.469V110.312H350.147V111.658C350.147 112.338 350.285 112.813 350.563 113.083C350.841 113.351 351.214 113.486 351.681 113.486C352.147 113.486 352.519 113.351 352.796 113.083C353.075 112.814 353.213 112.338 353.213 111.658C353.213 111.011 353.069 110.441 352.783 109.948C352.496 109.455 352.137 108.989 351.707 108.549C351.277 108.109 350.815 107.671 350.322 107.232C349.829 106.792 349.366 106.313 348.937 105.792C348.506 105.272 348.148 104.68 347.86 104.016C347.574 103.352 347.43 102.572 347.43 101.676ZM364.512 97.1549C366 97.1549 367.108 97.5479 367.834 98.3389C368.562 99.1269 368.924 100.285 368.924 101.81V104.257C368.924 105.782 368.561 106.939 367.834 107.728C367.107 108.516 366 108.913 364.512 108.913H363.113V115.988H360.153V97.1549H364.512ZM363.113 99.8459V106.224H364.512C364.979 106.224 365.337 106.098 365.588 105.847C365.84 105.595 365.964 105.13 365.964 104.448V101.623C365.964 100.943 365.839 100.476 365.588 100.225C365.337 99.9719 364.978 99.8479 364.512 99.8479H363.113V99.8459ZM372.578 97.1549H375.538V115.988H372.578V97.1549ZM379.113 97.1549H388.261V99.8449H385.167V115.987H382.207V99.8449H379.113V97.1549ZM400.39 115.988H397.403L396.893 112.571H393.261L392.749 115.988H390.03L393.044 97.1549H397.376L400.39 115.988ZM393.637 110.016H396.489L395.063 100.492L393.637 110.016ZM404.045 97.1549H407.005V113.296H411.874V115.987H404.044V97.1549H404.045Z" fill="#21D0C3"/>
<path d="M87.0291 123.661H424.969V134.025L87.0291 127.079V123.661Z" fill="#D9DADA"/>
<path d="M98.9661 136.837H136.654V155.313H98.9661V136.837ZM330.267 136.837H367.955V155.313H330.267V136.837ZM375.345 136.837H413.033V155.313H375.345V136.837ZM214.616 136.837H252.304V155.313H214.616V136.837ZM259.695 136.837H297.383V155.313H259.695V136.837ZM144.044 136.837H181.732V155.313H144.044V136.837Z" fill="#21D0C3"/>
<path d="M98.9661 175.155H136.654V193.63H98.9661V175.155ZM330.267 175.155H367.955V193.63H330.267V175.155ZM375.345 175.155H413.033V193.63H375.345V175.155ZM214.616 175.155H252.304V193.63H214.616V175.155ZM259.695 175.155H297.383V193.63H259.695V175.155ZM144.044 175.155H181.732V193.63H144.044V175.155Z" fill="#21D0C3"/>
<path d="M98.9661 213.472H136.654V231.947H98.9661V213.472ZM330.267 213.472H367.955V231.947H330.267V213.472ZM375.345 213.472H413.033V231.947H375.345V213.472ZM214.616 213.472H252.304V231.947H214.616V213.472ZM259.695 213.472H297.383V231.947H259.695V213.472ZM144.044 213.472H181.732V231.947H144.044V213.472Z" fill="#21D0C3"/>
<path d="M98.9661 251.789H136.654V270.265H98.9661V251.789ZM330.267 251.789H367.955V270.265H330.267V251.789ZM375.345 251.789H413.033V270.265H375.345V251.789ZM214.616 251.789H252.304V270.265H214.616V251.789ZM259.695 251.789H297.383V270.265H259.695V251.789ZM144.044 251.789H181.732V270.265H144.044V251.789Z" fill="#21D0C3"/>
<path d="M98.9661 290.107H136.654V308.582H98.9661V290.107ZM330.267 290.107H367.955V308.582H330.267V290.107ZM375.345 290.107H413.033V308.582H375.345V290.107ZM214.616 290.107H252.304V308.582H214.616V290.107ZM259.695 290.107H297.383V308.582H259.695V290.107ZM144.044 290.107H181.732V308.582H144.044V290.107Z" fill="#21D0C3"/>
<path d="M424.97 162.822H87.03V167.671H424.97V162.822Z" fill="#D9DADA"/>
<path d="M424.97 202.135H87.03V206.984H424.97V202.135Z" fill="#D9DADA"/>
<path d="M424.97 239.572H87.03V244.421H424.97V239.572Z" fill="#D9DADA"/>
<path d="M424.97 279.564H87.03V284.413H424.97V279.564Z" fill="#D9DADA"/>
<path d="M327.454 389.983V346.934H184.544V364.394L327.454 389.983Z" fill="#15BDB2"/>
<path d="M299.803 96.6399H305.197V103.875H312.431V109.269H305.197V116.503H299.803V109.269H292.568V103.875H299.803V96.6399Z" fill="#FF5B62"/>
<path d="M256.71 351.673H255.281V407.437H256.71V351.673Z" fill="#EBECEC"/>
<path d="M327.454 407.441H330.597V346.933H327.454V407.441Z" fill="#FEFEFE"/>
<path d="M184.549 346.932H181.406V407.434H184.549V346.932Z" fill="#FEFEFE"/>
<path d="M424.97 318.847H87.03V321.538H424.97V318.847Z" fill="#D9DADA"/>
</svg>
