<svg width="512" height="512" viewBox="0 0 512 512" fill="none" xmlns="http://www.w3.org/2000/svg">
<path d="M75.5049 40.6011H125.849V229.052C125.849 242.897 114.523 254.223 100.678 254.223C86.8329 254.223 75.5069 242.897 75.5069 229.052V40.6011H75.5049Z" fill="#D9DADA"/>
<path d="M75.5049 40.6011H122.145V231.006C122.145 239.006 118.537 246.205 112.87 251.054C109.251 253.071 105.094 254.224 100.679 254.224C86.8339 254.224 75.5049 242.898 75.5049 229.05V40.6011Z" fill="#EEF3F7"/>
<path d="M80.71 102.508V229.16C80.71 240.212 89.719 249.291 100.679 249.291C111.642 249.291 120.648 240.211 120.648 229.16V102.508H80.71Z" fill="#FF5B62"/>
<path d="M70.831 33.6289H130.527C134.426 33.6289 137.586 36.7889 137.586 40.6869C137.586 44.5849 134.425 47.7449 130.527 47.7449H70.831C66.932 47.7449 63.772 44.5849 63.772 40.6869C63.771 36.7879 66.933 33.6289 70.831 33.6289Z" fill="#EEF3F7"/>
<path d="M137.587 40.688C137.587 44.568 134.412 47.745 130.53 47.745H70.828C66.948 47.745 63.771 44.57 63.771 40.688H137.587Z" fill="#CCD8DB"/>
<path d="M95.764 119.378C98.285 119.378 100.331 121.424 100.331 123.945C100.331 126.466 98.285 128.512 95.764 128.512C93.24 128.512 91.194 126.466 91.194 123.945C91.195 121.421 93.241 119.378 95.764 119.378ZM98.196 197.036C98.867 197.036 99.413 197.58 99.413 198.253C99.413 198.924 98.869 199.47 98.196 199.47C97.522 199.47 96.979 198.926 96.979 198.253C96.979 197.579 97.523 197.036 98.196 197.036ZM94.848 176.021C97.369 176.021 99.415 178.067 99.415 180.588C99.415 183.112 97.369 185.155 94.848 185.155C92.324 185.155 90.281 183.109 90.281 180.588C90.28 178.067 92.326 176.021 94.848 176.021ZM107.03 155.922C111.066 155.922 114.34 159.196 114.34 163.229C114.34 167.265 111.066 170.539 107.03 170.539C102.994 170.539 99.723 167.265 99.723 163.229C99.722 159.196 102.994 155.922 107.03 155.922Z" fill="#FEFEFE"/>
<path d="M449.593 76.8601H168.591V441.486H449.593V76.8601Z" fill="#21D0C3"/>
<path d="M178.699 89.4729H430.933L439.483 430.51H187.249L178.699 89.4729Z" fill="#DCE3DB"/>
<path d="M430.927 89.4709H182.906V422.122H430.927V89.4709Z" fill="white"/>
<path d="M276.541 67.9929H344.467C349.358 67.9929 353.36 71.9949 353.36 76.8859V106.081H267.647V76.8879C267.647 71.9959 271.65 67.9929 276.541 67.9929Z" fill="#666666"/>
<path d="M265.808 103.876H355.197C357.088 103.876 358.62 105.408 358.62 107.299V107.302C358.62 109.193 357.088 110.725 355.197 110.725H265.808C263.917 110.725 262.385 109.193 262.385 107.302V107.299C262.385 105.409 263.918 103.876 265.808 103.876Z" fill="#B0B0B0"/>
<path d="M301.571 59.131L294.341 103.876H290.621L297.83 59.24C295.779 56.397 294.736 52.987 294.736 49.64C294.736 47.495 295.164 45.369 296.027 43.419C296.9 41.452 298.216 39.67 299.986 38.243C305.614 33.702 315.37 33.697 320.998 38.24C322.772 39.671 324.092 41.458 324.969 43.432C325.834 45.386 326.265 47.524 326.265 49.674C326.265 53.01 325.23 56.405 323.187 59.24L330.396 103.876H326.676L319.446 59.131C319.338 58.564 319.506 58.007 319.853 57.6C321.682 55.314 322.607 52.474 322.607 49.678C322.607 48.021 322.28 46.389 321.625 44.91C320.978 43.452 320.007 42.135 318.714 41.09C314.437 37.638 306.554 37.643 302.28 41.093C300.989 42.133 300.023 43.445 299.38 44.897C298.73 46.37 298.406 47.996 298.406 49.644C298.406 52.468 299.352 55.34 301.209 57.644C301.559 58.077 301.677 58.624 301.58 59.13L301.571 59.131Z" fill="#FEFEFE"/>
<path d="M468.649 179.547L451.37 166.888L388.442 252.783L405.721 265.442L468.649 179.547Z" fill="#0F7986"/>
<path d="M388.439 252.787L405.716 265.446L387.835 278.538L381.345 273.783L388.439 252.787Z" fill="#FF5B62"/>
<path d="M496.828 113.392L505.946 120.073C508.572 121.995 509.144 125.717 507.224 128.34L469.512 179.819C469.412 179.954 469.222 179.983 469.086 179.885L450.915 166.573C450.782 166.473 450.751 166.285 450.849 166.15L488.561 114.671C490.483 112.048 494.202 111.473 496.828 113.396V113.392Z" fill="#FF5B62"/>
<path d="M507.224 128.337L469.501 179.829C469.401 179.95 469.229 179.978 469.099 179.892L469.086 179.882L466.889 178.272L507.828 122.388C508.682 124.275 508.526 126.558 507.224 128.337Z" fill="#ED4C54"/>
<path d="M382.931 274.945L386.249 277.377L380.433 285.314C379.765 286.225 378.471 286.427 377.559 285.758C376.648 285.09 376.446 283.796 377.115 282.884L382.931 274.947V274.945Z" fill="#21D0C3"/>
<path d="M488.36 114.942L510.79 131.374L511.999 132.26L511.064 133.535L471.453 187.608L471.089 188.104L470.49 188.234L466.581 189.097C464.891 189.259 464.164 186.584 466.085 186.072L469.395 185.341L507.71 133.039L486.49 117.494L488.358 114.947V114.943L488.36 114.942Z" fill="#FAD24D"/>
<path d="M468.651 179.545L466.509 177.975L403.581 263.87L405.723 265.44L468.651 179.545Z" fill="#076673"/>
<path d="M279.015 151.266C277.853 151.266 276.909 150.323 276.909 149.16C276.909 147.997 277.852 147.054 279.015 147.054H313.78L321.582 128.148C322.021 127.077 323.248 126.565 324.322 127.003C324.871 127.228 325.273 127.661 325.474 128.173L325.482 128.17L337.054 157.384L346.902 140.707C347.493 139.709 348.784 139.377 349.781 139.968C350.097 140.156 350.346 140.412 350.52 140.707L356.232 149.462L364.509 140.659C365.303 139.815 366.636 139.773 367.479 140.567C367.638 140.718 367.769 140.886 367.873 141.069L371.23 147.058H416.313C417.475 147.058 418.419 148.001 418.419 149.164C418.419 150.326 417.476 151.27 416.313 151.27H370V151.267C369.263 151.267 368.55 150.878 368.166 150.193L365.608 145.629L357.464 154.287V154.284C357.349 154.402 357.221 154.514 357.077 154.606C356.108 155.236 354.804 154.962 354.174 153.989L348.805 145.754L338.553 163.115C338.328 163.554 337.949 163.915 337.455 164.108C336.376 164.534 335.148 164.003 334.722 162.925L323.482 134.551L317.188 149.806C316.914 150.65 316.122 151.261 315.187 151.261H279.019L279.015 151.266Z" fill="#15BDB2"/>
<path d="M279.469 202.33H205.159V210.696H279.469V202.33Z" fill="#15BDB2"/>
<path d="M226.941 225.868H206.125V246.684H226.941V225.868Z" fill="#D9DADA"/>
<path d="M315.435 225.868H294.619V246.684H315.435V225.868Z" fill="#D9DADA"/>
<path d="M279.469 282.895H205.159V291.261H279.469V282.895Z" fill="#15BDB2"/>
<path d="M226.941 306.443H206.125V327.259H226.941V306.443Z" fill="#D9DADA"/>
<path d="M315.435 306.443H294.619V327.259H315.435V306.443Z" fill="#D9DADA"/>
<path d="M274.568 358.717H418.14V362.996H274.568V358.717ZM274.568 387.509H378.452V391.788H274.568V387.509ZM274.568 373.113H418.14V377.392H274.568V373.113Z" fill="#D9DADA"/>
<path d="M233.327 307.416H265.983V311.695H233.327V307.416ZM233.327 320.276H256.957V324.555H233.327V320.276Z" fill="#D9DADA"/>
<path d="M325.148 307.416H357.804V311.695H325.148V307.416ZM325.148 320.276H348.778V324.555H325.148V320.276Z" fill="#D9DADA"/>
<path d="M233.327 226.481H265.983V230.76H233.327V226.481ZM233.327 239.341H256.957V243.62H233.327V239.341Z" fill="#D9DADA"/>
<path d="M325.148 226.481H357.804V230.76H325.148V226.481ZM325.148 239.341H348.778V243.62H325.148V239.341Z" fill="#D9DADA"/>
<path d="M227.232 174.309C243.241 174.309 256.219 161.331 256.219 145.322C256.219 129.313 243.241 116.335 227.232 116.335C211.223 116.335 198.245 129.313 198.245 145.322C198.245 161.331 211.223 174.309 227.232 174.309Z" fill="#FF5B62"/>
<path d="M221.624 124.653H232.851V139.71H247.908V150.937H232.851V165.994H221.624V150.937H206.567V139.71H221.624V124.653Z" fill="#FEFEFE"/>
<path d="M296.223 233.805C295.745 233.319 295.75 232.538 296.239 232.06C296.725 231.582 297.506 231.587 297.984 232.073L302.196 236.368L313.603 224.01C314.065 223.508 314.847 223.474 315.351 223.937C315.853 224.399 315.884 225.181 315.424 225.685L303.136 238.996L303.094 239.041C302.608 239.519 301.827 239.514 301.346 239.028L296.225 233.805H296.223Z" fill="#0F7986"/>
<path d="M212.572 233.805C212.094 233.319 212.099 232.538 212.588 232.06C213.074 231.582 213.855 231.587 214.333 232.073L218.545 236.368L229.952 224.01C230.414 223.508 231.196 223.474 231.7 223.937C232.202 224.399 232.233 225.181 231.773 225.685L219.485 238.997L219.443 239.042C218.957 239.52 218.176 239.515 217.695 239.029L212.574 233.806H212.572V233.805Z" fill="#0F7986"/>
<path d="M214.361 308.67C213.951 308.26 213.951 307.593 214.361 307.181C214.771 306.771 215.44 306.771 215.85 307.181L227.686 319.017C228.096 319.427 228.096 320.096 227.686 320.506C227.276 320.916 226.607 320.916 226.197 320.506L214.361 308.67Z" fill="#FF5B62"/>
<path d="M227.686 308.67C228.096 308.26 228.096 307.593 227.686 307.181C227.276 306.771 226.607 306.771 226.197 307.181L214.361 319.017C213.951 319.427 213.951 320.096 214.361 320.506C214.771 320.916 215.44 320.916 215.85 320.506L227.686 308.67Z" fill="#FF5B62"/>
<path d="M300.753 307.698C300.212 307.157 300.212 306.28 300.753 305.741C301.294 305.2 302.171 305.2 302.71 305.741L318.276 321.307C318.817 321.848 318.817 322.725 318.276 323.264C317.735 323.805 316.858 323.805 316.319 323.264L300.753 307.698Z" fill="#FF5B62"/>
<path d="M318.277 307.698C318.818 307.157 318.818 306.28 318.277 305.741C317.736 305.2 316.859 305.2 316.32 305.741L300.754 321.307C300.213 321.848 300.213 322.725 300.754 323.264C301.295 323.805 302.172 323.805 302.711 323.264L318.277 307.698Z" fill="#FF5B62"/>
</svg>
