<svg width="82" height="70" viewBox="0 0 82 70" fill="none" xmlns="http://www.w3.org/2000/svg">
<g filter="url(#filter0_d_7_4913)">
<path d="M41.0354 1.07283C33.6473 1.07283 27.6582 7.06211 27.6582 14.4501V24.1075C27.6582 31.4956 33.6475 37.4847 41.0354 37.4847C48.4234 37.4847 54.4127 31.4954 54.4127 24.1075V14.4501C54.4127 7.06196 48.4235 1.07283 41.0354 1.07283Z" fill="#FFD5DD"/>
<path d="M41.0378 1.07283C40.6877 1.07283 40.3407 1.08634 39.9974 1.11281C37.2096 1.32734 34.6617 2.39676 32.6141 4.05881C29.7911 6.3501 28.0632 9.76796 27.8291 13.6283C31.0274 13.0411 33.7348 11.4594 35.905 9.21572C38.687 12.092 42.5863 13.8811 46.9039 13.8811C49.5446 13.8811 51.8863 13.2121 54.0543 12.0345C52.9173 5.79955 47.6012 1.07283 41.0378 1.07283Z" fill="#FFF5C6"/>
<path d="M61.6648 57.1246V44.7441C61.6648 38.6114 57.6115 33.4261 52.0378 31.7193C49.6228 35.2021 45.5969 37.4836 41.0377 37.4836C36.4785 37.4836 32.4527 35.2021 30.0377 31.7193C24.4641 33.4261 20.4106 38.6116 20.4106 44.7441V57.1246H61.6648Z" fill="#37B3CC"/>
<path d="M28.398 28.4906C27.9205 27.1158 27.659 25.6399 27.659 24.1025V14.445C27.659 12.0368 28.2958 9.77744 29.4094 7.82541C27.5762 5.47964 24.7227 3.96976 21.5147 3.96976C15.9828 3.96976 11.498 8.45422 11.498 13.9864V21.2177C11.498 26.7496 15.9825 31.2342 21.5147 31.2342C24.1816 31.2342 26.6031 30.1899 28.398 28.4906Z" fill="#FFD5DD"/>
<path d="M20.4105 45.9435V44.7429C20.4105 38.6102 24.4638 33.4248 30.0374 31.718C29.354 30.7322 28.8012 29.6494 28.4001 28.4955C26.6053 30.1945 24.1827 31.2369 21.5161 31.2369C18.1023 31.2369 15.0879 29.5286 13.2796 26.9206C9.10626 28.1984 6.07129 32.0812 6.07129 36.6732V45.9435H20.4105Z" fill="#FF932A"/>
<path d="M27.6989 13.4208C27.8522 11.3957 28.4568 9.49689 29.4117 7.82372C27.5786 5.47823 24.7238 3.96976 21.5161 3.96976C21.2539 3.96976 20.9941 3.97989 20.737 3.99974C18.6495 4.16036 16.7417 4.96119 15.2086 6.20572C13.0948 7.92141 11.8369 10.4807 11.6616 13.3711C14.0565 12.9314 16.0478 11.7472 17.6727 10.0671C19.7558 12.2209 22.6756 13.5605 25.9085 13.5605C26.5176 13.5602 27.1156 13.5123 27.6989 13.4208Z" fill="#F64B65"/>
<path d="M60.5583 3.96976C57.3503 3.96976 54.4968 5.47964 52.6636 7.82541C53.7773 9.77744 54.414 12.0368 54.414 14.445V24.1025C54.414 25.6401 54.1526 27.1158 53.675 28.4906C55.4699 30.1899 57.8913 31.2341 60.5582 31.2341C66.0901 31.2341 70.5748 26.7496 70.5748 21.2174V13.9861C70.575 8.45422 66.0902 3.96976 60.5583 3.96976Z" fill="#FFD5DD"/>
<path d="M76.0034 45.9436V36.6733C76.0034 32.0813 72.9684 28.1985 68.795 26.9206C66.9867 29.5286 63.9723 31.2369 60.5585 31.2369C57.8921 31.2369 55.4693 30.1948 53.6745 28.4955C53.2735 29.6493 52.7207 30.7322 52.0371 31.718C57.6107 33.4248 61.664 38.6103 61.664 44.7429V45.9435H76.0035V45.9436H76.0034Z" fill="#F64B65"/>
<path d="M60.5577 3.96976C60.2955 3.96976 60.0358 3.97989 59.7786 3.99974C57.6911 4.16036 55.7833 4.96119 54.2502 6.20572C53.6615 6.68349 53.1305 7.22897 52.6636 7.82653C53.3959 9.1102 53.9216 10.5269 54.1958 12.0314C55.1252 11.4951 55.9732 10.8333 56.7143 10.0671C58.7974 12.2209 61.7172 13.5605 64.9501 13.5605C66.9274 13.5605 68.6449 13.0596 70.2682 12.1777C69.4168 7.50896 65.4721 3.96976 60.5577 3.96976Z" fill="#FF932A"/>
<path d="M74.8198 29.9111C73.6662 28.3755 72.1173 27.1492 70.3715 26.3709C71.1832 24.8307 71.6451 23.0789 71.6451 21.2201V13.9889C71.6451 8.53859 67.6907 3.99754 62.501 3.07593C62.4921 3.07438 62.4832 3.07284 62.4744 3.07129C62.3382 3.0475 62.2013 3.02596 62.0636 3.0071C62.0146 3.0002 61.9653 2.99443 61.9164 2.98823C61.8067 2.97486 61.697 2.96163 61.5864 2.95135C61.4988 2.94305 61.4111 2.93742 61.3233 2.93122C61.2431 2.92559 61.1632 2.91898 61.0826 2.91503C60.9082 2.90673 60.7335 2.9018 60.5581 2.9018C60.4272 2.9018 60.2968 2.90476 60.1666 2.9094C60.1334 2.91053 60.1004 2.91208 60.0671 2.91363C59.9618 2.91813 59.8565 2.92418 59.7518 2.93179C59.7335 2.93305 59.7149 2.93347 59.6967 2.93488C59.6867 2.93559 59.6769 2.93685 59.6669 2.9377C59.4015 2.95867 59.1384 2.98922 58.8773 3.02877C58.8629 3.03089 58.8484 3.03328 58.834 3.03567C58.7077 3.05524 58.582 3.07692 58.4568 3.10085C58.4518 3.10183 58.4467 3.10268 58.4416 3.10366C56.3122 3.5133 54.3586 4.53809 52.8009 6.07022C50.4098 2.72204 46.6267 0.433849 42.3045 0.0561669C42.3038 0.0561669 42.3031 0.0560262 42.3022 0.0560262C42.1008 0.0384302 41.8984 0.0247753 41.6947 0.0154846C41.6733 0.0144992 41.6519 0.0139364 41.6305 0.0130918C41.4334 0.00506799 41.2356 0 41.0364 0C40.8682 0 40.7007 0.00394155 40.5339 0.00971306C40.4952 0.01098 40.4568 0.0123879 40.4182 0.0140772C40.2515 0.0211156 40.0853 0.0301246 39.92 0.0427937C39.918 0.0429345 39.9161 0.0429344 39.914 0.0430751C39.9047 0.043779 39.8955 0.0449053 39.8864 0.0457499C39.7379 0.0574336 39.5901 0.0720738 39.443 0.0882622C39.393 0.0937522 39.343 0.0993826 39.293 0.105436C39.1621 0.121343 39.0319 0.138517 38.9021 0.157802C38.8316 0.168219 38.7612 0.179762 38.691 0.191164C38.5969 0.206648 38.5032 0.222555 38.4097 0.23987C38.3281 0.254791 38.2467 0.270417 38.1656 0.286886C38.113 0.297585 38.0606 0.308987 38.0081 0.320249C37.8219 0.359945 37.6366 0.403161 37.4523 0.450178C37.4421 0.452712 37.4317 0.455245 37.4214 0.458061C35.4274 0.971021 33.5635 1.90615 31.938 3.22529C31.4265 3.64041 30.95 4.08834 30.5085 4.56442C30.0643 5.0374 29.6511 5.5398 29.273 6.06895C27.2112 4.04146 24.455 2.90194 21.5151 2.90194C21.3451 2.90194 21.1739 2.90715 21.0026 2.91489C20.9509 2.91729 20.8997 2.92081 20.8483 2.92376C20.7835 2.92756 20.7184 2.9301 20.6539 2.93488C20.5915 2.93967 20.5296 2.94685 20.4675 2.95276C20.4219 2.95698 20.3761 2.96107 20.3307 2.96585C19.9834 3.00273 19.6398 3.0558 19.3004 3.12436C19.2853 3.12745 19.2701 3.13083 19.2551 3.13393C19.0868 3.1687 18.9195 3.20741 18.7534 3.24992C18.7503 3.25077 18.747 3.25147 18.7441 3.25217C17.2129 3.6459 15.7816 4.36382 14.5333 5.37693C14.2334 5.62046 13.9494 5.8792 13.6809 6.1513C11.6724 8.15894 10.4285 10.9312 10.4285 13.9889V21.2201C10.4285 23.0789 10.8905 24.8307 11.7021 26.3709C9.95632 27.1493 8.40744 28.3755 7.25384 29.9111C5.77929 31.8738 5 34.2119 5 36.6731V47.0139H10.8271V44.8731H7.14081V36.6731C7.14081 32.8828 9.42337 29.5607 12.8927 28.1889C13.8197 29.3345 14.9556 30.2714 16.2242 30.9608C16.2368 30.9677 16.2497 30.9741 16.2625 30.981C16.3935 31.0516 16.5258 31.1194 16.6596 31.1847C16.6884 31.1988 16.717 31.2132 16.7459 31.227C16.8659 31.2842 16.9871 31.3386 17.1092 31.3915C17.163 31.4149 17.2167 31.4384 17.2711 31.4609C17.3842 31.5079 17.4983 31.5528 17.613 31.5959C17.6808 31.6214 17.7488 31.6462 17.8173 31.6704C17.9097 31.7032 18.0026 31.7346 18.0961 31.7648C18.1856 31.794 18.2755 31.8217 18.3658 31.8484C18.4393 31.8703 18.5132 31.8911 18.5873 31.9115C18.6913 31.9401 18.7957 31.9671 18.901 31.9927C18.9835 32.0129 19.0663 32.032 19.1493 32.0502C19.2182 32.0651 19.2866 32.0804 19.3559 32.0941C19.4807 32.1189 19.6063 32.141 19.7324 32.1615C19.79 32.1708 19.8474 32.1801 19.9053 32.1885C20.0445 32.209 20.184 32.2268 20.3243 32.2419C20.3681 32.2465 20.4122 32.2508 20.4561 32.255C20.6102 32.2698 20.7649 32.2822 20.9202 32.2903C20.9454 32.2916 20.9709 32.2924 20.9961 32.2936C21.1687 32.3017 21.3418 32.3067 21.5155 32.3067C21.6795 32.3067 21.8429 32.3023 22.0061 32.2951C22.0566 32.293 22.1068 32.2892 22.1571 32.2862C22.2713 32.2796 22.3853 32.272 22.4989 32.2619C22.5547 32.2571 22.6104 32.2513 22.6659 32.2456C22.7782 32.234 22.8903 32.2206 23.0019 32.2056C23.0522 32.1988 23.1025 32.1925 23.1527 32.185C23.2872 32.165 23.421 32.1425 23.5544 32.1177C23.5792 32.1132 23.6042 32.1093 23.6289 32.1046C23.794 32.0728 23.9583 32.0371 24.1214 31.9979C24.131 31.9957 24.1404 31.993 24.15 31.9906C24.2999 31.954 24.4487 31.9142 24.5967 31.8714C24.6285 31.8622 24.66 31.8524 24.6917 31.8428C24.8213 31.8041 24.9499 31.7631 25.0779 31.7199C25.1086 31.7095 25.1393 31.6991 25.1699 31.6884C25.3104 31.6394 25.4497 31.5877 25.5881 31.5331C25.601 31.5279 25.6143 31.5233 25.6272 31.5181C26.1037 31.3277 26.5666 31.1036 27.0134 30.848C27.0214 30.8435 27.0296 30.8387 27.0374 30.8341C27.183 30.7503 27.3267 30.6632 27.4688 30.5727C27.4703 30.5717 27.472 30.5707 27.4735 30.5697C27.6371 30.4653 27.7991 30.3577 27.9576 30.2444C28.1035 30.5554 28.2606 30.8608 28.4282 31.1602C28.3604 31.1884 28.2937 31.2189 28.2264 31.2481C28.1667 31.274 28.1067 31.2992 28.0475 31.3259C27.9263 31.3803 27.8063 31.437 27.6867 31.4946C27.6443 31.515 27.6015 31.5343 27.5594 31.5551C27.3984 31.6346 27.2389 31.7168 27.0808 31.8021C27.0465 31.8207 27.0127 31.8407 26.9783 31.8596C26.855 31.9274 26.7324 31.9963 26.6112 32.0676C26.5567 32.0997 26.5027 32.1329 26.4486 32.1659C26.348 32.2267 26.2479 32.2883 26.1489 32.3516C26.0909 32.3886 26.0336 32.426 25.9762 32.4639C25.881 32.5265 25.7866 32.5902 25.6927 32.6551C25.6367 32.6939 25.5805 32.7328 25.5249 32.7722C25.4278 32.8414 25.3316 32.9122 25.2362 32.9837C25.1869 33.0206 25.1374 33.0567 25.0886 33.0942C24.9708 33.1848 24.8546 33.2774 24.7395 33.3713C24.7152 33.3913 24.69 33.4103 24.6658 33.4304C24.5271 33.545 24.3906 33.6625 24.2561 33.782C24.2181 33.8157 24.1814 33.8507 24.1438 33.8848C24.0479 33.9718 23.9526 34.0596 23.859 34.1492C23.8112 34.1949 23.7643 34.2417 23.717 34.2882C23.6349 34.3689 23.5537 34.4501 23.4736 34.5328C23.4248 34.583 23.3765 34.6338 23.3283 34.6848C23.2504 34.7673 23.1738 34.8509 23.0979 34.9352C23.0522 34.9862 23.0061 35.037 22.9609 35.0885C22.881 35.1799 22.8028 35.2726 22.7251 35.3661C22.687 35.412 22.6483 35.457 22.6107 35.5032C22.5003 35.6392 22.3921 35.777 22.2865 35.9169C22.2837 35.9207 22.2805 35.9244 22.2778 35.9281C20.4759 38.3266 19.4704 41.1558 19.3516 44.1435C19.3437 44.3426 19.3398 44.5425 19.3398 44.743V44.8732H13.6816V47.014H19.3394V58.1936H25.1665V56.0527H21.4802V47.0137V44.7427C21.4802 42.0017 22.3476 39.3983 23.989 37.2134C24.0838 37.0871 24.1815 36.963 24.2809 36.8405C24.3133 36.8007 24.3471 36.762 24.38 36.7226C24.4483 36.6408 24.5166 36.5591 24.5868 36.4792C24.6273 36.4331 24.669 36.3881 24.7101 36.3426C24.7749 36.271 24.8399 36.1995 24.9064 36.1294C24.9511 36.0821 24.9967 36.0357 25.0422 35.9892C25.1071 35.9227 25.1725 35.8565 25.2388 35.7917C25.2866 35.7449 25.3347 35.699 25.3831 35.6531C25.4497 35.5899 25.517 35.5274 25.585 35.4658C25.6344 35.421 25.684 35.3764 25.7341 35.3325C25.8035 35.2715 25.8736 35.2114 25.9441 35.1519C25.9944 35.1095 26.0447 35.0671 26.0957 35.0256C26.169 34.9658 26.2435 34.9072 26.3183 34.8491C26.368 34.8104 26.4174 34.7712 26.4675 34.7334C26.548 34.6725 26.6296 34.6134 26.7116 34.5547C26.7575 34.5216 26.8031 34.4877 26.8494 34.4552C26.9482 34.3861 27.0483 34.3194 27.1489 34.2531C27.1798 34.2328 27.2099 34.2115 27.2409 34.1915C27.3733 34.1061 27.5072 34.0232 27.6426 33.9427C27.674 33.9239 27.7062 33.9065 27.7378 33.8883C27.8421 33.8277 27.9467 33.7675 28.0527 33.7098C28.1024 33.6828 28.1528 33.6573 28.2027 33.6309C28.2918 33.5838 28.3809 33.5371 28.471 33.4923C28.5273 33.4643 28.5844 33.4377 28.6412 33.4104C28.7264 33.3697 28.8117 33.3293 28.8977 33.2905C28.9575 33.2635 29.0178 33.2375 29.0779 33.2115C29.1623 33.1749 29.2471 33.1392 29.3325 33.1047C29.3942 33.0797 29.4561 33.0553 29.5182 33.0312C29.559 33.0153 29.6001 33.0006 29.6411 32.9853C30.8015 34.4727 32.2277 35.6997 33.8261 36.6209C33.8394 36.6287 33.8528 36.6363 33.866 36.644C33.9405 36.6867 34.0155 36.7285 34.0907 36.7697C34.1372 36.7952 34.1838 36.8205 34.2306 36.8456C34.2838 36.8742 34.3371 36.9025 34.3909 36.9302C34.4713 36.972 34.5521 37.0128 34.6333 37.0531C34.6585 37.0656 34.6837 37.0783 34.7089 37.0908C36.1443 37.7931 37.7125 38.2638 39.3648 38.4553C39.3741 38.4564 39.3834 38.4574 39.3926 38.4584C39.5112 38.4719 39.6302 38.4838 39.7497 38.4945C39.7725 38.4965 39.7953 38.4986 39.8182 38.5007C39.9244 38.5096 40.0309 38.5174 40.1378 38.5238C40.1692 38.5258 40.2004 38.5281 40.2318 38.5299C40.3337 38.5355 40.4361 38.5397 40.5386 38.5431C40.5715 38.5442 40.6043 38.5459 40.6375 38.5468C40.7704 38.5503 40.9036 38.5525 41.0373 38.5525C41.171 38.5525 41.3042 38.5504 41.4371 38.5468C41.47 38.5459 41.503 38.5442 41.536 38.5431C41.6385 38.5397 41.7409 38.5354 41.8428 38.5299C41.8742 38.5282 41.9054 38.5259 41.9368 38.5238C42.0435 38.5172 42.1502 38.5098 42.2564 38.5007C42.2792 38.4988 42.302 38.4968 42.3249 38.4945C42.4444 38.484 42.5634 38.4719 42.682 38.4584C42.6913 38.4574 42.7006 38.4563 42.7098 38.4553C44.3621 38.2638 45.9303 37.7932 47.3657 37.0908C47.3909 37.0784 47.4161 37.0658 47.4413 37.0531C47.5225 37.0128 47.6033 36.972 47.6837 36.9302C47.7373 36.9023 47.7905 36.8739 47.844 36.8456C47.8909 36.8205 47.9375 36.7952 47.9839 36.7697C48.0591 36.7285 48.1341 36.6867 48.2086 36.644C48.2218 36.6363 48.2352 36.6287 48.2484 36.6209C49.8467 35.6999 51.2731 34.4727 52.4335 32.9853C52.4745 33.0006 52.5156 33.0154 52.5564 33.0312C52.6185 33.0551 52.6803 33.0796 52.7421 33.1047C52.8274 33.1392 52.9122 33.1752 52.9967 33.2115C53.057 33.2375 53.1172 33.2635 53.1769 33.2905C53.2629 33.3293 53.3483 33.3697 53.4334 33.4104C53.4902 33.4376 53.5471 33.4642 53.6036 33.4923C53.6938 33.5371 53.7828 33.584 53.8719 33.6309C53.9218 33.6573 53.9722 33.6827 54.0219 33.7098C54.1278 33.7675 54.2324 33.8275 54.3368 33.8883C54.3684 33.9068 54.4006 33.9242 54.432 33.9427C54.5674 34.0232 54.7013 34.1061 54.8337 34.1915C54.8647 34.2115 54.8948 34.2328 54.9257 34.2531C55.0263 34.3192 55.1265 34.3861 55.2252 34.4552C55.2717 34.4876 55.3171 34.5215 55.363 34.5547C55.445 34.6137 55.5266 34.6725 55.6071 34.7334C55.6574 34.7714 55.7066 34.8105 55.7563 34.8491C55.8309 34.9073 55.9055 34.9658 55.9789 35.0256C56.0298 35.0671 56.0801 35.1095 56.1305 35.1519C56.2012 35.2114 56.2714 35.2714 56.3405 35.3325C56.3906 35.3764 56.4402 35.421 56.4896 35.4658C56.5576 35.5274 56.6247 35.5901 56.6915 35.6531C56.7399 35.699 56.788 35.7451 56.8357 35.7917C56.902 35.8565 56.9675 35.9229 57.0324 35.9892C57.0779 36.0357 57.1236 36.0821 57.1682 36.1294C57.2345 36.1995 57.2997 36.271 57.3645 36.3426C57.4056 36.3881 57.4474 36.4331 57.4878 36.4792C57.558 36.5591 57.6263 36.6408 57.6946 36.7226C57.7274 36.762 57.7612 36.8007 57.7937 36.8405C57.8933 36.963 57.9907 37.0871 58.0856 37.2134C59.727 39.3983 60.5944 42.0017 60.5944 44.7427V47.0137V51.7711H32.3025V53.9119H60.5931V56.0527H28.0207V58.1936H62.7339V47.0137H68.3917V44.8729H62.7339V44.7427C62.7339 44.5422 62.73 44.3422 62.7221 44.1432C62.6034 41.1552 61.5979 38.3262 59.796 35.9278C59.7931 35.924 59.7899 35.9203 59.7872 35.9167C59.6818 35.7766 59.5736 35.6389 59.463 35.5029C59.4255 35.4566 59.3867 35.4116 59.3486 35.3658C59.2709 35.2725 59.1928 35.1796 59.1128 35.0882C59.0678 35.0367 59.0217 34.9859 58.9758 34.9349C58.9 34.8506 58.8231 34.767 58.7454 34.6845C58.6973 34.6336 58.649 34.5827 58.6001 34.5325C58.52 34.45 58.4387 34.3686 58.3567 34.288C58.3094 34.2415 58.2627 34.1948 58.2147 34.1489C58.1211 34.0592 58.0259 33.9717 57.9299 33.8845C57.8923 33.8505 57.8556 33.8154 57.8176 33.7818C57.6832 33.6621 57.5468 33.5447 57.408 33.4301C57.3838 33.41 57.3586 33.391 57.3342 33.371C57.2191 33.2771 57.1028 33.1845 56.9851 33.094C56.9363 33.0565 56.8867 33.0203 56.8376 32.9835C56.7421 32.912 56.646 32.8411 56.5489 32.7719C56.4933 32.7323 56.4371 32.6935 56.3811 32.6548C56.2873 32.59 56.1929 32.5261 56.0975 32.4636C56.0401 32.4259 55.9827 32.3883 55.9248 32.3513C55.8257 32.2881 55.7258 32.2266 55.6251 32.1656C55.5709 32.1328 55.5172 32.0996 55.4625 32.0673C55.3412 31.996 55.2186 31.927 55.0954 31.8593C55.0612 31.8404 55.0274 31.8206 54.9929 31.8019C54.835 31.7165 54.6754 31.6343 54.5143 31.5548C54.4722 31.534 54.4294 31.5147 54.3871 31.4943C54.2674 31.4366 54.1475 31.38 54.0263 31.3256C53.9669 31.2989 53.9071 31.2737 53.8474 31.2478C53.7799 31.2187 53.7132 31.1881 53.6455 31.16C53.8132 30.8605 53.9703 30.5551 54.1161 30.2441C54.2745 30.3576 54.4365 30.4647 54.6001 30.5694C54.6017 30.5706 54.6034 30.5715 54.6053 30.5727C54.747 30.6632 54.8906 30.75 55.036 30.8338C55.0443 30.8384 55.0526 30.8434 55.0608 30.848C55.5073 31.1036 55.9699 31.3277 56.4464 31.5179C56.4596 31.5233 56.4731 31.5281 56.4864 31.5333C56.6243 31.5877 56.7634 31.6393 56.9035 31.6881C56.9343 31.699 56.9652 31.7094 56.9962 31.7199C57.1238 31.7631 57.2523 31.804 57.3814 31.8425C57.4133 31.8521 57.4451 31.862 57.4771 31.8713C57.6246 31.9138 57.7731 31.9537 57.9225 31.9902C57.9325 31.9926 57.9422 31.9954 57.9522 31.9979C58.1152 32.0372 58.2793 32.0727 58.4443 32.1045C58.4694 32.1093 58.4947 32.1132 58.5198 32.1177C58.6528 32.1424 58.7864 32.165 58.9205 32.1849C58.9708 32.1923 59.0213 32.1987 59.0717 32.2056C59.1832 32.2205 59.2951 32.234 59.4073 32.2456C59.4629 32.2513 59.5187 32.257 59.5745 32.2619C59.6881 32.2719 59.802 32.2798 59.9162 32.2861C59.9666 32.2889 60.0168 32.2927 60.0674 32.295C60.2304 32.3021 60.3938 32.3065 60.5578 32.3065C60.7315 32.3065 60.9047 32.3014 61.0772 32.2934C61.1024 32.2923 61.1279 32.2916 61.1531 32.2902C61.3085 32.2817 61.4631 32.2696 61.6174 32.2548C61.6613 32.2508 61.7052 32.2464 61.749 32.2418C61.8893 32.2267 62.0291 32.2088 62.1683 32.1884C62.226 32.18 62.2833 32.1707 62.3408 32.1614C62.4672 32.1407 62.5933 32.1187 62.7186 32.0937C62.7873 32.0802 62.8553 32.0648 62.9237 32.05C63.0072 32.0317 63.0902 32.0124 63.1731 31.9923C63.2777 31.967 63.3815 31.9401 63.4849 31.9117C63.5595 31.8911 63.6342 31.8701 63.7083 31.848C63.7974 31.8216 63.886 31.7944 63.9741 31.7657C64.0687 31.735 64.163 31.703 64.2569 31.6698C64.3249 31.6457 64.3926 31.6211 64.46 31.5958C64.5752 31.5524 64.6895 31.5074 64.8031 31.4603C64.8569 31.438 64.9102 31.4147 64.9637 31.3915C65.0867 31.3382 65.2091 31.2834 65.3301 31.2257C65.358 31.2125 65.3853 31.1985 65.413 31.185C65.5478 31.1194 65.6809 31.051 65.8128 30.9799C65.8248 30.9734 65.8369 30.9672 65.849 30.9608C67.1179 30.2714 68.2539 29.3345 69.181 28.1885C72.6504 29.5601 74.9329 32.8825 74.9329 36.6727V44.8726H71.2466V47.0134H77.0737V36.6727C77.0735 34.212 76.2942 31.8738 74.8198 29.9111ZM64.7827 29.1033C64.6764 29.1606 64.569 29.2158 64.4603 29.2687C64.4257 29.2856 64.3906 29.3012 64.3559 29.3177C64.2814 29.3528 64.2061 29.3867 64.1305 29.4198C64.0825 29.4407 64.0346 29.462 63.9862 29.4821C63.8949 29.5203 63.8025 29.5563 63.7096 29.5914C63.6491 29.6142 63.5883 29.636 63.5273 29.6575C63.4735 29.6765 63.4192 29.6947 63.365 29.7126C63.2665 29.7451 63.1676 29.7761 63.068 29.8052C63.0158 29.8204 62.9635 29.8356 62.911 29.8498C62.8467 29.8674 62.7822 29.8847 62.7175 29.9009C62.6226 29.9244 62.5272 29.9465 62.4311 29.9671C62.373 29.9795 62.3147 29.9909 62.2562 30.0021C62.1775 30.0172 62.0985 30.0315 62.019 30.0446C61.9584 30.0546 61.8979 30.0642 61.8371 30.0731C61.7401 30.087 61.6426 30.0995 61.5447 30.1104C61.5048 30.1147 61.4648 30.1194 61.4245 30.1232C61.3015 30.135 61.1777 30.1447 61.0532 30.1515C61.024 30.153 60.9949 30.1542 60.9659 30.1554C60.8306 30.1616 60.6949 30.1658 60.5581 30.1658C60.4213 30.1658 60.2849 30.1623 60.149 30.1561C60.1017 30.154 60.0547 30.1498 60.0075 30.147C59.9193 30.1415 59.8313 30.1361 59.7436 30.1281C59.6862 30.123 59.6292 30.116 59.572 30.1097C59.4957 30.1012 59.4193 30.0928 59.3434 30.0825C59.2806 30.0739 59.2182 30.0639 59.1557 30.0541C59.0865 30.0432 59.0174 30.032 58.9484 30.0194C58.882 30.0073 58.8156 29.9942 58.7496 29.9806C58.6864 29.9676 58.6235 29.954 58.5607 29.9396C58.4906 29.9236 58.4207 29.907 58.3511 29.8892C58.2942 29.8749 58.2379 29.8595 58.1813 29.844C58.1072 29.8236 58.0331 29.8029 57.9594 29.7806C57.9108 29.7659 57.8628 29.75 57.8146 29.7345C57.7344 29.7086 57.6542 29.6827 57.5748 29.6546C57.54 29.6423 57.5055 29.6287 57.4709 29.616C56.9063 29.4082 56.3626 29.1443 55.8488 28.8249C55.8464 28.8233 55.844 28.8219 55.8414 28.8205C55.7404 28.7577 55.641 28.6924 55.5424 28.6254C55.5326 28.6188 55.5229 28.6125 55.5134 28.6058C55.4178 28.5402 55.3233 28.4725 55.2299 28.403C55.2187 28.3947 55.2075 28.3864 55.1964 28.3781C55.1033 28.3081 55.0115 28.2363 54.9209 28.1626C54.9164 28.1589 54.9119 28.1551 54.9074 28.1514C54.9099 28.1427 54.912 28.1339 54.9145 28.1251C54.9586 27.9732 55.0004 27.8204 55.0395 27.6665C55.0425 27.6548 55.0453 27.643 55.0481 27.6313C55.0836 27.4904 55.1168 27.3485 55.1481 27.2062C55.1543 27.1779 55.1605 27.1499 55.1665 27.1216C55.2315 26.8167 55.287 26.5083 55.3323 26.1967C55.3373 26.1627 55.342 26.1285 55.3467 26.0943C55.3649 25.9631 55.3813 25.8312 55.396 25.699C55.3988 25.6738 55.402 25.6484 55.4047 25.6231C55.4207 25.4704 55.4342 25.3168 55.4455 25.1626C55.4479 25.1294 55.4496 25.0962 55.4518 25.0628C55.46 24.9401 55.4663 24.8169 55.4714 24.6933C55.4731 24.651 55.4749 24.6087 55.4762 24.5664C55.481 24.4129 55.4844 24.2591 55.4844 24.1045V14.4471C55.4844 14.3124 55.4821 14.1781 55.4785 14.0442C55.4775 14.0108 55.4758 13.9776 55.4747 13.9441C55.4711 13.8406 55.4668 13.7375 55.4611 13.6347C55.4593 13.6022 55.4571 13.5697 55.4548 13.5371C55.448 13.4304 55.4404 13.3237 55.4314 13.2176C55.4293 13.192 55.4269 13.1662 55.4245 13.1406C55.4138 13.0224 55.4019 12.9047 55.3882 12.7873C55.3867 12.7739 55.3853 12.7604 55.3837 12.747C55.3767 12.6873 55.3699 12.6276 55.3622 12.5684C55.8354 12.2569 56.2879 11.9163 56.7136 11.545C58.9946 13.5436 61.8813 14.6327 64.9503 14.6327C66.5343 14.6327 68.0332 14.3356 69.4976 13.7311C69.5 13.8167 69.5042 13.9022 69.5042 13.9883V21.2196C69.5042 24.597 67.6224 27.5425 64.8526 29.0648C64.8296 29.0781 64.8062 29.0908 64.7827 29.1033ZM46.852 34.9479C46.7039 35.0277 46.554 35.1047 46.4024 35.1785C46.3578 35.2001 46.3123 35.2206 46.2673 35.2417C46.1613 35.2916 46.0543 35.3399 45.9467 35.3868C45.883 35.4147 45.8193 35.4431 45.7549 35.4697C45.6278 35.5226 45.4991 35.573 45.3699 35.6219C45.2882 35.6526 45.2062 35.6821 45.1239 35.7113C45.0472 35.7384 44.9697 35.7642 44.892 35.79C44.7598 35.8336 44.6269 35.8751 44.4932 35.9143C44.4195 35.9358 44.3458 35.9571 44.2715 35.9773C44.1838 36.0013 44.0961 36.025 44.0078 36.047C43.8767 36.0795 43.745 36.1101 43.6125 36.1385C43.5331 36.1555 43.4534 36.171 43.3736 36.1865C43.2644 36.2076 43.1549 36.2273 43.0447 36.2455C42.9624 36.259 42.8801 36.2721 42.7975 36.2841C42.6635 36.3033 42.5287 36.3207 42.3935 36.3356C42.3388 36.3418 42.2842 36.3478 42.2295 36.3532C42.06 36.3697 41.8895 36.3829 41.7179 36.3922C41.6779 36.3944 41.638 36.3958 41.598 36.3978C41.4119 36.4062 41.2252 36.412 41.0369 36.412C40.8487 36.412 40.662 36.4061 40.4758 36.3978C40.4358 36.396 40.3957 36.3946 40.3558 36.3922C40.1844 36.3827 40.0139 36.3695 39.8443 36.3532C39.7895 36.3478 39.7349 36.3416 39.6803 36.3356C39.5449 36.3208 39.4103 36.3033 39.2763 36.2841C39.1936 36.2721 39.1113 36.2591 39.0291 36.2455C38.9189 36.2273 38.8094 36.2076 38.7001 36.1865C38.6203 36.1712 38.5405 36.1555 38.4612 36.1385C38.3286 36.1101 38.1967 36.0795 38.066 36.047C37.9777 36.025 37.89 36.0014 37.8023 35.9773C37.7281 35.9571 37.6543 35.9358 37.5806 35.9143C37.4469 35.875 37.314 35.8336 37.1818 35.79C37.1042 35.7643 37.0268 35.7384 36.9498 35.7113C36.8676 35.6823 36.7855 35.6527 36.7039 35.6219C36.5745 35.573 36.446 35.5228 36.3189 35.4697C36.2545 35.443 36.1911 35.4147 36.127 35.3868C36.0195 35.3398 35.9123 35.2916 35.8065 35.2417C35.7616 35.2206 35.7161 35.2001 35.6713 35.1785C35.5196 35.1047 35.37 35.0276 35.2217 34.9479C35.1919 34.9318 35.162 34.9157 35.1323 34.8993C32.5535 33.4831 30.5347 31.1699 29.4979 28.3824C29.4854 28.3485 29.4729 28.3143 29.4604 28.2802C29.4132 28.1499 29.3694 28.018 29.3266 27.886C29.308 27.8282 29.2883 27.7711 29.2707 27.7132C29.2251 27.5647 29.1829 27.4147 29.1429 27.2638C29.1342 27.231 29.1241 27.1986 29.1156 27.1656C29.0692 26.9852 29.0275 26.803 28.9893 26.6196C28.977 26.5601 28.9668 26.4999 28.9553 26.4403C28.9308 26.3133 28.9073 26.1858 28.8866 26.0574C28.8752 25.9863 28.8653 25.9151 28.8552 25.8437C28.838 25.7229 28.8225 25.6017 28.8087 25.4799C28.8007 25.4083 28.793 25.3368 28.7864 25.265C28.7741 25.1351 28.7647 25.0046 28.7565 24.8735C28.7527 24.8111 28.7478 24.7491 28.7448 24.6866C28.7358 24.4937 28.7302 24.3002 28.7302 24.1052V14.5298C31.4035 13.9134 33.8109 12.6317 35.9061 10.7059C38.9221 13.4499 42.7873 14.9489 46.9031 14.9489C49.1502 14.9489 51.2586 14.5018 53.3105 13.5899C53.3141 13.6437 53.3198 13.6969 53.3227 13.751C53.3253 13.7977 53.3274 13.8443 53.3296 13.891C53.3379 14.0757 53.3437 14.261 53.3437 14.4476V24.1051C53.3437 24.3 53.3379 24.4937 53.3291 24.6866C53.3262 24.7489 53.3212 24.8111 53.3174 24.8734C53.3092 25.0046 53.2996 25.1351 53.2875 25.2651C53.2808 25.3368 53.2732 25.4083 53.2651 25.4798C53.2515 25.6018 53.2359 25.7233 53.2187 25.8441C53.2086 25.9152 53.1987 25.9863 53.1874 26.0571C53.1669 26.1859 53.1432 26.3137 53.1186 26.4411C53.1072 26.5005 53.0971 26.5603 53.0848 26.6195C53.0465 26.8032 53.0047 26.9855 52.9584 27.1661C52.9501 27.1982 52.9401 27.23 52.9317 27.2619C52.8914 27.4135 52.849 27.564 52.8031 27.7134C52.7854 27.7711 52.7658 27.8282 52.7474 27.8857C52.7046 28.018 52.6608 28.15 52.6135 28.2804C52.6013 28.3145 52.5888 28.3487 52.5759 28.3826C51.5392 31.1701 49.5204 33.4832 46.9415 34.8995C46.9116 34.9156 46.8819 34.9317 46.852 34.9479ZM27.1526 28.1633C27.0619 28.237 26.9702 28.3088 26.8771 28.3788C26.866 28.3872 26.8547 28.3955 26.8436 28.4037C26.7503 28.4732 26.6558 28.541 26.5601 28.6066C26.5505 28.6132 26.5407 28.6195 26.5311 28.6261C26.4324 28.6933 26.3329 28.7584 26.232 28.8214C26.2297 28.8228 26.2275 28.824 26.2251 28.8254C25.7108 29.145 25.1669 29.4092 24.6017 29.6171C24.5675 29.6297 24.5333 29.6432 24.499 29.6553C24.4192 29.6836 24.3386 29.7095 24.2583 29.7355C24.2103 29.7509 24.1625 29.7666 24.1144 29.7813C24.0406 29.8036 23.9663 29.8243 23.8918 29.8449C23.8357 29.8602 23.7792 29.8756 23.7228 29.8899C23.653 29.9077 23.5828 29.9243 23.5127 29.9405C23.4501 29.9547 23.3873 29.9683 23.3243 29.9813C23.2581 29.9948 23.1917 30.0082 23.1251 30.0203C23.0562 30.0328 22.9873 30.0439 22.9181 30.0549C22.8556 30.0648 22.7931 30.0748 22.7302 30.0834C22.6545 30.0936 22.578 30.1021 22.5019 30.1105C22.4446 30.1169 22.3874 30.1238 22.33 30.1291C22.2423 30.137 22.1543 30.1425 22.0662 30.1478C22.0189 30.1506 21.972 30.1549 21.9246 30.157C21.7888 30.1632 21.6525 30.1667 21.5155 30.1667C21.3788 30.1667 21.243 30.1625 21.1077 30.1563C21.0786 30.155 21.0494 30.1539 21.0204 30.1523C20.896 30.1454 20.7723 30.1359 20.6491 30.124C20.609 30.1202 20.569 30.1156 20.529 30.1112C20.431 30.1004 20.3336 30.088 20.2366 30.0739C20.1758 30.0651 20.1152 30.0555 20.0546 30.0455C19.9752 30.0324 19.8963 30.0182 19.8176 30.0031C19.7592 29.9919 19.7007 29.9804 19.6426 29.9681C19.5467 29.9475 19.4512 29.9254 19.3564 29.9019C19.2915 29.8857 19.2269 29.8683 19.1626 29.8507C19.1102 29.8364 19.0581 29.8214 19.006 29.8062C18.9061 29.7769 18.807 29.7459 18.7082 29.7133C18.6541 29.6954 18.6001 29.6775 18.5466 29.6585C18.4855 29.637 18.4244 29.615 18.3639 29.5922C18.2711 29.5573 18.1789 29.5211 18.0875 29.483C18.039 29.4628 17.9911 29.4414 17.943 29.4205C17.8676 29.3875 17.7926 29.3536 17.7184 29.3188C17.6834 29.3024 17.6479 29.2865 17.613 29.2694C17.5045 29.2166 17.3973 29.1615 17.2913 29.1044C17.2677 29.0918 17.2439 29.0788 17.2203 29.0659C14.4509 27.5433 12.5691 24.598 12.5691 21.2207V14.272C14.4496 13.8066 16.1611 12.8947 17.6749 11.5496C19.9554 13.546 22.8406 14.6339 25.9078 14.6339C26.1347 14.6339 26.3619 14.6254 26.589 14.6132V24.1056C26.589 24.2602 26.5922 24.414 26.5971 24.5675C26.5984 24.6098 26.6002 24.6521 26.6019 24.6943C26.6068 24.8179 26.6135 24.9412 26.6215 25.0641C26.6236 25.0973 26.6253 25.1304 26.6278 25.1638C26.6391 25.3181 26.6526 25.4715 26.6686 25.6244C26.6713 25.6494 26.6745 25.6746 26.6774 25.6997C26.6919 25.8323 26.7085 25.9642 26.7268 26.0957C26.7314 26.1296 26.7362 26.1638 26.741 26.1977C26.7863 26.5094 26.8418 26.8178 26.9068 27.1228C26.9129 27.151 26.9191 27.179 26.9253 27.2072C26.9565 27.3498 26.9896 27.4917 27.0252 27.6324C27.0282 27.6441 27.031 27.6559 27.0338 27.6676C27.0729 27.8215 27.1149 27.9744 27.1588 28.1262C27.1613 28.135 27.1633 28.1438 27.166 28.1526C27.1617 28.1558 27.1572 28.1595 27.1526 28.1633ZM19.7066 5.22673C19.7109 5.22589 19.7152 5.2249 19.7195 5.22406C19.9963 5.16733 20.2779 5.12425 20.5634 5.09399C20.5969 5.09047 20.6305 5.08737 20.6642 5.08428C20.7686 5.07442 20.8738 5.06654 20.9793 5.06035C21.0199 5.05795 21.0603 5.05528 21.101 5.05331C21.2385 5.04697 21.3766 5.04275 21.5157 5.04275C24.0563 5.04275 26.4285 6.09851 28.1239 7.96172C28.1025 8.00424 28.0834 8.04745 28.0624 8.09011C28.0148 8.18695 27.9678 8.28409 27.9225 8.38192C27.877 8.48003 27.8331 8.57871 27.7899 8.67767C27.7751 8.7116 27.7604 8.7458 27.7461 8.77987C27.3702 9.65742 27.0849 10.5659 26.892 11.5006C26.8834 11.5417 26.8754 11.5831 26.8673 11.6244C26.8391 11.7671 26.8128 11.9104 26.7889 12.0543C26.7727 12.1507 26.7573 12.2476 26.7431 12.3447C26.7375 12.3834 26.7302 12.4216 26.7248 12.4603C26.4531 12.4814 26.1803 12.4921 25.9083 12.4921C23.0689 12.4921 20.4172 11.3675 18.442 9.32507L17.6725 8.52958L16.9031 9.32507C15.7271 10.541 14.3974 11.4132 12.9361 11.9297C13.3004 10.2463 14.0987 8.75904 15.2619 7.60009C16.4643 6.42242 17.9965 5.57936 19.7066 5.22673ZM32.2394 5.85344C32.2837 5.80755 32.3284 5.76151 32.3734 5.71619C34.0353 4.06722 36.1632 2.88744 38.5402 2.39574C38.5505 2.39363 38.5608 2.39138 38.571 2.38912C38.949 2.31184 39.3336 2.25314 39.7232 2.21161C39.7728 2.20626 39.8225 2.20204 39.872 2.1974C40.0125 2.18416 40.1535 2.17361 40.2953 2.16516C40.3527 2.16178 40.41 2.15784 40.4676 2.15517C40.6564 2.14644 40.846 2.14081 41.0367 2.14081C41.232 2.14081 41.4258 2.14658 41.6188 2.15545C41.7066 2.15953 41.7938 2.16685 41.8813 2.1729C41.9807 2.17966 42.0798 2.18642 42.1785 2.19557C42.2983 2.20683 42.4174 2.22048 42.5366 2.2354C42.5945 2.24244 42.6521 2.24948 42.7096 2.25736C42.8577 2.27792 43.0055 2.30044 43.1525 2.32648C43.1675 2.32902 43.1827 2.33197 43.1978 2.33465C45.2923 2.71275 47.2591 3.63591 48.8839 5.02642C50.8284 6.69059 52.2125 8.9502 52.8344 11.4532C50.9329 12.364 48.9847 12.8081 46.903 12.8081C43.0126 12.8081 39.3797 11.2671 36.6735 8.46905L35.904 7.67357L35.1346 8.46905C33.3698 10.2938 31.333 11.5548 29.0644 12.2304C29.4692 9.85999 30.5005 7.73382 32.0603 6.04122C32.1195 5.97802 32.1789 5.91523 32.2394 5.85344ZM54.226 7.67357C54.2649 7.63444 54.3043 7.59601 54.3436 7.55786C54.4083 7.49508 54.4741 7.43328 54.5405 7.37261C54.5768 7.33953 54.6126 7.30574 54.6493 7.27337C54.7425 7.19088 54.8374 7.11064 54.9337 7.03251C54.9883 6.98831 55.0442 6.9458 55.0996 6.90286C55.1464 6.86669 55.193 6.83093 55.2403 6.79588C55.306 6.74703 55.3723 6.69917 55.439 6.6523C55.4735 6.62808 55.5086 6.60472 55.5435 6.58107C55.7006 6.47437 55.8602 6.37217 56.0229 6.27602C56.0289 6.27264 56.0343 6.26884 56.0403 6.26546C56.1159 6.22098 56.1927 6.17875 56.2696 6.13638C56.3086 6.11498 56.3477 6.09387 56.3868 6.07317C56.4606 6.03418 56.5346 5.99561 56.6095 5.95887C56.6536 5.93719 56.6985 5.91664 56.743 5.89567C56.8614 5.83978 56.9807 5.78657 57.1014 5.73589C57.1618 5.7107 57.222 5.68508 57.2828 5.66115C57.3457 5.63637 57.4091 5.61286 57.4726 5.58949C57.5411 5.56444 57.61 5.54023 57.6791 5.51672C57.736 5.49743 57.7925 5.47772 57.8498 5.45956C57.9689 5.42184 58.0887 5.38637 58.2095 5.35371C58.253 5.34188 58.2972 5.33175 58.341 5.32063C58.4323 5.2974 58.5241 5.2753 58.6163 5.25489C58.6655 5.24405 58.7147 5.23363 58.764 5.2235C58.8669 5.20266 58.9702 5.18366 59.074 5.16634C59.1062 5.16085 59.138 5.15466 59.1704 5.14959C59.304 5.1289 59.4384 5.11159 59.5736 5.09681C59.6135 5.09244 59.6536 5.08906 59.6936 5.08526C59.7969 5.07541 59.9007 5.06724 60.0049 5.06105C60.0484 5.05837 60.0919 5.05556 60.1355 5.05345C60.2758 5.04683 60.4165 5.04247 60.5581 5.04247C60.7045 5.04247 60.85 5.04655 60.9949 5.05359C61.0281 5.05514 61.0609 5.05795 61.0941 5.06006C61.2094 5.06696 61.3243 5.07513 61.4386 5.08639C61.4683 5.0892 61.4979 5.09286 61.5274 5.0961C61.6482 5.10919 61.7681 5.12425 61.8875 5.14185C61.9083 5.14495 61.929 5.14819 61.9499 5.15142C62.0801 5.17183 62.2093 5.19478 62.3377 5.22096C62.3491 5.22321 62.3606 5.22533 62.372 5.22786C62.5089 5.25616 62.6447 5.28755 62.7791 5.32203C62.7848 5.32344 62.7904 5.32471 62.796 5.32612C62.9255 5.35948 63.0536 5.39664 63.1807 5.43563C63.1947 5.43986 63.2089 5.44366 63.2227 5.44788C63.277 5.46491 63.3301 5.48462 63.3841 5.5025C64.4208 5.85358 65.3839 6.40102 66.2391 7.13668C67.5882 8.29732 68.565 9.86041 69.0401 11.5988C67.7141 12.2062 66.3966 12.4921 64.9508 12.4921C62.1113 12.4921 59.4597 11.3675 57.4845 9.32507L56.7151 8.52958L55.9457 9.32507C55.612 9.67009 55.2546 9.99146 54.8762 10.2872C54.8646 10.2482 54.8508 10.2102 54.8387 10.1714C54.8209 10.1144 54.8021 10.0579 54.7838 10.0012C54.7674 9.95092 54.7515 9.90053 54.7346 9.85042C54.701 9.75005 54.6664 9.6501 54.6306 9.55058C54.6034 9.47527 54.575 9.40024 54.5466 9.32535C54.4967 9.19401 54.4454 9.06352 54.3917 8.93359C54.351 8.83477 54.3097 8.73651 54.2667 8.63854C54.2362 8.56914 54.2053 8.50016 54.1737 8.43119C54.1106 8.29338 54.0457 8.15641 53.9781 8.02057C53.9686 8.00128 53.9601 7.98157 53.9504 7.96243C53.9745 7.93582 53.9997 7.91063 54.024 7.8843C54.0903 7.81335 54.1576 7.74269 54.226 7.67357Z" fill="#002770"/>
<path d="M74.8198 29.9111C73.6662 28.3755 72.1173 27.1492 70.3715 26.3709C71.1832 24.8307 71.6451 23.0789 71.6451 21.2201V13.9889C71.6451 8.53859 67.6907 3.99754 62.501 3.07593C62.4921 3.07438 62.4832 3.07284 62.4744 3.07129C62.3382 3.0475 62.2013 3.02596 62.0636 3.0071C62.0146 3.0002 61.9653 2.99443 61.9164 2.98823C61.8067 2.97486 61.697 2.96163 61.5864 2.95135C61.4988 2.94305 61.4111 2.93742 61.3233 2.93122C61.2431 2.92559 61.1632 2.91898 61.0826 2.91503C60.9082 2.90673 60.7335 2.9018 60.5581 2.9018C60.4272 2.9018 60.2968 2.90476 60.1666 2.9094C60.1334 2.91053 60.1004 2.91208 60.0671 2.91363C59.9618 2.91813 59.8565 2.92418 59.7518 2.93179C59.7335 2.93305 59.7149 2.93347 59.6967 2.93488C59.6867 2.93559 59.6769 2.93685 59.6669 2.9377C59.4015 2.95867 59.1384 2.98922 58.8773 3.02877C58.8629 3.03089 58.8484 3.03328 58.834 3.03567C58.7077 3.05524 58.582 3.07692 58.4568 3.10085C58.4518 3.10183 58.4467 3.10268 58.4416 3.10366C56.3122 3.5133 54.3586 4.53809 52.8009 6.07022C50.4098 2.72204 46.6267 0.433849 42.3045 0.0561669C42.3038 0.0561669 42.3031 0.0560262 42.3022 0.0560262C42.1008 0.0384302 41.8984 0.0247753 41.6947 0.0154846C41.6733 0.0144992 41.6519 0.0139364 41.6305 0.0130918C41.4334 0.00506799 41.2356 0 41.0364 0C40.8682 0 40.7007 0.00394155 40.5339 0.00971306C40.4952 0.01098 40.4568 0.0123879 40.4182 0.0140772C40.2515 0.0211156 40.0853 0.0301246 39.92 0.0427937C39.918 0.0429345 39.9161 0.0429344 39.914 0.0430751C39.9047 0.043779 39.8955 0.0449053 39.8864 0.0457499C39.7379 0.0574336 39.5901 0.0720738 39.443 0.0882622C39.393 0.0937522 39.343 0.0993826 39.293 0.105436C39.1621 0.121343 39.0319 0.138517 38.9021 0.157802C38.8316 0.168219 38.7612 0.179762 38.691 0.191164C38.5969 0.206648 38.5032 0.222555 38.4097 0.23987C38.3281 0.254791 38.2467 0.270417 38.1656 0.286886C38.113 0.297585 38.0606 0.308987 38.0081 0.320249C37.8219 0.359945 37.6366 0.403161 37.4523 0.450178C37.4421 0.452712 37.4317 0.455245 37.4214 0.458061C35.4274 0.971021 33.5635 1.90615 31.938 3.22529C31.4265 3.64041 30.95 4.08834 30.5085 4.56442C30.0643 5.0374 29.6511 5.5398 29.273 6.06895C27.2112 4.04146 24.455 2.90194 21.5151 2.90194C21.3451 2.90194 21.1739 2.90715 21.0026 2.91489C20.9509 2.91729 20.8997 2.92081 20.8483 2.92376C20.7835 2.92756 20.7184 2.9301 20.6539 2.93488C20.5915 2.93967 20.5296 2.94685 20.4675 2.95276C20.4219 2.95698 20.3761 2.96107 20.3307 2.96585C19.9834 3.00273 19.6398 3.0558 19.3004 3.12436C19.2853 3.12745 19.2701 3.13083 19.2551 3.13393C19.0868 3.1687 18.9195 3.20741 18.7534 3.24992C18.7503 3.25077 18.747 3.25147 18.7441 3.25217C17.2129 3.6459 15.7816 4.36382 14.5333 5.37693C14.2334 5.62046 13.9494 5.8792 13.6809 6.1513C11.6724 8.15894 10.4285 10.9312 10.4285 13.9889V21.2201C10.4285 23.0789 10.8905 24.8307 11.7021 26.3709C9.95632 27.1493 8.40744 28.3755 7.25384 29.9111C5.77929 31.8738 5 34.2119 5 36.6731V47.0139H10.8271V44.8731H7.14081V36.6731C7.14081 32.8828 9.42337 29.5607 12.8927 28.1889C13.8197 29.3345 14.9556 30.2714 16.2242 30.9608C16.2368 30.9677 16.2497 30.9741 16.2625 30.981C16.3935 31.0516 16.5258 31.1194 16.6596 31.1847C16.6884 31.1988 16.717 31.2132 16.7459 31.227C16.8659 31.2842 16.9871 31.3386 17.1092 31.3915C17.163 31.4149 17.2167 31.4384 17.2711 31.4609C17.3842 31.5079 17.4983 31.5528 17.613 31.5959C17.6808 31.6214 17.7488 31.6462 17.8173 31.6704C17.9097 31.7032 18.0026 31.7346 18.0961 31.7648C18.1856 31.794 18.2755 31.8217 18.3658 31.8484C18.4393 31.8703 18.5132 31.8911 18.5873 31.9115C18.6913 31.9401 18.7957 31.9671 18.901 31.9927C18.9835 32.0129 19.0663 32.032 19.1493 32.0502C19.2182 32.0651 19.2866 32.0804 19.3559 32.0941C19.4807 32.1189 19.6063 32.141 19.7324 32.1615C19.79 32.1708 19.8474 32.1801 19.9053 32.1885C20.0445 32.209 20.184 32.2268 20.3243 32.2419C20.3681 32.2465 20.4122 32.2508 20.4561 32.255C20.6102 32.2698 20.7649 32.2822 20.9202 32.2903C20.9454 32.2916 20.9709 32.2924 20.9961 32.2936C21.1687 32.3017 21.3418 32.3067 21.5155 32.3067C21.6795 32.3067 21.8429 32.3023 22.0061 32.2951C22.0566 32.293 22.1068 32.2892 22.1571 32.2862C22.2713 32.2796 22.3853 32.272 22.4989 32.2619C22.5547 32.2571 22.6104 32.2513 22.6659 32.2456C22.7782 32.234 22.8903 32.2206 23.0019 32.2056C23.0522 32.1988 23.1025 32.1925 23.1527 32.185C23.2872 32.165 23.421 32.1425 23.5544 32.1177C23.5792 32.1132 23.6042 32.1093 23.6289 32.1046C23.794 32.0728 23.9583 32.0371 24.1214 31.9979C24.131 31.9957 24.1404 31.993 24.15 31.9906C24.2999 31.954 24.4487 31.9142 24.5967 31.8714C24.6285 31.8622 24.66 31.8524 24.6917 31.8428C24.8213 31.8041 24.9499 31.7631 25.0779 31.7199C25.1086 31.7095 25.1393 31.6991 25.1699 31.6884C25.3104 31.6394 25.4497 31.5877 25.5881 31.5331C25.601 31.5279 25.6143 31.5233 25.6272 31.5181C26.1037 31.3277 26.5666 31.1036 27.0134 30.848C27.0214 30.8435 27.0296 30.8387 27.0374 30.8341C27.183 30.7503 27.3267 30.6632 27.4688 30.5727C27.4703 30.5717 27.472 30.5707 27.4735 30.5697C27.6371 30.4653 27.7991 30.3577 27.9576 30.2444C28.1035 30.5554 28.2606 30.8608 28.4282 31.1602C28.3604 31.1884 28.2937 31.2189 28.2264 31.2481C28.1667 31.274 28.1067 31.2992 28.0475 31.3259C27.9263 31.3803 27.8063 31.437 27.6867 31.4946C27.6443 31.515 27.6015 31.5343 27.5594 31.5551C27.3984 31.6346 27.2389 31.7168 27.0808 31.8021C27.0465 31.8207 27.0127 31.8407 26.9783 31.8596C26.855 31.9274 26.7324 31.9963 26.6112 32.0676C26.5567 32.0997 26.5027 32.1329 26.4486 32.1659C26.348 32.2267 26.2479 32.2883 26.1489 32.3516C26.0909 32.3886 26.0336 32.426 25.9762 32.4639C25.881 32.5265 25.7866 32.5902 25.6927 32.6551C25.6367 32.6939 25.5805 32.7328 25.5249 32.7722C25.4278 32.8414 25.3316 32.9122 25.2362 32.9837C25.1869 33.0206 25.1374 33.0567 25.0886 33.0942C24.9708 33.1848 24.8546 33.2774 24.7395 33.3713C24.7152 33.3913 24.69 33.4103 24.6658 33.4304C24.5271 33.545 24.3906 33.6625 24.2561 33.782C24.2181 33.8157 24.1814 33.8507 24.1438 33.8848C24.0479 33.9718 23.9526 34.0596 23.859 34.1492C23.8112 34.1949 23.7643 34.2417 23.717 34.2882C23.6349 34.3689 23.5537 34.4501 23.4736 34.5328C23.4248 34.583 23.3765 34.6338 23.3283 34.6848C23.2504 34.7673 23.1738 34.8509 23.0979 34.9352C23.0522 34.9862 23.0061 35.037 22.9609 35.0885C22.881 35.1799 22.8028 35.2726 22.7251 35.3661C22.687 35.412 22.6483 35.457 22.6107 35.5032C22.5003 35.6392 22.3921 35.777 22.2865 35.9169C22.2837 35.9207 22.2805 35.9244 22.2778 35.9281C20.4759 38.3266 19.4704 41.1558 19.3516 44.1435C19.3437 44.3426 19.3398 44.5425 19.3398 44.743V44.8732H13.6816V47.014H19.3394V58.1936H25.1665V56.0527H21.4802V47.0137V44.7427C21.4802 42.0017 22.3476 39.3983 23.989 37.2134C24.0838 37.0871 24.1815 36.963 24.2809 36.8405C24.3133 36.8007 24.3471 36.762 24.38 36.7226C24.4483 36.6408 24.5166 36.5591 24.5868 36.4792C24.6273 36.4331 24.669 36.3881 24.7101 36.3426C24.7749 36.271 24.8399 36.1995 24.9064 36.1294C24.9511 36.0821 24.9967 36.0357 25.0422 35.9892C25.1071 35.9227 25.1725 35.8565 25.2388 35.7917C25.2866 35.7449 25.3347 35.699 25.3831 35.6531C25.4497 35.5899 25.517 35.5274 25.585 35.4658C25.6344 35.421 25.684 35.3764 25.7341 35.3325C25.8035 35.2715 25.8736 35.2114 25.9441 35.1519C25.9944 35.1095 26.0447 35.0671 26.0957 35.0256C26.169 34.9658 26.2435 34.9072 26.3183 34.8491C26.368 34.8104 26.4174 34.7712 26.4675 34.7334C26.548 34.6725 26.6296 34.6134 26.7116 34.5547C26.7575 34.5216 26.8031 34.4877 26.8494 34.4552C26.9482 34.3861 27.0483 34.3194 27.1489 34.2531C27.1798 34.2328 27.2099 34.2115 27.2409 34.1915C27.3733 34.1061 27.5072 34.0232 27.6426 33.9427C27.674 33.9239 27.7062 33.9065 27.7378 33.8883C27.8421 33.8277 27.9467 33.7675 28.0527 33.7098C28.1024 33.6828 28.1528 33.6573 28.2027 33.6309C28.2918 33.5838 28.3809 33.5371 28.471 33.4923C28.5273 33.4643 28.5844 33.4377 28.6412 33.4104C28.7264 33.3697 28.8117 33.3293 28.8977 33.2905C28.9575 33.2635 29.0178 33.2375 29.0779 33.2115C29.1623 33.1749 29.2471 33.1392 29.3325 33.1047C29.3942 33.0797 29.4561 33.0553 29.5182 33.0312C29.559 33.0153 29.6001 33.0006 29.6411 32.9853C30.8015 34.4727 32.2277 35.6997 33.8261 36.6209C33.8394 36.6287 33.8528 36.6363 33.866 36.644C33.9405 36.6867 34.0155 36.7285 34.0907 36.7697C34.1372 36.7952 34.1838 36.8205 34.2306 36.8456C34.2838 36.8742 34.3371 36.9025 34.3909 36.9302C34.4713 36.972 34.5521 37.0128 34.6333 37.0531C34.6585 37.0656 34.6837 37.0783 34.7089 37.0908C36.1443 37.7931 37.7125 38.2638 39.3648 38.4553C39.3741 38.4564 39.3834 38.4574 39.3926 38.4584C39.5112 38.4719 39.6302 38.4838 39.7497 38.4945C39.7725 38.4965 39.7953 38.4986 39.8182 38.5007C39.9244 38.5096 40.0309 38.5174 40.1378 38.5238C40.1692 38.5258 40.2004 38.5281 40.2318 38.5299C40.3337 38.5355 40.4361 38.5397 40.5386 38.5431C40.5715 38.5442 40.6043 38.5459 40.6375 38.5468C40.7704 38.5503 40.9036 38.5525 41.0373 38.5525C41.171 38.5525 41.3042 38.5504 41.4371 38.5468C41.47 38.5459 41.503 38.5442 41.536 38.5431C41.6385 38.5397 41.7409 38.5354 41.8428 38.5299C41.8742 38.5282 41.9054 38.5259 41.9368 38.5238C42.0435 38.5172 42.1502 38.5098 42.2564 38.5007C42.2792 38.4988 42.302 38.4968 42.3249 38.4945C42.4444 38.484 42.5634 38.4719 42.682 38.4584C42.6913 38.4574 42.7006 38.4563 42.7098 38.4553C44.3621 38.2638 45.9303 37.7932 47.3657 37.0908C47.3909 37.0784 47.4161 37.0658 47.4413 37.0531C47.5225 37.0128 47.6033 36.972 47.6837 36.9302C47.7373 36.9023 47.7905 36.8739 47.844 36.8456C47.8909 36.8205 47.9375 36.7952 47.9839 36.7697C48.0591 36.7285 48.1341 36.6867 48.2086 36.644C48.2218 36.6363 48.2352 36.6287 48.2484 36.6209C49.8467 35.6999 51.2731 34.4727 52.4335 32.9853C52.4745 33.0006 52.5156 33.0154 52.5564 33.0312C52.6185 33.0551 52.6803 33.0796 52.7421 33.1047C52.8274 33.1392 52.9122 33.1752 52.9967 33.2115C53.057 33.2375 53.1172 33.2635 53.1769 33.2905C53.2629 33.3293 53.3483 33.3697 53.4334 33.4104C53.4902 33.4376 53.5471 33.4642 53.6036 33.4923C53.6938 33.5371 53.7828 33.584 53.8719 33.6309C53.9218 33.6573 53.9722 33.6827 54.0219 33.7098C54.1278 33.7675 54.2324 33.8275 54.3368 33.8883C54.3684 33.9068 54.4006 33.9242 54.432 33.9427C54.5674 34.0232 54.7013 34.1061 54.8337 34.1915C54.8647 34.2115 54.8948 34.2328 54.9257 34.2531C55.0263 34.3192 55.1265 34.3861 55.2252 34.4552C55.2717 34.4876 55.3171 34.5215 55.363 34.5547C55.445 34.6137 55.5266 34.6725 55.6071 34.7334C55.6574 34.7714 55.7066 34.8105 55.7563 34.8491C55.8309 34.9073 55.9055 34.9658 55.9789 35.0256C56.0298 35.0671 56.0801 35.1095 56.1305 35.1519C56.2012 35.2114 56.2714 35.2714 56.3405 35.3325C56.3906 35.3764 56.4402 35.421 56.4896 35.4658C56.5576 35.5274 56.6247 35.5901 56.6915 35.6531C56.7399 35.699 56.788 35.7451 56.8357 35.7917C56.902 35.8565 56.9675 35.9229 57.0324 35.9892C57.0779 36.0357 57.1236 36.0821 57.1682 36.1294C57.2345 36.1995 57.2997 36.271 57.3645 36.3426C57.4056 36.3881 57.4474 36.4331 57.4878 36.4792C57.558 36.5591 57.6263 36.6408 57.6946 36.7226C57.7274 36.762 57.7612 36.8007 57.7937 36.8405C57.8933 36.963 57.9907 37.0871 58.0856 37.2134C59.727 39.3983 60.5944 42.0017 60.5944 44.7427V47.0137V51.7711H32.3025V53.9119H60.5931V56.0527H28.0207V58.1936H62.7339V47.0137H68.3917V44.8729H62.7339V44.7427C62.7339 44.5422 62.73 44.3422 62.7221 44.1432C62.6034 41.1552 61.5979 38.3262 59.796 35.9278C59.7931 35.924 59.7899 35.9203 59.7872 35.9167C59.6818 35.7766 59.5736 35.6389 59.463 35.5029C59.4255 35.4566 59.3867 35.4116 59.3486 35.3658C59.2709 35.2725 59.1928 35.1796 59.1128 35.0882C59.0678 35.0367 59.0217 34.9859 58.9758 34.9349C58.9 34.8506 58.8231 34.767 58.7454 34.6845C58.6973 34.6336 58.649 34.5827 58.6001 34.5325C58.52 34.45 58.4387 34.3686 58.3567 34.288C58.3094 34.2415 58.2627 34.1948 58.2147 34.1489C58.1211 34.0592 58.0259 33.9717 57.9299 33.8845C57.8923 33.8505 57.8556 33.8154 57.8176 33.7818C57.6832 33.6621 57.5468 33.5447 57.408 33.4301C57.3838 33.41 57.3586 33.391 57.3342 33.371C57.2191 33.2771 57.1028 33.1845 56.9851 33.094C56.9363 33.0565 56.8867 33.0203 56.8376 32.9835C56.7421 32.912 56.646 32.8411 56.5489 32.7719C56.4933 32.7323 56.4371 32.6935 56.3811 32.6548C56.2873 32.59 56.1929 32.5261 56.0975 32.4636C56.0401 32.4259 55.9827 32.3883 55.9248 32.3513C55.8257 32.2881 55.7258 32.2266 55.6251 32.1656C55.5709 32.1328 55.5172 32.0996 55.4625 32.0673C55.3412 31.996 55.2186 31.927 55.0954 31.8593C55.0612 31.8404 55.0274 31.8206 54.9929 31.8019C54.835 31.7165 54.6754 31.6343 54.5143 31.5548C54.4722 31.534 54.4294 31.5147 54.3871 31.4943C54.2674 31.4366 54.1475 31.38 54.0263 31.3256C53.9669 31.2989 53.9071 31.2737 53.8474 31.2478C53.7799 31.2187 53.7132 31.1881 53.6455 31.16C53.8132 30.8605 53.9703 30.5551 54.1161 30.2441C54.2745 30.3576 54.4365 30.4647 54.6001 30.5694C54.6017 30.5706 54.6034 30.5715 54.6053 30.5727C54.747 30.6632 54.8906 30.75 55.036 30.8338C55.0443 30.8384 55.0526 30.8434 55.0608 30.848C55.5073 31.1036 55.9699 31.3277 56.4464 31.5179C56.4596 31.5233 56.4731 31.5281 56.4864 31.5333C56.6243 31.5877 56.7634 31.6393 56.9035 31.6881C56.9343 31.699 56.9652 31.7094 56.9962 31.7199C57.1238 31.7631 57.2523 31.804 57.3814 31.8425C57.4133 31.8521 57.4451 31.862 57.4771 31.8713C57.6246 31.9138 57.7731 31.9537 57.9225 31.9902C57.9325 31.9926 57.9422 31.9954 57.9522 31.9979C58.1152 32.0372 58.2793 32.0727 58.4443 32.1045C58.4694 32.1093 58.4947 32.1132 58.5198 32.1177C58.6528 32.1424 58.7864 32.165 58.9205 32.1849C58.9708 32.1923 59.0213 32.1987 59.0717 32.2056C59.1832 32.2205 59.2951 32.234 59.4073 32.2456C59.4629 32.2513 59.5187 32.257 59.5745 32.2619C59.6881 32.2719 59.802 32.2798 59.9162 32.2861C59.9666 32.2889 60.0168 32.2927 60.0674 32.295C60.2304 32.3021 60.3938 32.3065 60.5578 32.3065C60.7315 32.3065 60.9047 32.3014 61.0772 32.2934C61.1024 32.2923 61.1279 32.2916 61.1531 32.2902C61.3085 32.2817 61.4631 32.2696 61.6174 32.2548C61.6613 32.2508 61.7052 32.2464 61.749 32.2418C61.8893 32.2267 62.0291 32.2088 62.1683 32.1884C62.226 32.18 62.2833 32.1707 62.3408 32.1614C62.4672 32.1407 62.5933 32.1187 62.7186 32.0937C62.7873 32.0802 62.8553 32.0648 62.9237 32.05C63.0072 32.0317 63.0902 32.0124 63.1731 31.9923C63.2777 31.967 63.3815 31.9401 63.4849 31.9117C63.5595 31.8911 63.6342 31.8701 63.7083 31.848C63.7974 31.8216 63.886 31.7944 63.9741 31.7657C64.0687 31.735 64.163 31.703 64.2569 31.6698C64.3249 31.6457 64.3926 31.6211 64.46 31.5958C64.5752 31.5524 64.6895 31.5074 64.8031 31.4603C64.8569 31.438 64.9102 31.4147 64.9637 31.3915C65.0867 31.3382 65.2091 31.2834 65.3301 31.2257C65.358 31.2125 65.3853 31.1985 65.413 31.185C65.5478 31.1194 65.6809 31.051 65.8128 30.9799C65.8248 30.9734 65.8369 30.9672 65.849 30.9608C67.1179 30.2714 68.2539 29.3345 69.181 28.1885C72.6504 29.5601 74.9329 32.8825 74.9329 36.6727V44.8726H71.2466V47.0134H77.0737V36.6727C77.0735 34.212 76.2942 31.8738 74.8198 29.9111ZM64.7827 29.1033C64.6764 29.1606 64.569 29.2158 64.4603 29.2687C64.4257 29.2856 64.3906 29.3012 64.3559 29.3177C64.2814 29.3528 64.2061 29.3867 64.1305 29.4198C64.0825 29.4407 64.0346 29.462 63.9862 29.4821C63.8949 29.5203 63.8025 29.5563 63.7096 29.5914C63.6491 29.6142 63.5883 29.636 63.5273 29.6575C63.4735 29.6765 63.4192 29.6947 63.365 29.7126C63.2665 29.7451 63.1676 29.7761 63.068 29.8052C63.0158 29.8204 62.9635 29.8356 62.911 29.8498C62.8467 29.8674 62.7822 29.8847 62.7175 29.9009C62.6226 29.9244 62.5272 29.9465 62.4311 29.9671C62.373 29.9795 62.3147 29.9909 62.2562 30.0021C62.1775 30.0172 62.0985 30.0315 62.019 30.0446C61.9584 30.0546 61.8979 30.0642 61.8371 30.0731C61.7401 30.087 61.6426 30.0995 61.5447 30.1104C61.5048 30.1147 61.4648 30.1194 61.4245 30.1232C61.3015 30.135 61.1777 30.1447 61.0532 30.1515C61.024 30.153 60.9949 30.1542 60.9659 30.1554C60.8306 30.1616 60.6949 30.1658 60.5581 30.1658C60.4213 30.1658 60.2849 30.1623 60.149 30.1561C60.1017 30.154 60.0547 30.1498 60.0075 30.147C59.9193 30.1415 59.8313 30.1361 59.7436 30.1281C59.6862 30.123 59.6292 30.116 59.572 30.1097C59.4957 30.1012 59.4193 30.0928 59.3434 30.0825C59.2806 30.0739 59.2182 30.0639 59.1557 30.0541C59.0865 30.0432 59.0174 30.032 58.9484 30.0194C58.882 30.0073 58.8156 29.9942 58.7496 29.9806C58.6864 29.9676 58.6235 29.954 58.5607 29.9396C58.4906 29.9236 58.4207 29.907 58.3511 29.8892C58.2942 29.8749 58.2379 29.8595 58.1813 29.844C58.1072 29.8236 58.0331 29.8029 57.9594 29.7806C57.9108 29.7659 57.8628 29.75 57.8146 29.7345C57.7344 29.7086 57.6542 29.6827 57.5748 29.6546C57.54 29.6423 57.5055 29.6287 57.4709 29.616C56.9063 29.4082 56.3626 29.1443 55.8488 28.8249C55.8464 28.8233 55.844 28.8219 55.8414 28.8205C55.7404 28.7577 55.641 28.6924 55.5424 28.6254C55.5326 28.6188 55.5229 28.6125 55.5134 28.6058C55.4178 28.5402 55.3233 28.4725 55.2299 28.403C55.2187 28.3947 55.2075 28.3864 55.1964 28.3781C55.1033 28.3081 55.0115 28.2363 54.9209 28.1626C54.9164 28.1589 54.9119 28.1551 54.9074 28.1514C54.9099 28.1427 54.912 28.1339 54.9145 28.1251C54.9586 27.9732 55.0004 27.8204 55.0395 27.6665C55.0425 27.6548 55.0453 27.643 55.0481 27.6313C55.0836 27.4904 55.1168 27.3485 55.1481 27.2062C55.1543 27.1779 55.1605 27.1499 55.1665 27.1216C55.2315 26.8167 55.287 26.5083 55.3323 26.1967C55.3373 26.1627 55.342 26.1285 55.3467 26.0943C55.3649 25.9631 55.3813 25.8312 55.396 25.699C55.3988 25.6738 55.402 25.6484 55.4047 25.6231C55.4207 25.4704 55.4342 25.3168 55.4455 25.1626C55.4479 25.1294 55.4496 25.0962 55.4518 25.0628C55.46 24.9401 55.4663 24.8169 55.4714 24.6933C55.4731 24.651 55.4749 24.6087 55.4762 24.5664C55.481 24.4129 55.4844 24.2591 55.4844 24.1045V14.4471C55.4844 14.3124 55.4821 14.1781 55.4785 14.0442C55.4775 14.0108 55.4758 13.9776 55.4747 13.9441C55.4711 13.8406 55.4668 13.7375 55.4611 13.6347C55.4593 13.6022 55.4571 13.5697 55.4548 13.5371C55.448 13.4304 55.4404 13.3237 55.4314 13.2176C55.4293 13.192 55.4269 13.1662 55.4245 13.1406C55.4138 13.0224 55.4019 12.9047 55.3882 12.7873C55.3867 12.7739 55.3853 12.7604 55.3837 12.747C55.3767 12.6873 55.3699 12.6276 55.3622 12.5684C55.8354 12.2569 56.2879 11.9163 56.7136 11.545C58.9946 13.5436 61.8813 14.6327 64.9503 14.6327C66.5343 14.6327 68.0332 14.3356 69.4976 13.7311C69.5 13.8167 69.5042 13.9022 69.5042 13.9883V21.2196C69.5042 24.597 67.6224 27.5425 64.8526 29.0648C64.8296 29.0781 64.8062 29.0908 64.7827 29.1033ZM46.852 34.9479C46.7039 35.0277 46.554 35.1047 46.4024 35.1785C46.3578 35.2001 46.3123 35.2206 46.2673 35.2417C46.1613 35.2916 46.0543 35.3399 45.9467 35.3868C45.883 35.4147 45.8193 35.4431 45.7549 35.4697C45.6278 35.5226 45.4991 35.573 45.3699 35.6219C45.2882 35.6526 45.2062 35.6821 45.1239 35.7113C45.0472 35.7384 44.9697 35.7642 44.892 35.79C44.7598 35.8336 44.6269 35.8751 44.4932 35.9143C44.4195 35.9358 44.3458 35.9571 44.2715 35.9773C44.1838 36.0013 44.0961 36.025 44.0078 36.047C43.8767 36.0795 43.745 36.1101 43.6125 36.1385C43.5331 36.1555 43.4534 36.171 43.3736 36.1865C43.2644 36.2076 43.1549 36.2273 43.0447 36.2455C42.9624 36.259 42.8801 36.2721 42.7975 36.2841C42.6635 36.3033 42.5287 36.3207 42.3935 36.3356C42.3388 36.3418 42.2842 36.3478 42.2295 36.3532C42.06 36.3697 41.8895 36.3829 41.7179 36.3922C41.6779 36.3944 41.638 36.3958 41.598 36.3978C41.4119 36.4062 41.2252 36.412 41.0369 36.412C40.8487 36.412 40.662 36.4061 40.4758 36.3978C40.4358 36.396 40.3957 36.3946 40.3558 36.3922C40.1844 36.3827 40.0139 36.3695 39.8443 36.3532C39.7895 36.3478 39.7349 36.3416 39.6803 36.3356C39.5449 36.3208 39.4103 36.3033 39.2763 36.2841C39.1936 36.2721 39.1113 36.2591 39.0291 36.2455C38.9189 36.2273 38.8094 36.2076 38.7001 36.1865C38.6203 36.1712 38.5405 36.1555 38.4612 36.1385C38.3286 36.1101 38.1967 36.0795 38.066 36.047C37.9777 36.025 37.89 36.0014 37.8023 35.9773C37.7281 35.9571 37.6543 35.9358 37.5806 35.9143C37.4469 35.875 37.314 35.8336 37.1818 35.79C37.1042 35.7643 37.0268 35.7384 36.9498 35.7113C36.8676 35.6823 36.7855 35.6527 36.7039 35.6219C36.5745 35.573 36.446 35.5228 36.3189 35.4697C36.2545 35.443 36.1911 35.4147 36.127 35.3868C36.0195 35.3398 35.9123 35.2916 35.8065 35.2417C35.7616 35.2206 35.7161 35.2001 35.6713 35.1785C35.5196 35.1047 35.37 35.0276 35.2217 34.9479C35.1919 34.9318 35.162 34.9157 35.1323 34.8993C32.5535 33.4831 30.5347 31.1699 29.4979 28.3824C29.4854 28.3485 29.4729 28.3143 29.4604 28.2802C29.4132 28.1499 29.3694 28.018 29.3266 27.886C29.308 27.8282 29.2883 27.7711 29.2707 27.7132C29.2251 27.5647 29.1829 27.4147 29.1429 27.2638C29.1342 27.231 29.1241 27.1986 29.1156 27.1656C29.0692 26.9852 29.0275 26.803 28.9893 26.6196C28.977 26.5601 28.9668 26.4999 28.9553 26.4403C28.9308 26.3133 28.9073 26.1858 28.8866 26.0574C28.8752 25.9863 28.8653 25.9151 28.8552 25.8437C28.838 25.7229 28.8225 25.6017 28.8087 25.4799C28.8007 25.4083 28.793 25.3368 28.7864 25.265C28.7741 25.1351 28.7647 25.0046 28.7565 24.8735C28.7527 24.8111 28.7478 24.7491 28.7448 24.6866C28.7358 24.4937 28.7302 24.3002 28.7302 24.1052V14.5298C31.4035 13.9134 33.8109 12.6317 35.9061 10.7059C38.9221 13.4499 42.7873 14.9489 46.9031 14.9489C49.1502 14.9489 51.2586 14.5018 53.3105 13.5899C53.3141 13.6437 53.3198 13.6969 53.3227 13.751C53.3253 13.7977 53.3274 13.8443 53.3296 13.891C53.3379 14.0757 53.3437 14.261 53.3437 14.4476V24.1051C53.3437 24.3 53.3379 24.4937 53.3291 24.6866C53.3262 24.7489 53.3212 24.8111 53.3174 24.8734C53.3092 25.0046 53.2996 25.1351 53.2875 25.2651C53.2808 25.3368 53.2732 25.4083 53.2651 25.4798C53.2515 25.6018 53.2359 25.7233 53.2187 25.8441C53.2086 25.9152 53.1987 25.9863 53.1874 26.0571C53.1669 26.1859 53.1432 26.3137 53.1186 26.4411C53.1072 26.5005 53.0971 26.5603 53.0848 26.6195C53.0465 26.8032 53.0047 26.9855 52.9584 27.1661C52.9501 27.1982 52.9401 27.23 52.9317 27.2619C52.8914 27.4135 52.849 27.564 52.8031 27.7134C52.7854 27.7711 52.7658 27.8282 52.7474 27.8857C52.7046 28.018 52.6608 28.15 52.6135 28.2804C52.6013 28.3145 52.5888 28.3487 52.5759 28.3826C51.5392 31.1701 49.5204 33.4832 46.9415 34.8995C46.9116 34.9156 46.8819 34.9317 46.852 34.9479ZM27.1526 28.1633C27.0619 28.237 26.9702 28.3088 26.8771 28.3788C26.866 28.3872 26.8547 28.3955 26.8436 28.4037C26.7503 28.4732 26.6558 28.541 26.5601 28.6066C26.5505 28.6132 26.5407 28.6195 26.5311 28.6261C26.4324 28.6933 26.3329 28.7584 26.232 28.8214C26.2297 28.8228 26.2275 28.824 26.2251 28.8254C25.7108 29.145 25.1669 29.4092 24.6017 29.6171C24.5675 29.6297 24.5333 29.6432 24.499 29.6553C24.4192 29.6836 24.3386 29.7095 24.2583 29.7355C24.2103 29.7509 24.1625 29.7666 24.1144 29.7813C24.0406 29.8036 23.9663 29.8243 23.8918 29.8449C23.8357 29.8602 23.7792 29.8756 23.7228 29.8899C23.653 29.9077 23.5828 29.9243 23.5127 29.9405C23.4501 29.9547 23.3873 29.9683 23.3243 29.9813C23.2581 29.9948 23.1917 30.0082 23.1251 30.0203C23.0562 30.0328 22.9873 30.0439 22.9181 30.0549C22.8556 30.0648 22.7931 30.0748 22.7302 30.0834C22.6545 30.0936 22.578 30.1021 22.5019 30.1105C22.4446 30.1169 22.3874 30.1238 22.33 30.1291C22.2423 30.137 22.1543 30.1425 22.0662 30.1478C22.0189 30.1506 21.972 30.1549 21.9246 30.157C21.7888 30.1632 21.6525 30.1667 21.5155 30.1667C21.3788 30.1667 21.243 30.1625 21.1077 30.1563C21.0786 30.155 21.0494 30.1539 21.0204 30.1523C20.896 30.1454 20.7723 30.1359 20.6491 30.124C20.609 30.1202 20.569 30.1156 20.529 30.1112C20.431 30.1004 20.3336 30.088 20.2366 30.0739C20.1758 30.0651 20.1152 30.0555 20.0546 30.0455C19.9752 30.0324 19.8963 30.0182 19.8176 30.0031C19.7592 29.9919 19.7007 29.9804 19.6426 29.9681C19.5467 29.9475 19.4512 29.9254 19.3564 29.9019C19.2915 29.8857 19.2269 29.8683 19.1626 29.8507C19.1102 29.8364 19.0581 29.8214 19.006 29.8062C18.9061 29.7769 18.807 29.7459 18.7082 29.7133C18.6541 29.6954 18.6001 29.6775 18.5466 29.6585C18.4855 29.637 18.4244 29.615 18.3639 29.5922C18.2711 29.5573 18.1789 29.5211 18.0875 29.483C18.039 29.4628 17.9911 29.4414 17.943 29.4205C17.8676 29.3875 17.7926 29.3536 17.7184 29.3188C17.6834 29.3024 17.6479 29.2865 17.613 29.2694C17.5045 29.2166 17.3973 29.1615 17.2913 29.1044C17.2677 29.0918 17.2439 29.0788 17.2203 29.0659C14.4509 27.5433 12.5691 24.598 12.5691 21.2207V14.272C14.4496 13.8066 16.1611 12.8947 17.6749 11.5496C19.9554 13.546 22.8406 14.6339 25.9078 14.6339C26.1347 14.6339 26.3619 14.6254 26.589 14.6132V24.1056C26.589 24.2602 26.5922 24.414 26.5971 24.5675C26.5984 24.6098 26.6002 24.6521 26.6019 24.6943C26.6068 24.8179 26.6135 24.9412 26.6215 25.0641C26.6236 25.0973 26.6253 25.1304 26.6278 25.1638C26.6391 25.3181 26.6526 25.4715 26.6686 25.6244C26.6713 25.6494 26.6745 25.6746 26.6774 25.6997C26.6919 25.8323 26.7085 25.9642 26.7268 26.0957C26.7314 26.1296 26.7362 26.1638 26.741 26.1977C26.7863 26.5094 26.8418 26.8178 26.9068 27.1228C26.9129 27.151 26.9191 27.179 26.9253 27.2072C26.9565 27.3498 26.9896 27.4917 27.0252 27.6324C27.0282 27.6441 27.031 27.6559 27.0338 27.6676C27.0729 27.8215 27.1149 27.9744 27.1588 28.1262C27.1613 28.135 27.1633 28.1438 27.166 28.1526C27.1617 28.1558 27.1572 28.1595 27.1526 28.1633ZM19.7066 5.22673C19.7109 5.22589 19.7152 5.2249 19.7195 5.22406C19.9963 5.16733 20.2779 5.12425 20.5634 5.09399C20.5969 5.09047 20.6305 5.08737 20.6642 5.08428C20.7686 5.07442 20.8738 5.06654 20.9793 5.06035C21.0199 5.05795 21.0603 5.05528 21.101 5.05331C21.2385 5.04697 21.3766 5.04275 21.5157 5.04275C24.0563 5.04275 26.4285 6.09851 28.1239 7.96172C28.1025 8.00424 28.0834 8.04745 28.0624 8.09011C28.0148 8.18695 27.9678 8.28409 27.9225 8.38192C27.877 8.48003 27.8331 8.57871 27.7899 8.67767C27.7751 8.7116 27.7604 8.7458 27.7461 8.77987C27.3702 9.65742 27.0849 10.5659 26.892 11.5006C26.8834 11.5417 26.8754 11.5831 26.8673 11.6244C26.8391 11.7671 26.8128 11.9104 26.7889 12.0543C26.7727 12.1507 26.7573 12.2476 26.7431 12.3447C26.7375 12.3834 26.7302 12.4216 26.7248 12.4603C26.4531 12.4814 26.1803 12.4921 25.9083 12.4921C23.0689 12.4921 20.4172 11.3675 18.442 9.32507L17.6725 8.52958L16.9031 9.32507C15.7271 10.541 14.3974 11.4132 12.9361 11.9297C13.3004 10.2463 14.0987 8.75904 15.2619 7.60009C16.4643 6.42242 17.9965 5.57936 19.7066 5.22673ZM32.2394 5.85344C32.2837 5.80755 32.3284 5.76151 32.3734 5.71619C34.0353 4.06722 36.1632 2.88744 38.5402 2.39574C38.5505 2.39363 38.5608 2.39138 38.571 2.38912C38.949 2.31184 39.3336 2.25314 39.7232 2.21161C39.7728 2.20626 39.8225 2.20204 39.872 2.1974C40.0125 2.18416 40.1535 2.17361 40.2953 2.16516C40.3527 2.16178 40.41 2.15784 40.4676 2.15517C40.6564 2.14644 40.846 2.14081 41.0367 2.14081C41.232 2.14081 41.4258 2.14658 41.6188 2.15545C41.7066 2.15953 41.7938 2.16685 41.8813 2.1729C41.9807 2.17966 42.0798 2.18642 42.1785 2.19557C42.2983 2.20683 42.4174 2.22048 42.5366 2.2354C42.5945 2.24244 42.6521 2.24948 42.7096 2.25736C42.8577 2.27792 43.0055 2.30044 43.1525 2.32648C43.1675 2.32902 43.1827 2.33197 43.1978 2.33465C45.2923 2.71275 47.2591 3.63591 48.8839 5.02642C50.8284 6.69059 52.2125 8.9502 52.8344 11.4532C50.9329 12.364 48.9847 12.8081 46.903 12.8081C43.0126 12.8081 39.3797 11.2671 36.6735 8.46905L35.904 7.67357L35.1346 8.46905C33.3698 10.2938 31.333 11.5548 29.0644 12.2304C29.4692 9.85999 30.5005 7.73382 32.0603 6.04122C32.1195 5.97802 32.1789 5.91523 32.2394 5.85344ZM54.226 7.67357C54.2649 7.63444 54.3043 7.59601 54.3436 7.55786C54.4083 7.49508 54.4741 7.43328 54.5405 7.37261C54.5768 7.33953 54.6126 7.30574 54.6493 7.27337C54.7425 7.19088 54.8374 7.11064 54.9337 7.03251C54.9883 6.98831 55.0442 6.9458 55.0996 6.90286C55.1464 6.86669 55.193 6.83093 55.2403 6.79588C55.306 6.74703 55.3723 6.69917 55.439 6.6523C55.4735 6.62808 55.5086 6.60472 55.5435 6.58107C55.7006 6.47437 55.8602 6.37217 56.0229 6.27602C56.0289 6.27264 56.0343 6.26884 56.0403 6.26546C56.1159 6.22098 56.1927 6.17875 56.2696 6.13638C56.3086 6.11498 56.3477 6.09387 56.3868 6.07317C56.4606 6.03418 56.5346 5.99561 56.6095 5.95887C56.6536 5.93719 56.6985 5.91664 56.743 5.89567C56.8614 5.83978 56.9807 5.78657 57.1014 5.73589C57.1618 5.7107 57.222 5.68508 57.2828 5.66115C57.3457 5.63637 57.4091 5.61286 57.4726 5.58949C57.5411 5.56444 57.61 5.54023 57.6791 5.51672C57.736 5.49743 57.7925 5.47772 57.8498 5.45956C57.9689 5.42184 58.0887 5.38637 58.2095 5.35371C58.253 5.34188 58.2972 5.33175 58.341 5.32063C58.4323 5.2974 58.5241 5.2753 58.6163 5.25489C58.6655 5.24405 58.7147 5.23363 58.764 5.2235C58.8669 5.20266 58.9702 5.18366 59.074 5.16634C59.1062 5.16085 59.138 5.15466 59.1704 5.14959C59.304 5.1289 59.4384 5.11159 59.5736 5.09681C59.6135 5.09244 59.6536 5.08906 59.6936 5.08526C59.7969 5.07541 59.9007 5.06724 60.0049 5.06105C60.0484 5.05837 60.0919 5.05556 60.1355 5.05345C60.2758 5.04683 60.4165 5.04247 60.5581 5.04247C60.7045 5.04247 60.85 5.04655 60.9949 5.05359C61.0281 5.05514 61.0609 5.05795 61.0941 5.06006C61.2094 5.06696 61.3243 5.07513 61.4386 5.08639C61.4683 5.0892 61.4979 5.09286 61.5274 5.0961C61.6482 5.10919 61.7681 5.12425 61.8875 5.14185C61.9083 5.14495 61.929 5.14819 61.9499 5.15142C62.0801 5.17183 62.2093 5.19478 62.3377 5.22096C62.3491 5.22321 62.3606 5.22533 62.372 5.22786C62.5089 5.25616 62.6447 5.28755 62.7791 5.32203C62.7848 5.32344 62.7904 5.32471 62.796 5.32612C62.9255 5.35948 63.0536 5.39664 63.1807 5.43563C63.1947 5.43986 63.2089 5.44366 63.2227 5.44788C63.277 5.46491 63.3301 5.48462 63.3841 5.5025C64.4208 5.85358 65.3839 6.40102 66.2391 7.13668C67.5882 8.29732 68.565 9.86041 69.0401 11.5988C67.7141 12.2062 66.3966 12.4921 64.9508 12.4921C62.1113 12.4921 59.4597 11.3675 57.4845 9.32507L56.7151 8.52958L55.9457 9.32507C55.612 9.67009 55.2546 9.99146 54.8762 10.2872C54.8646 10.2482 54.8508 10.2102 54.8387 10.1714C54.8209 10.1144 54.8021 10.0579 54.7838 10.0012C54.7674 9.95092 54.7515 9.90053 54.7346 9.85042C54.701 9.75005 54.6664 9.6501 54.6306 9.55058C54.6034 9.47527 54.575 9.40024 54.5466 9.32535C54.4967 9.19401 54.4454 9.06352 54.3917 8.93359C54.351 8.83477 54.3097 8.73651 54.2667 8.63854C54.2362 8.56914 54.2053 8.50016 54.1737 8.43119C54.1106 8.29338 54.0457 8.15641 53.9781 8.02057C53.9686 8.00128 53.9601 7.98157 53.9504 7.96243C53.9745 7.93582 53.9997 7.91063 54.024 7.8843C54.0903 7.81335 54.1576 7.74269 54.226 7.67357Z" fill="#002770"/>
</g>
<defs>
<filter id="filter0_d_7_4913" x="0.299548" y="0" width="81.4746" height="69.1613" filterUnits="userSpaceOnUse" color-interpolation-filters="sRGB">
<feFlood flood-opacity="0" result="BackgroundImageFix"/>
<feColorMatrix in="SourceAlpha" type="matrix" values="0 0 0 0 0 0 0 0 0 0 0 0 0 0 0 0 0 0 127 0" result="hardAlpha"/>
<feOffset dy="6.26727"/>
<feGaussianBlur stdDeviation="2.35023"/>
<feComposite in2="hardAlpha" operator="out"/>
<feColorMatrix type="matrix" values="0 0 0 0 0 0 0 0 0 0 0 0 0 0 0 0 0 0 0.25 0"/>
<feBlend mode="normal" in2="BackgroundImageFix" result="effect1_dropShadow_7_4913"/>
<feBlend mode="normal" in="SourceGraphic" in2="effect1_dropShadow_7_4913" result="shape"/>
</filter>
</defs>
</svg>
