<svg width="71" height="64" viewBox="0 0 71 64" fill="none" xmlns="http://www.w3.org/2000/svg">
<g filter="url(#filter0_d_7_4878)">
<path d="M51.4537 0.00132751C60.2004 0.00132751 67.289 7.08976 67.289 15.8103C67.289 31.6456 51.4537 39.3228 35.6446 55.1319C31.6506 51.1445 27.6582 47.6755 23.9227 44.4618H31.7911V37.051H22.8987V28.1586H15.4897V37.0281C8.67601 30.6217 4 24.4214 4 15.8103C4 7.08976 11.0884 0.00132751 19.8091 0.00132751C27.7268 0.00132751 31.6848 3.93316 35.6444 11.8506C39.6042 3.93316 43.5622 0.00132751 51.4537 0.00132751Z" fill="#EF3E5C"/>
</g>
<path d="M7.05453 17.5868C7.05453 8.86609 14.143 1.77767 22.8637 1.77767C25.2762 1.77767 27.3195 2.14485 29.109 2.87659C26.6553 0.958099 23.7151 0 19.8106 0C11.0899 0 4.00146 7.08843 4.00146 15.809C4.00146 24.4201 8.67747 30.6206 15.4911 37.0268V35.7797C10.3725 30.3833 7.05453 24.8402 7.05453 17.5868Z" fill="#E42A53"/>
<path d="M31.7915 37.0508V44.4614H23.9231H22.8991V53.3522H15.4902V44.4614H6.59766V37.0508H15.4902V37.0279V28.1583H22.8991V37.0508H31.7915Z" fill="#4DD0E2"/>
<path d="M8.01518 38.4686H16.9078V38.4457V29.5762H22.8991V28.1586H15.4902V37.0282V37.0511H6.59766V44.4617H8.01518V38.4686Z" fill="#3BB3BC"/>
<path d="M37.7198 26.3814H34.7544V29.3448H37.7198V26.3814Z" fill="#4DD0E2"/>
<path d="M37.7198 21.9348H34.7544V24.8984H37.7198V21.9348Z" fill="#4DD0E2"/>
<path d="M37.7198 17.4882H34.7544V20.4535H37.7198V17.4882Z" fill="#4DD0E2"/>
<path d="M49.577 31.9411C49.3127 31.9411 49.0534 31.8132 48.8958 31.5767C48.6452 31.2009 48.7468 30.6934 49.1226 30.4427C54.3843 26.9347 56.9426 22.0819 56.7264 16.0193C56.5625 11.4241 54.7894 7.81202 54.7716 7.7762C54.5706 7.37206 54.7346 6.88107 55.1386 6.67973C55.5421 6.47856 56.0331 6.64146 56.2347 7.04528C56.3136 7.20311 58.1686 10.9648 58.3587 15.9011C58.5358 20.5045 57.2347 27 50.0297 31.8034C49.8903 31.8966 49.7328 31.9411 49.577 31.9411Z" fill="#E42A53"/>
<path d="M65.8775 55.3561H49.5761C49.1243 55.3561 48.7583 54.9901 48.7583 54.5384C48.7583 54.0866 49.1243 53.7206 49.5761 53.7206H65.8775C66.3292 53.7206 66.6953 54.0866 66.6953 54.5384C66.6953 54.9901 66.3291 55.3561 65.8775 55.3561Z" fill="#EF3E5C"/>
<defs>
<filter id="filter0_d_7_4878" x="0.540323" y="0.00132751" width="70.2084" height="63.2032" filterUnits="userSpaceOnUse" color-interpolation-filters="sRGB">
<feFlood flood-opacity="0" result="BackgroundImageFix"/>
<feColorMatrix in="SourceAlpha" type="matrix" values="0 0 0 0 0 0 0 0 0 0 0 0 0 0 0 0 0 0 127 0" result="hardAlpha"/>
<feOffset dy="4.6129"/>
<feGaussianBlur stdDeviation="1.72984"/>
<feComposite in2="hardAlpha" operator="out"/>
<feColorMatrix type="matrix" values="0 0 0 0 0 0 0 0 0 0 0 0 0 0 0 0 0 0 0.25 0"/>
<feBlend mode="normal" in2="BackgroundImageFix" result="effect1_dropShadow_7_4878"/>
<feBlend mode="normal" in="SourceGraphic" in2="effect1_dropShadow_7_4878" result="shape"/>
</filter>
</defs>
</svg>
