<svg width="76" height="76" viewBox="0 0 76 76" fill="none" xmlns="http://www.w3.org/2000/svg">
<g clip-path="url(#clip0_7_5075)">
<g filter="url(#filter0_d_7_5075)">
<path d="M70.6502 60.1141H5.80024C2.93505 60.1141 0.612305 57.7914 0.612305 54.9262V16.0162C0.612305 13.1511 2.93505 10.8283 5.80024 10.8283H70.6502C73.5154 10.8283 75.8381 13.1511 75.8381 16.0162V54.9262C75.8381 57.7914 73.5154 60.1141 70.6502 60.1141Z" fill="#E4EAF8"/>
</g>
<path d="M22.6617 44.5491C16.2148 44.5491 10.9888 49.7752 10.9888 56.222C10.9888 57.5886 11.2358 58.8943 11.6673 60.113H33.6563C34.0876 58.8943 34.3348 57.5886 34.3348 56.222C34.3346 49.7752 29.1086 44.5491 22.6617 44.5491Z" fill="#D5DCED"/>
<path d="M38.2257 54.925H7.09784C6.38158 54.925 5.80078 54.3442 5.80078 53.6279V17.3121C5.80078 16.5958 6.38158 16.015 7.09784 16.015H38.2257C38.942 16.015 39.5228 16.5958 39.5228 17.3121V53.6279C39.5228 54.3442 38.942 54.925 38.2257 54.925Z" fill="#AFB9D2"/>
<path d="M11.0649 54.9251H34.2589C33.6131 49.0892 28.67 44.5491 22.6619 44.5491C16.6538 44.5491 11.7108 49.0892 11.0649 54.9251Z" fill="#959CB5"/>
<path d="M33.038 49.739C33.7543 49.739 34.3351 49.1582 34.3351 48.4419V45.1236C34.3351 44.0071 33.6206 43.0158 32.5614 42.6628L27.4379 40.9549C26.9093 40.7787 26.5523 40.2845 26.5511 39.7273L26.5463 37.4209C27.356 37.0161 27.8961 36.2185 27.9711 35.3162L28.2546 32.2277C28.7972 31.7524 29.147 31.0621 29.147 30.284V23.799C29.147 23.0827 28.5662 22.502 27.8499 22.502H20.0679C17.9189 22.502 16.1769 24.244 16.1769 26.393V30.284C16.1769 31.0623 16.5267 31.7524 17.0693 32.2277L17.3527 35.3162C17.4278 36.2183 17.968 37.0161 18.7776 37.4209L18.7727 39.7273C18.7716 40.2846 18.4145 40.7789 17.8859 40.9549L12.7625 42.6628C11.7033 43.0158 10.9888 44.0071 10.9888 45.1236V48.4419C10.9888 49.1582 11.5696 49.739 12.2858 49.739H33.038Z" fill="#E4EAF8"/>
<path d="M62.8686 19.9066H44.7106C43.9938 19.9066 43.4136 19.3258 43.4136 18.6095C43.4136 17.8932 43.9936 17.3124 44.7106 17.3124H62.8686C63.5854 17.3124 64.1656 17.8932 64.1656 18.6095C64.1656 19.3258 63.5855 19.9066 62.8686 19.9066Z" fill="#7F8499"/>
<path d="M69.3535 25.0961H44.7106C43.9938 25.0961 43.4136 24.5153 43.4136 23.799C43.4136 23.0827 43.9936 22.502 44.7106 22.502H69.3535C70.0704 22.502 70.6506 23.0827 70.6506 23.799C70.6506 24.5154 70.0705 25.0961 69.3535 25.0961Z" fill="#707487"/>
<path d="M69.3529 43.2538H52.4919C51.775 43.2538 51.1948 42.673 51.1948 41.9568C51.1948 41.2405 51.7749 40.6597 52.4919 40.6597H69.3529C70.0697 40.6597 70.65 41.2405 70.65 41.9568C70.65 42.673 70.0699 43.2538 69.3529 43.2538Z" fill="#959CB5"/>
<path d="M47.3046 43.2538H44.7106C43.9938 43.2538 43.4136 42.673 43.4136 41.9568C43.4136 41.2405 43.9936 40.6597 44.7106 40.6597H47.3046C48.0214 40.6597 48.6017 41.2405 48.6017 41.9568C48.6017 42.673 48.0216 43.2538 47.3046 43.2538Z" fill="#7F8499"/>
<path d="M65.4619 48.4406H52.4919C51.775 48.4406 51.1948 47.8598 51.1948 47.1435C51.1948 46.4272 51.7749 45.8464 52.4919 45.8464H65.4619C66.1787 45.8464 66.7589 46.4272 66.7589 47.1435C66.7589 47.8598 66.1789 48.4406 65.4619 48.4406Z" fill="#959CB5"/>
<path d="M47.3046 48.4406H44.7106C43.9938 48.4406 43.4136 47.8598 43.4136 47.1435C43.4136 46.4272 43.9936 45.8464 44.7106 45.8464H47.3046C48.0214 45.8464 48.6017 46.4272 48.6017 47.1435C48.6017 47.8598 48.0216 48.4406 47.3046 48.4406Z" fill="#7F8499"/>
<path d="M65.4619 53.6273H52.4919C51.775 53.6273 51.1948 53.0465 51.1948 52.3303C51.1948 51.614 51.7749 51.0332 52.4919 51.0332H65.4619C66.1787 51.0332 66.7589 51.614 66.7589 52.3303C66.7589 53.0465 66.1789 53.6273 65.4619 53.6273Z" fill="#959CB5"/>
<path d="M47.3046 53.6273H44.7106C43.9938 53.6273 43.4136 53.0465 43.4136 52.3303C43.4136 51.614 43.9936 51.0332 44.7106 51.0332H47.3046C48.0214 51.0332 48.6017 51.614 48.6017 52.3303C48.6017 53.0465 48.0216 53.6273 47.3046 53.6273Z" fill="#7F8499"/>
<path d="M47.3045 36.1198C49.0953 36.1198 50.547 34.668 50.547 32.8773C50.547 31.0865 49.0953 29.6348 47.3045 29.6348C45.5137 29.6348 44.062 31.0865 44.062 32.8773C44.062 34.668 45.5137 36.1198 47.3045 36.1198Z" fill="#9BF57D"/>
<path d="M57.6815 36.1177C59.4722 36.1177 60.924 34.6659 60.924 32.8752C60.924 31.0844 59.4722 29.6327 57.6815 29.6327C55.8907 29.6327 54.439 31.0844 54.439 32.8752C54.439 34.6659 55.8907 36.1177 57.6815 36.1177Z" fill="#FFDC64"/>
<path d="M68.0579 36.1177C69.8487 36.1177 71.3004 34.6659 71.3004 32.8752C71.3004 31.0844 69.8487 29.6327 68.0579 29.6327C66.2671 29.6327 64.8154 31.0844 64.8154 32.8752C64.8154 34.6659 66.2671 36.1177 68.0579 36.1177Z" fill="#FFDC64"/>
<path d="M32.3662 49.737C30.272 46.6093 26.7082 44.5491 22.6616 44.5491C18.615 44.5491 15.0512 46.6094 12.957 49.737H32.3662Z" fill="#D5DCED"/>
<path d="M22.661 65.3018C27.6752 65.3018 31.74 61.237 31.74 56.2228C31.74 51.2086 27.6752 47.1438 22.661 47.1438C17.6468 47.1438 13.582 51.2086 13.582 56.2228C13.582 61.237 17.6468 65.3018 22.661 65.3018Z" fill="#9BF57D"/>
<path d="M21.7957 60.1153C21.4954 60.1153 21.1954 60.0121 20.9522 59.8031L17.9263 57.2092C17.3818 56.7431 17.3183 55.9242 17.7857 55.3802C18.2517 54.8368 19.0713 54.7742 19.6133 55.2396L21.6867 57.0173L25.5953 52.7539C26.0792 52.2252 26.8987 52.1909 27.4281 52.6742C27.9563 53.1586 27.9918 53.9787 27.5079 54.5069L22.7517 59.6948C22.4961 59.9734 22.1466 60.1153 21.7957 60.1153Z" fill="white"/>
</g>
<defs>
<filter id="filter0_d_7_5075" x="-4.32053" y="10.8283" width="85.0913" height="59.1515" filterUnits="userSpaceOnUse" color-interpolation-filters="sRGB">
<feFlood flood-opacity="0" result="BackgroundImageFix"/>
<feColorMatrix in="SourceAlpha" type="matrix" values="0 0 0 0 0 0 0 0 0 0 0 0 0 0 0 0 0 0 127 0" result="hardAlpha"/>
<feOffset dy="4.93284"/>
<feGaussianBlur stdDeviation="2.46642"/>
<feComposite in2="hardAlpha" operator="out"/>
<feColorMatrix type="matrix" values="0 0 0 0 0 0 0 0 0 0 0 0 0 0 0 0 0 0 0.25 0"/>
<feBlend mode="normal" in2="BackgroundImageFix" result="effect1_dropShadow_7_5075"/>
<feBlend mode="normal" in="SourceGraphic" in2="effect1_dropShadow_7_5075" result="shape"/>
</filter>
<clipPath id="clip0_7_5075">
<rect width="75.2258" height="75.2258" fill="white" transform="translate(0.612793 0.451599)"/>
</clipPath>
</defs>
</svg>
