<svg width="61" height="71" viewBox="0 0 61 71" fill="none" xmlns="http://www.w3.org/2000/svg">
<g clip-path="url(#clip0_7_5042)" filter="url(#filter0_d_7_5042)">
<path d="M47.4842 49.2018H34.7476V54.6271C34.7476 54.6271 35.5906 58.2244 39.2969 58.265C43.0032 58.3056 43.8452 54.6428 43.8452 54.6428C43.8452 54.6428 43.7008 49.2018 47.4842 49.2018Z" fill="#F2BF7E"/>
<path d="M52.9405 56.4471H43.8457V52.9845C43.8457 50.8786 45.5529 49.1713 47.6588 49.1713H47.8711C50.6708 49.1713 52.9405 51.441 52.9405 54.2407V56.4471Z" fill="#D4E4AC"/>
<path d="M41.7338 44.6224H34.7515V33.7088C34.7515 32.2019 35.9731 30.9803 37.48 30.9803C38.9869 30.9803 40.2085 32.2019 40.2085 33.7088V35.4708C40.2085 38.5125 40.7888 41.526 41.9185 44.35C41.9704 44.4805 41.8742 44.6224 41.7338 44.6224Z" fill="#F2BF7E"/>
<path d="M39.2977 58.2889C36.7863 58.2889 34.7503 56.2411 34.7503 53.7297C34.7503 53.7297 34.7243 41.0676 34.7503 35.558C34.7763 30.0484 37.4788 31.0283 37.4788 31.0283H9.28508C7.77818 31.0283 6.5293 32.2027 6.5293 33.7096V53.718C6.5293 56.2294 8.59266 58.289 11.1041 58.289H39.2977V58.2889Z" fill="#D4E4AC"/>
<path d="M53.8496 2.78723H12.0142V9.15396H53.8496V2.78723Z" fill="#E2804F"/>
<path d="M44.2521 44.6251C42.0179 44.6251 40.2066 42.8139 40.2066 40.5796C40.2066 40.5796 40.1463 36.7912 40.2066 35.5303C40.4232 31.0055 37.4781 30.9829 37.4781 30.9829H16.5605V5.51782H49.3014V39.5758C49.3014 42.3644 47.0408 44.6251 44.2521 44.6251Z" fill="#D4E4AC"/>
<path d="M54.7595 10.0633H51.1217V8.24435H52.9406V2.78758H12.9239V8.24435H14.7429V10.0633H11.105V0.968689H54.7595V10.0633Z" fill="black"/>
<path d="M32.9535 10.943H21.1167V12.7364H32.9535V10.943Z" fill="black"/>
<path d="M23.8667 14.6494H21.1167V16.4428H23.8667V14.6494Z" fill="white"/>
<path d="M27.4536 14.6494H25.6602V16.4428H27.4536V14.6494Z" fill="black"/>
<path d="M30.2036 14.6494H28.4102V16.4428H30.2036V14.6494Z" fill="black"/>
<path d="M32.9536 14.6494H31.1602V16.4428H32.9536V14.6494Z" fill="black"/>
<path d="M44.7904 19.193H21.1167V20.9864H44.7904V19.193Z" fill="black"/>
<path d="M44.7904 22.7774H21.1167V24.5708H44.7904V22.7774Z" fill="white"/>
<path d="M44.7904 26.4838H21.1167V28.2772H44.7904V26.4838Z" fill="black"/>
<path d="M44.791 30.071H42.041V31.8644H44.791V30.071Z" fill="black"/>
<path d="M44.791 33.7802H42.041V35.5736H44.791V33.7802Z" fill="black"/>
<path d="M44.791 37.3646H42.041V39.158H44.791V37.3646Z" fill="black"/>
<path d="M30.2049 34.6146H11.0747V36.408H30.2049V34.6146Z" fill="black"/>
<path d="M22.9101 38.321H20.1602V40.1144H22.9101V38.321Z" fill="white"/>
<path d="M30.2041 38.321H24.7041V40.1144H30.2041V38.321Z" fill="black"/>
<path d="M30.2041 41.9082H24.7041V43.7016H30.2041V41.9082Z" fill="black"/>
<path d="M22.9101 41.9082H20.1602V43.7016H22.9101V41.9082Z" fill="white"/>
<path d="M20.1615 48.2454H11.0747V50.0388H20.1615V48.2454Z" fill="black"/>
<path d="M30.2046 48.2457H28.4111V50.0392H30.2046V48.2457Z" fill="white"/>
<path d="M27.4546 48.2457H25.6611V50.0392H27.4546V48.2457Z" fill="white"/>
<path d="M24.7046 48.2457H22.9111V50.0392H24.7046V48.2457Z" fill="white"/>
<path d="M30.2049 52.789H11.0747V54.5824H30.2049V52.789Z" fill="black"/>
<path d="M48.4195 48.275C48.4002 48.275 48.381 48.2763 48.3617 48.2764L36.5422 48.2467L36.5377 50.0401L44.3824 50.0599C43.5006 51.0272 42.9624 52.3116 42.9624 53.719C42.9624 55.732 41.331 57.3696 39.3258 57.3696C39.3176 57.3696 39.3097 57.369 39.3015 57.369V57.3685H39.2755C37.3011 57.3411 35.7031 55.7151 35.7031 53.7191V33.7106C35.7031 32.6835 36.4909 31.8788 37.4966 31.8788C38.5022 31.8788 39.29 32.6834 39.29 33.7106V40.0768C39.29 41.4722 39.8178 42.7462 40.6835 43.7107L36.5415 43.7031L36.5383 45.4966C36.5383 45.4966 44.624 45.521 44.7301 45.521C47.7298 45.521 50.1702 43.0788 50.1702 40.0768V6.3992H51.1268V4.60577H14.7793V6.3992H15.6515V29.1632H17.4704V6.3992H48.3768V40.077C48.3768 42.09 46.7408 43.7276 44.7301 43.7276C44.6624 43.7276 44.5951 43.7254 44.5283 43.7217V43.7178L44.4772 43.7177C42.584 43.5871 41.0832 42.0046 41.0832 40.0768V33.7106C41.0832 31.7116 39.4741 30.0854 37.4962 30.0854V30.0729H9.28515C7.30407 30.0729 5.69238 31.7047 5.69238 33.7107V53.7191C5.69238 55.1733 6.25306 56.5341 7.27111 57.551C8.28858 58.5674 9.64999 59.1271 11.103 59.1271L39.2752 59.162C39.292 59.1621 39.3088 59.1634 39.3256 59.1634C42.3197 59.1634 44.7556 56.7212 44.7556 53.7192C44.7556 51.7258 46.3677 50.1013 48.361 50.07L48.4011 50.0701V50.0691C48.4073 50.0691 48.4132 50.0686 48.4193 50.0686C50.4395 50.0686 52.0831 51.7063 52.0831 53.7192V55.5402H44.7897V57.3336H53.8766V53.7191C53.8767 50.7171 51.4286 48.275 48.4195 48.275ZM11.1041 57.3335C9.07522 57.3335 7.48592 55.7458 7.48592 53.719V33.7106C7.48592 32.6937 8.29313 31.8663 9.28526 31.8663H34.4102C34.0926 32.407 33.9095 33.0375 33.9095 33.7106V53.719C33.9095 55.1195 34.4386 56.3977 35.306 57.3635L11.1041 57.3335Z" fill="black"/>
</g>
<defs>
<filter id="filter0_d_7_5042" x="-4.32925" y="0.967743" width="69.1097" height="69.1098" filterUnits="userSpaceOnUse" color-interpolation-filters="sRGB">
<feFlood flood-opacity="0" result="BackgroundImageFix"/>
<feColorMatrix in="SourceAlpha" type="matrix" values="0 0 0 0 0 0 0 0 0 0 0 0 0 0 0 0 0 0 127 0" result="hardAlpha"/>
<feOffset dy="5.45815"/>
<feGaussianBlur stdDeviation="2.72908"/>
<feComposite in2="hardAlpha" operator="out"/>
<feColorMatrix type="matrix" values="0 0 0 0 0 0 0 0 0 0 0 0 0 0 0 0 0 0 0.25 0"/>
<feBlend mode="normal" in2="BackgroundImageFix" result="effect1_dropShadow_7_5042"/>
<feBlend mode="normal" in="SourceGraphic" in2="effect1_dropShadow_7_5042" result="shape"/>
</filter>
<clipPath id="clip0_7_5042">
<rect width="58.1936" height="58.1936" fill="white" transform="translate(1.12891 0.967743)"/>
</clipPath>
</defs>
</svg>
