<svg width="170" height="36" viewBox="0 0 170 36" fill="none" xmlns="http://www.w3.org/2000/svg">
<g clip-path="url(#clip0_59_5806)">
<path d="M16.3593 9.3505C16.3593 8.21724 15.4374 7.29529 14.3041 7.29529C13.3476 7.29529 12.5216 7.94449 12.3027 8.8703C12.1605 9.45039 11.2847 9.62706 11.0388 8.8703C10.8198 7.94449 9.99775 7.29529 9.03735 7.29529C7.90409 7.29529 6.97827 8.21724 6.97827 9.3505C6.97827 11.6861 10.0861 14.3752 11.6649 15.4931C13.2515 14.3752 16.3593 11.6938 16.3593 9.3505Z" fill="#FFC10D"/>
<path d="M14.3035 6.00024C13.2471 6.00024 12.2905 6.48811 11.6721 7.26792C11.0536 6.48811 10.0971 6.00024 9.04063 6.00024C7.189 6.00024 5.68701 7.50609 5.68701 9.35386C5.68701 13.107 11.0882 16.672 11.3148 16.8256C11.5299 16.96 11.8257 16.9523 12.0217 16.8256C12.2522 16.6758 17.6495 13.107 17.6495 9.35386C17.6533 7.50609 16.1551 6.00024 14.3035 6.00024ZM6.98541 9.35005C6.98541 8.21679 7.90736 7.29484 9.04449 7.29484C10.001 7.29484 10.8269 7.94404 11.0459 8.86985C11.288 9.62661 12.1677 9.44995 12.3098 8.86985C12.5288 7.94404 13.3508 7.29484 14.3112 7.29484C15.4445 7.29484 16.3664 8.21679 16.3664 9.35005C16.3664 11.6857 13.2587 14.3748 11.6798 15.4926C10.0932 14.3747 6.98541 11.6934 6.98541 9.35005Z" fill="#194F82"/>
<path d="M21.8727 22.0518C21.9841 21.9366 22.0417 21.7906 22.0417 21.6293V13.5851C22.0417 12.9935 21.5577 12.5095 20.9661 12.5095C20.3745 12.5095 19.8905 12.9935 19.8905 13.5851V16.7428C20.2746 17.1577 20.5166 17.7109 20.5166 18.3179V20.9724C20.5166 21.3296 20.2285 21.6216 19.8674 21.6216C19.5101 21.6216 19.2182 21.3335 19.2182 20.9724V18.3179C19.2182 17.7608 18.7649 17.3075 18.2079 17.3075C17.6509 17.3075 17.1976 17.7608 17.1976 18.3179V20.8955C17.1976 21.0569 17.1361 21.2105 17.0286 21.3335L14.7237 23.865C14.305 24.326 14.0745 24.9214 14.0745 25.5437V27.4184C14.0745 27.7526 14.3511 28.0292 14.6853 28.0292H17.5933C17.9275 28.0292 18.2041 27.7526 18.2041 27.4184V26.6501C18.2041 26.1583 18.3923 25.6897 18.7304 25.3324L21.8727 22.0518Z" fill="#56ACE0"/>
<path d="M20.9657 11.2183C19.6558 11.2183 18.5955 12.2824 18.5955 13.5885V16.0432C18.4725 16.0201 18.3381 16.0125 18.2037 16.0125C16.9321 16.0125 15.8987 17.0458 15.8987 18.3174V20.6415L13.7629 22.9925C13.129 23.6917 12.7756 24.5982 12.7756 25.5471V27.4217C12.7756 28.4743 13.6285 29.3272 14.681 29.3272H17.5929C18.6455 29.3272 19.4983 28.4743 19.4983 27.4217V26.6535C19.4983 26.496 19.5598 26.3461 19.6673 26.2309L22.802 22.9426C23.1401 22.5853 23.3283 22.1205 23.3283 21.6249V13.5885C23.3359 12.2785 22.2718 11.2183 20.9657 11.2183ZM18.2113 27.4217C18.2113 27.7559 17.9347 28.0326 17.6005 28.0326H14.6886C14.3545 28.0326 14.0778 27.7559 14.0778 27.4217V25.5433C14.0778 24.9171 14.3083 24.3216 14.727 23.8645L17.0281 21.333C17.1395 21.2139 17.1971 21.0564 17.1971 20.895V18.3174C17.1971 17.7604 17.6504 17.3071 18.2074 17.3071C18.7644 17.3071 19.2177 17.7604 19.2177 18.3174V20.9719C19.2177 21.3291 19.5058 21.6211 19.8669 21.6211C20.2242 21.6211 20.5161 21.333 20.5161 20.9719V18.3174C20.5161 17.7066 20.2779 17.1573 19.89 16.7424V13.5923C19.89 13.0007 20.374 12.5167 20.9656 12.5167C21.5572 12.5167 22.0412 13.0007 22.0412 13.5923V21.6365C22.0412 21.794 21.9798 21.9438 21.8722 22.059L18.7299 25.3473C18.3918 25.7046 18.2035 26.1694 18.2035 26.665V27.4217H18.2113Z" fill="#194F82"/>
<path d="M6.31757 21.3334C6.20615 21.2143 6.14857 21.0568 6.14857 20.8954V18.3178C6.14857 17.7607 5.69529 17.3074 5.13826 17.3074C4.58122 17.3074 4.12794 17.7607 4.12794 18.3178V20.9723C4.12794 21.3295 3.83986 21.6215 3.47874 21.6215C3.11763 21.6215 2.82954 21.3333 2.82954 20.9723V18.3178C2.82954 17.7069 3.06771 17.1576 3.45569 16.7427V13.5927C3.45569 13.0011 2.97168 12.5171 2.38006 12.5171C1.78845 12.5171 1.30444 13.0011 1.30444 13.5927V21.6368C1.30444 21.7944 1.36589 21.9442 1.47344 22.0594L4.60814 25.3477C4.9462 25.705 5.13445 26.1698 5.13445 26.6654V27.4336C5.13445 27.7678 5.41107 28.0445 5.74527 28.0445H8.65713C8.99132 28.0445 9.26794 27.7678 9.26794 27.4336V25.5552C9.26794 24.929 9.03744 24.3335 8.61874 23.8764L6.31757 21.3334Z" fill="white"/>
<path d="M9.57865 22.9926L7.4466 20.6454V18.3213C7.4466 17.0498 6.41323 16.0164 5.14169 16.0164C5.00722 16.0164 4.88047 16.0241 4.74985 16.0471V13.5924C4.74985 12.2825 3.68576 11.2222 2.37964 11.2222C1.06971 11.2184 0.00561523 12.2786 0.00561523 13.5886V21.6327C0.00561523 22.1245 0.193868 22.5931 0.531927 22.9504L3.66663 26.2387C3.77804 26.3539 3.83563 26.4999 3.83563 26.6612V27.4295C3.83563 28.4821 4.68847 29.3349 5.74103 29.3349H8.65289C9.70546 29.3349 10.5583 28.4821 10.5583 27.4295V25.551C10.5659 24.5984 10.2125 23.6917 9.57865 22.9926ZM9.26745 27.4219C9.26745 27.7561 8.99083 28.0327 8.65664 28.0327H5.74864C5.41444 28.0327 5.13783 27.7561 5.13783 27.4219V26.6536C5.13783 26.1619 4.94957 25.6932 4.61152 25.3359L1.47682 22.0476C1.3654 21.9324 1.30782 21.7864 1.30782 21.6251V13.5887C1.30782 12.997 1.79182 12.513 2.38344 12.513C2.97506 12.513 3.45906 12.997 3.45906 13.5887V16.7463C3.07489 17.1612 2.83292 17.7144 2.83292 18.3214V20.9759C2.83292 21.3331 3.121 21.6251 3.48212 21.6251C3.84323 21.6251 4.13132 21.337 4.13132 20.9759V18.3214C4.13132 17.7643 4.5846 17.311 5.14163 17.311C5.69866 17.311 6.15195 17.7643 6.15195 18.3214V20.899C6.15195 21.0604 6.21339 21.214 6.32095 21.337L8.62199 23.8685C9.04069 24.3295 9.27119 24.925 9.27119 25.5472V27.4219H9.26745V27.4219Z" fill="#194F82"/>
</g>
<path d="M46.3954 29H41.5351L48.9409 7.54733H54.7859L62.1812 29H57.3208L51.9472 12.4496H51.7796L46.3954 29ZM46.0917 20.5677H57.5722V24.1082H46.0917V20.5677ZM77.6919 17.4985L73.6067 17.7499C73.5369 17.4008 73.3867 17.0865 73.1563 16.8072C72.9258 16.5209 72.6221 16.2939 72.245 16.1263C71.8749 15.9517 71.4314 15.8644 70.9147 15.8644C70.2233 15.8644 69.6402 16.0111 69.1653 16.3044C68.6905 16.5907 68.453 16.9748 68.453 17.4566C68.453 17.8407 68.6067 18.1654 68.9139 18.4308C69.2212 18.6962 69.7484 18.9091 70.4957 19.0698L73.4077 19.6564C74.9719 19.9776 76.1382 20.4943 76.9063 21.2066C77.6745 21.9189 78.0586 22.8547 78.0586 24.0139C78.0586 25.0684 77.7478 25.9937 77.1263 26.7898C76.5118 27.5859 75.6668 28.2074 74.5914 28.6543C73.5229 29.0943 72.2904 29.3142 70.8937 29.3142C68.7638 29.3142 67.0669 28.8708 65.8029 27.9839C64.5459 27.0901 63.8092 25.875 63.5927 24.3387L67.9817 24.1082C68.1144 24.7577 68.4356 25.2535 68.9454 25.5956C69.4551 25.9308 70.1081 26.0984 70.9042 26.0984C71.6863 26.0984 72.3148 25.9483 72.7897 25.648C73.2715 25.3408 73.5159 24.9462 73.5229 24.4644C73.5159 24.0593 73.3448 23.7276 73.0096 23.4692C72.6744 23.2039 72.1577 23.0014 71.4594 22.8617L68.673 22.3065C67.1018 21.9923 65.9321 21.4476 65.1639 20.6724C64.4027 19.8973 64.0221 18.9091 64.0221 17.708C64.0221 16.6745 64.3015 15.7841 64.8601 15.0369C65.4258 14.2897 66.2184 13.7136 67.238 13.3085C68.2645 12.9035 69.4656 12.701 70.8413 12.701C72.8735 12.701 74.4726 13.1305 75.6389 13.9894C76.812 14.8484 77.4964 16.0181 77.6919 17.4985ZM91.1863 22.1494V12.9105H95.6486V29H91.3644V26.0775H91.1968C90.8336 27.0202 90.2296 27.7779 89.3846 28.3506C88.5466 28.9232 87.5235 29.2095 86.3154 29.2095C85.24 29.2095 84.2938 28.9651 83.4767 28.4763C82.6597 27.9874 82.0207 27.2926 81.5598 26.3917C81.1059 25.4909 80.8754 24.412 80.8685 23.155V12.9105H85.3308V22.3589C85.3378 23.3086 85.5927 24.0593 86.0955 24.611C86.5983 25.1627 87.2721 25.4385 88.1171 25.4385C88.6548 25.4385 89.1576 25.3163 89.6255 25.0719C90.0934 24.8205 90.4705 24.4504 90.7568 23.9616C91.0501 23.4727 91.1933 22.8687 91.1863 22.1494ZM99.2179 29V12.9105H103.544V15.7178H103.712C104.005 14.7192 104.497 13.965 105.189 13.4552C105.88 12.9384 106.676 12.68 107.577 12.68C107.8 12.68 108.041 12.694 108.3 12.7219C108.558 12.7499 108.785 12.7883 108.981 12.8372V16.7967C108.771 16.7338 108.481 16.678 108.111 16.6291C107.741 16.5802 107.402 16.5558 107.095 16.5558C106.439 16.5558 105.852 16.6989 105.335 16.9852C104.826 17.2646 104.42 17.6556 104.12 18.1584C103.827 18.6612 103.68 19.2408 103.68 19.8973V29H99.2179ZM115.415 29.3038C114.388 29.3038 113.473 29.1257 112.67 28.7696C111.867 28.4064 111.232 27.8722 110.764 27.1669C110.303 26.4546 110.073 25.5677 110.073 24.5063C110.073 23.6124 110.237 22.8617 110.565 22.2541C110.893 21.6466 111.34 21.1578 111.906 20.7876C112.471 20.4175 113.114 20.1382 113.833 19.9497C114.559 19.7611 115.321 19.6284 116.117 19.5516C117.052 19.4538 117.807 19.3631 118.379 19.2793C118.952 19.1885 119.367 19.0558 119.626 18.8812C119.884 18.7066 120.013 18.4482 120.013 18.1061V18.0432C120.013 17.3798 119.804 16.8665 119.385 16.5034C118.973 16.1403 118.386 15.9587 117.625 15.9587C116.822 15.9587 116.183 16.1368 115.708 16.4929C115.233 16.8421 114.919 17.282 114.765 17.8128L110.638 17.4776C110.848 16.4999 111.26 15.6549 111.874 14.9426C112.489 14.2234 113.281 13.6717 114.252 13.2876C115.23 12.8965 116.361 12.701 117.646 12.701C118.54 12.701 119.395 12.8057 120.212 13.0152C121.036 13.2247 121.766 13.5495 122.402 13.9894C123.044 14.4294 123.55 14.995 123.92 15.6864C124.291 16.3707 124.476 17.1913 124.476 18.148V29H120.244V26.7688H120.118C119.86 27.2716 119.514 27.7151 119.081 28.0992C118.648 28.4763 118.128 28.773 117.52 28.9895C116.913 29.199 116.211 29.3038 115.415 29.3038ZM116.693 26.2241C117.349 26.2241 117.929 26.095 118.432 25.8366C118.934 25.5712 119.329 25.2151 119.615 24.7681C119.902 24.3212 120.045 23.8149 120.045 23.2493V21.5418C119.905 21.6326 119.713 21.7164 119.469 21.7932C119.231 21.8631 118.962 21.9294 118.662 21.9923C118.362 22.0481 118.061 22.1005 117.761 22.1494C117.461 22.1913 117.189 22.2297 116.944 22.2646C116.42 22.3414 115.963 22.4636 115.572 22.6312C115.181 22.7988 114.877 23.0258 114.661 23.3121C114.444 23.5914 114.336 23.9406 114.336 24.3596C114.336 24.9671 114.556 25.4315 114.996 25.7528C115.443 26.067 116.008 26.2241 116.693 26.2241ZM132.4 19.6983V29H127.938V12.9105H132.19V15.7492H132.379C132.735 14.8134 133.332 14.0732 134.17 13.5285C135.008 12.9768 136.024 12.701 137.218 12.701C138.336 12.701 139.31 12.9454 140.141 13.4342C140.972 13.9231 141.618 14.6214 142.079 15.5292C142.54 16.4301 142.77 17.5055 142.77 18.7555V29H138.308V19.5516C138.315 18.567 138.063 17.7988 137.554 17.2471C137.044 16.6885 136.342 16.4091 135.448 16.4091C134.848 16.4091 134.317 16.5383 133.856 16.7967C133.402 17.0551 133.046 17.4322 132.787 17.928C132.536 18.4168 132.407 19.0069 132.4 19.6983ZM159.674 17.4985L155.589 17.7499C155.519 17.4008 155.369 17.0865 155.138 16.8072C154.908 16.5209 154.604 16.2939 154.227 16.1263C153.857 15.9517 153.414 15.8644 152.897 15.8644C152.205 15.8644 151.622 16.0111 151.147 16.3044C150.673 16.5907 150.435 16.9748 150.435 17.4566C150.435 17.8407 150.589 18.1654 150.896 18.4308C151.203 18.6962 151.731 18.9091 152.478 19.0698L155.39 19.6564C156.954 19.9776 158.12 20.4943 158.888 21.2066C159.657 21.9189 160.041 22.8547 160.041 24.0139C160.041 25.0684 159.73 25.9937 159.108 26.7898C158.494 27.5859 157.649 28.2074 156.573 28.6543C155.505 29.0943 154.272 29.3142 152.876 29.3142C150.746 29.3142 149.049 28.8708 147.785 27.9839C146.528 27.0901 145.791 25.875 145.575 24.3387L149.964 24.1082C150.096 24.7577 150.418 25.2535 150.927 25.5956C151.437 25.9308 152.09 26.0984 152.886 26.0984C153.668 26.0984 154.297 25.9483 154.772 25.648C155.254 25.3408 155.498 24.9462 155.505 24.4644C155.498 24.0593 155.327 23.7276 154.992 23.4692C154.657 23.2039 154.14 23.0014 153.441 22.8617L150.655 22.3065C149.084 21.9923 147.914 21.4476 147.146 20.6724C146.385 19.8973 146.004 18.9091 146.004 17.708C146.004 16.6745 146.284 15.7841 146.842 15.0369C147.408 14.2897 148.2 13.7136 149.22 13.3085C150.247 12.9035 151.448 12.701 152.823 12.701C154.856 12.701 156.455 13.1305 157.621 13.9894C158.794 14.8484 159.479 16.0181 159.674 17.4985ZM162.851 29V12.9105H167.313V29H162.851ZM165.092 10.8365C164.429 10.8365 163.86 10.6165 163.385 10.1765C162.917 9.72961 162.683 9.19538 162.683 8.57387C162.683 7.95934 162.917 7.4321 163.385 6.99216C163.86 6.54522 164.429 6.32176 165.092 6.32176C165.756 6.32176 166.321 6.54522 166.789 6.99216C167.264 7.4321 167.501 7.95934 167.501 8.57387C167.501 9.19538 167.264 9.72961 166.789 10.1765C166.321 10.6165 165.756 10.8365 165.092 10.8365Z" fill="#686864"/>
<defs>
<clipPath id="clip0_59_5806">
<rect width="23.3333" height="23.3333" fill="white" transform="translate(0 6)"/>
</clipPath>
</defs>
</svg>
