<svg width="143" height="42" viewBox="0 0 143 42" fill="none" xmlns="http://www.w3.org/2000/svg">
<g clip-path="url(#clip0_59_6101)">
<path d="M37.3337 42L35.0003 39.6667L32.667 42L30.3337 39.6667L28.0003 42L25.667 39.6667L23.3337 42L21.0003 39.6667L18.667 42L16.3337 39.6667L14.0003 42L11.667 39.6667L9.33366 42L7.00033 39.6667L4.66699 42V0L7.00033 2.33333L9.28466 0L11.667 2.33333L14.0493 0L16.3337 2.33333L18.716 0L21.0003 2.33333L23.4305 0L25.667 2.33333L28.1462 0L30.3337 2.33333L32.618 0L35.0003 2.33333L37.3337 0V42Z" fill="#CCD6DD"/>
<path d="M22.1676 19.8328H10.5009C9.85923 19.8328 9.33423 19.3078 9.33423 18.6662C9.33423 18.0245 9.85923 17.4995 10.5009 17.4995H22.1676C22.8092 17.4995 23.3342 18.0245 23.3342 18.6662C23.3342 19.3078 22.8092 19.8328 22.1676 19.8328ZM31.5009 19.8328H26.8342C26.1926 19.8328 25.6676 19.3078 25.6676 18.6662C25.6676 18.0245 26.1926 17.4995 26.8342 17.4995H31.5009C32.1426 17.4995 32.6676 18.0245 32.6676 18.6662C32.6676 19.3078 32.1426 19.8328 31.5009 19.8328ZM22.1676 24.4995H10.5009C9.85923 24.4995 9.33423 23.9745 9.33423 23.3328C9.33423 22.6912 9.85923 22.1662 10.5009 22.1662H22.1676C22.8092 22.1662 23.3342 22.6912 23.3342 23.3328C23.3342 23.9745 22.8092 24.4995 22.1676 24.4995ZM31.5009 24.4995H26.8342C26.1926 24.4995 25.6676 23.9745 25.6676 23.3328C25.6676 22.6912 26.1926 22.1662 26.8342 22.1662H31.5009C32.1426 22.1662 32.6676 22.6912 32.6676 23.3328C32.6676 23.9745 32.1426 24.4995 31.5009 24.4995ZM31.5009 31.4995H10.5009C9.85923 31.4995 9.33423 30.9745 9.33423 30.3328C9.33423 29.6912 9.85923 29.1662 10.5009 29.1662H31.5009C32.1426 29.1662 32.6676 29.6912 32.6676 30.3328C32.6676 30.9745 32.1426 31.4995 31.5009 31.4995ZM31.5009 36.1662H26.8342C26.1926 36.1662 25.6676 35.6412 25.6676 34.9995C25.6676 34.3578 26.1926 33.8328 26.8342 33.8328H31.5009C32.1426 33.8328 32.6676 34.3578 32.6676 34.9995C32.6676 35.6412 32.1426 36.1662 31.5009 36.1662Z" fill="#99AAB5"/>
<path d="M20.9997 13.9996C23.577 13.9996 25.6663 11.9103 25.6663 9.33293C25.6663 6.7556 23.577 4.66626 20.9997 4.66626C18.4223 4.66626 16.333 6.7556 16.333 9.33293C16.333 11.9103 18.4223 13.9996 20.9997 13.9996Z" fill="#99AAB5"/>
</g>
<path d="M55.8647 32V10.5455H64.4549C66.0333 10.5455 67.3497 10.7794 68.4043 11.2473C69.4589 11.7153 70.2515 12.3648 70.7823 13.1958C71.3131 14.0199 71.5785 14.9698 71.5785 16.0453C71.5785 16.8833 71.4109 17.6201 71.0756 18.2557C70.7404 18.8842 70.2795 19.401 69.6928 19.8061C69.1132 20.2042 68.4497 20.487 67.7024 20.6547V20.8642C68.5195 20.8991 69.2843 21.1296 69.9966 21.5556C70.716 21.9816 71.2991 22.5787 71.7461 23.3469C72.1931 24.1082 72.4165 25.0161 72.4165 26.0707C72.4165 27.209 72.1337 28.2252 71.568 29.1191C71.0093 30.0061 70.1817 30.708 69.0852 31.2248C67.9888 31.7416 66.6374 32 65.0311 32H55.8647ZM60.4007 28.2915H64.0987C65.3628 28.2915 66.2847 28.0506 66.8643 27.5687C67.444 27.0798 67.7338 26.4303 67.7338 25.6202C67.7338 25.0266 67.5907 24.5028 67.3043 24.0488C67.018 23.5949 66.6094 23.2387 66.0787 22.9803C65.5549 22.7219 64.9298 22.5927 64.2035 22.5927H60.4007V28.2915ZM60.4007 19.5233H63.7635C64.3851 19.5233 64.9368 19.415 65.4187 19.1985C65.9076 18.975 66.2917 18.6607 66.571 18.2557C66.8574 17.8506 67.0005 17.3652 67.0005 16.7995C67.0005 16.0243 66.7247 15.3993 66.1729 14.9244C65.6282 14.4495 64.853 14.212 63.8473 14.212H60.4007V19.5233ZM75.2843 32V15.9091H79.747V32H75.2843ZM77.5261 13.8349C76.8627 13.8349 76.2935 13.6149 75.8186 13.1749C75.3507 12.7279 75.1167 12.1937 75.1167 11.5721C75.1167 10.9575 75.3507 10.4302 75.8186 9.99023C76.2935 9.54326 76.8627 9.31978 77.5261 9.31978C78.1896 9.31978 78.7553 9.54326 79.2232 9.99023C79.6981 10.4302 79.9356 10.9575 79.9356 11.5721C79.9356 12.1937 79.6981 12.7279 79.2232 13.1749C78.7553 13.6149 78.1896 13.8349 77.5261 13.8349ZM87.7846 10.5455V32H83.3219V10.5455H87.7846ZM95.8222 10.5455V32H91.3595V10.5455H95.8222ZM99.3971 32V15.9091H103.86V32H99.3971ZM101.639 13.8349C100.975 13.8349 100.406 13.6149 99.9314 13.1749C99.4635 12.7279 99.2295 12.1937 99.2295 11.5721C99.2295 10.9575 99.4635 10.4302 99.9314 9.99023C100.406 9.54326 100.975 9.31978 101.639 9.31978C102.302 9.31978 102.868 9.54326 103.336 9.99023C103.811 10.4302 104.048 10.9575 104.048 11.5721C104.048 12.1937 103.811 12.7279 103.336 13.1749C102.868 13.6149 102.302 13.8349 101.639 13.8349ZM111.897 22.6974V32H107.435V15.9091H111.688V18.748H111.876C112.233 17.8122 112.83 17.0719 113.668 16.5272C114.506 15.9754 115.522 15.6996 116.716 15.6996C117.834 15.6996 118.808 15.944 119.639 16.4329C120.47 16.9218 121.116 17.6201 121.577 18.5281C122.038 19.429 122.269 20.5045 122.269 21.7546V32H117.806V22.5508C117.813 21.5661 117.561 20.7978 117.052 20.2461C116.542 19.6874 115.84 19.408 114.946 19.408C114.345 19.408 113.814 19.5372 113.354 19.7956C112.9 20.054 112.543 20.4312 112.285 20.927C112.034 21.4159 111.904 22.006 111.897 22.6974ZM133.035 38.3693C131.589 38.3693 130.35 38.1703 129.316 37.7722C128.29 37.3811 127.472 36.8468 126.865 36.1694C126.257 35.492 125.863 34.7307 125.681 33.8857L129.809 33.3304C129.934 33.6517 130.133 33.952 130.406 34.2314C130.678 34.5107 131.038 34.7342 131.485 34.9018C131.939 35.0764 132.49 35.1637 133.14 35.1637C134.111 35.1637 134.91 34.9263 135.539 34.4513C136.174 33.9834 136.492 33.1977 136.492 32.0943V29.1506H136.304C136.108 29.5975 135.815 30.0201 135.424 30.4181C135.032 30.8162 134.53 31.141 133.915 31.3924C133.3 31.6438 132.567 31.7695 131.715 31.7695C130.507 31.7695 129.407 31.4902 128.415 30.9315C127.43 30.3658 126.645 29.5033 126.058 28.3439C125.478 27.1776 125.189 25.704 125.189 23.9231C125.189 22.1003 125.485 20.5778 126.079 19.3556C126.673 18.1335 127.462 17.2186 128.447 16.611C129.438 16.0034 130.524 15.6996 131.705 15.6996C132.606 15.6996 133.36 15.8532 133.967 16.1605C134.575 16.4608 135.064 16.8379 135.434 17.2919C135.811 17.7389 136.101 18.1789 136.304 18.6119H136.471V15.9091H140.902V32.1571C140.902 33.526 140.567 34.6713 139.897 35.5932C139.226 36.5151 138.297 37.2065 137.11 37.6674C135.93 38.1354 134.572 38.3693 133.035 38.3693ZM133.129 28.4173C133.849 28.4173 134.456 28.2392 134.952 27.883C135.455 27.5198 135.839 27.003 136.104 26.3326C136.377 25.6551 136.513 24.845 136.513 23.9022C136.513 22.9593 136.38 22.1422 136.115 21.4508C135.85 20.7524 135.465 20.2112 134.963 19.8271C134.46 19.4429 133.849 19.2509 133.129 19.2509C132.396 19.2509 131.778 19.4499 131.275 19.848C130.772 20.2391 130.392 20.7839 130.133 21.4822C129.875 22.1806 129.746 22.9873 129.746 23.9022C129.746 24.831 129.875 25.6342 130.133 26.3116C130.399 26.9821 130.779 27.5024 131.275 27.8725C131.778 28.2357 132.396 28.4173 133.129 28.4173Z" fill="#686864"/>
<defs>
<clipPath id="clip0_59_6101">
<rect width="42" height="42" fill="white"/>
</clipPath>
</defs>
</svg>
