<svg width="107" height="107" viewBox="0 0 107 107" fill="none" xmlns="http://www.w3.org/2000/svg">
<path d="M93.9311 19.9052H11.0689C9.37394 19.9052 8 21.2793 8 22.9741V72.0776H97V22.9741C97 21.2793 95.6261 19.9052 93.9311 19.9052ZM92.3965 33.7154V67.4741H12.6035V33.7154V24.5086H92.3965V33.7154Z" fill="#464655"/>
<path d="M12.6035 67.4741H92.3965V33.7155H12.6035V67.4741ZM75.5173 41.3879V39.8533C75.5173 39.0059 76.2044 38.3188 77.0518 38.3188H86.2588C87.1062 38.3188 87.7934 39.0059 87.7934 39.8533V41.3879V61.3362C87.7934 62.1836 87.1062 62.8708 86.2588 62.8708H77.0518C76.2044 62.8708 75.5173 62.1836 75.5173 61.3362V41.3879ZM58.6379 41.3879V39.8533C58.6379 39.0059 59.325 38.3188 60.1724 38.3188H69.3794C70.2268 38.3188 70.914 39.0059 70.914 39.8533V41.3879V61.3362C70.914 62.1836 70.2268 62.8708 69.3794 62.8708H60.1724C59.325 62.8708 58.6379 62.1836 58.6379 61.3362V41.3879ZM41.7587 41.3879V39.8533C41.7587 39.0059 42.4458 38.3188 43.2932 38.3188H52.5C53.3474 38.3188 54.0346 39.0059 54.0346 39.8533V41.3879V61.3362C54.0346 62.1836 53.3474 62.8708 52.5 62.8708H43.293C42.4456 62.8708 41.7585 62.1836 41.7585 61.3362V41.3879H41.7587ZM17.207 41.3879V39.8533C17.207 39.0059 17.8941 38.3188 18.7416 38.3188H35.6208C36.4682 38.3188 37.1553 39.0059 37.1553 39.8533V41.3879V61.3362C37.1553 62.1836 36.4682 62.8708 35.6208 62.8708H18.7414C17.894 62.8708 17.2068 62.1836 17.2068 61.3362V41.3879H17.207Z" fill="white"/>
<path d="M8 78.2155C8 79.9103 9.37394 81.2844 11.0689 81.2844H40.2241H64.7757H93.9309C95.6259 81.2844 96.9998 79.9103 96.9998 78.2155V72.0776H8V78.2155ZM52.5 74.3793C53.7712 74.3793 54.8017 75.4099 54.8017 76.6809C54.8017 77.952 53.771 78.9826 52.5 78.9826C51.2288 78.9826 50.1983 77.952 50.1983 76.6809C50.1983 75.4099 51.2288 74.3793 52.5 74.3793Z" fill="#BEC8DC"/>
<path d="M38.8818 92.0259H66.119L65.16 84.3535H39.8408L38.8818 92.0259Z" fill="#AFBBD0"/>
<path d="M38.6898 92.0259C37.8424 92.0259 37.1553 92.7131 37.1553 93.5605C37.1553 94.4079 37.8424 95.095 38.6898 95.095H66.3106C67.158 95.095 67.8452 94.4079 67.8452 93.5605C67.8452 92.7131 67.158 92.0259 66.3106 92.0259H66.1189H38.8817H38.6898Z" fill="#BEC8DC"/>
<path d="M39.8408 84.3535H65.1599L64.7763 81.2845H40.2245L39.8408 84.3535Z" fill="#96A5B9"/>
<path d="M12.6035 33.7154H92.3965V24.5086H12.6035V33.7154ZM81.6552 27.5776H87.793C88.6404 27.5776 89.3276 28.2647 89.3276 29.1121C89.3276 29.9595 88.6404 30.6467 87.793 30.6467H81.6552C80.8078 30.6467 80.1206 29.9595 80.1206 29.1121C80.1208 28.2647 80.8078 27.5776 81.6552 27.5776ZM69.3793 27.5776H75.5171C76.3645 27.5776 77.0517 28.2647 77.0517 29.1121C77.0517 29.9595 76.3645 30.6467 75.5171 30.6467H69.3793C68.5318 30.6467 67.8447 29.9595 67.8447 29.1121C67.8449 28.2647 68.5318 27.5776 69.3793 27.5776ZM57.1035 27.5776H63.2414C64.0888 27.5776 64.7759 28.2647 64.7759 29.1121C64.7759 29.9595 64.0888 30.6467 63.2414 30.6467H57.1035C56.2561 30.6467 55.569 29.9595 55.569 29.1121C55.569 28.2647 56.2561 27.5776 57.1035 27.5776ZM44.8276 27.5776H50.9655C51.8129 27.5776 52.5 28.2647 52.5 29.1121C52.5 29.9595 51.8129 30.6467 50.9655 30.6467H44.8276C43.9802 30.6467 43.293 29.9595 43.293 29.1121C43.293 28.2647 43.9802 27.5776 44.8276 27.5776ZM32.5517 27.5776H38.6896C39.537 27.5776 40.2241 28.2647 40.2241 29.1121C40.2241 29.9595 39.537 30.6467 38.6896 30.6467H32.5517C31.7043 30.6467 31.0171 29.9595 31.0171 29.1121C31.0173 28.2647 31.7043 27.5776 32.5517 27.5776ZM17.207 27.5776H26.414C27.2614 27.5776 27.9485 28.2647 27.9485 29.1121C27.9485 29.9595 27.2614 30.6467 26.414 30.6467H17.207C16.3596 30.6467 15.6725 29.9595 15.6725 29.1121C15.6725 28.2647 16.3594 27.5776 17.207 27.5776Z" fill="#FF6469"/>
<path d="M17.2069 30.6465H26.4139C27.2613 30.6465 27.9485 29.9594 27.9485 29.1119C27.9485 28.2645 27.2613 27.5774 26.4139 27.5774H17.2069C16.3595 27.5774 15.6724 28.2645 15.6724 29.1119C15.6724 29.9595 16.3593 30.6465 17.2069 30.6465Z" fill="#FFDC69"/>
<path d="M32.5512 30.6465H38.689C39.5364 30.6465 40.2236 29.9594 40.2236 29.1119C40.2236 28.2645 39.5364 27.5774 38.689 27.5774H32.5512C31.7037 27.5774 31.0166 28.2645 31.0166 29.1119C31.0168 29.9595 31.7037 30.6465 32.5512 30.6465Z" fill="#D2555F"/>
<path d="M44.827 30.6465H50.9649C51.8123 30.6465 52.4995 29.9594 52.4995 29.1119C52.4995 28.2645 51.8123 27.5774 50.9649 27.5774H44.827C43.9796 27.5774 43.2925 28.2645 43.2925 29.1119C43.2925 29.9595 43.9796 30.6465 44.827 30.6465Z" fill="#D2555F"/>
<path d="M57.1039 30.6465H63.2418C64.0892 30.6465 64.7763 29.9594 64.7763 29.1119C64.7763 28.2645 64.0892 27.5774 63.2418 27.5774H57.1039C56.2565 27.5774 55.5693 28.2645 55.5693 29.1119C55.5693 29.9595 56.2565 30.6465 57.1039 30.6465Z" fill="#D2555F"/>
<path d="M69.3793 30.6465H75.5172C76.3646 30.6465 77.0517 29.9594 77.0517 29.1119C77.0517 28.2645 76.3646 27.5774 75.5172 27.5774H69.3793C68.5319 27.5774 67.8447 28.2645 67.8447 29.1119C67.8449 29.9595 68.5319 30.6465 69.3793 30.6465Z" fill="#D2555F"/>
<path d="M81.6552 30.6465H87.793C88.6404 30.6465 89.3276 29.9594 89.3276 29.1119C89.3276 28.2645 88.6404 27.5774 87.793 27.5774H81.6552C80.8077 27.5774 80.1206 28.2645 80.1206 29.1119C80.1208 29.9595 80.8077 30.6465 81.6552 30.6465Z" fill="#D2555F"/>
<path d="M18.7411 62.8708H35.6203C36.4677 62.8708 37.1549 62.1836 37.1549 61.3362V41.3879C37.1549 42.2353 36.4677 42.9224 35.6203 42.9224H18.7411C17.8937 42.9224 17.2065 42.2353 17.2065 41.3879V61.3362C17.2067 62.1836 17.8937 62.8708 18.7411 62.8708Z" fill="#DEE3ED"/>
<path d="M43.2929 62.8708H52.4998C53.3472 62.8708 54.0344 62.1836 54.0344 61.3362V41.3879C54.0344 42.2353 53.3472 42.9224 52.4998 42.9224H43.2929C42.4454 42.9224 41.7583 42.2353 41.7583 41.3879V61.3362C41.7585 62.1836 42.4454 62.8708 43.2929 62.8708Z" fill="#DEE3ED"/>
<path d="M60.1718 62.8708H69.3787C70.2262 62.8708 70.9133 62.1836 70.9133 61.3362V41.3879C70.9133 42.2353 70.2262 42.9224 69.3787 42.9224H60.1718C59.3244 42.9224 58.6372 42.2353 58.6372 41.3879V61.3362C58.6372 62.1836 59.3244 62.8708 60.1718 62.8708Z" fill="#DEE3ED"/>
<path d="M77.0512 62.8708H86.2581C87.1055 62.8708 87.7927 62.1836 87.7927 61.3362V41.3879C87.7927 42.2353 87.1055 42.9224 86.2581 42.9224H77.0512C76.2037 42.9224 75.5166 42.2353 75.5166 41.3879V61.3362C75.5168 62.1836 76.2037 62.8708 77.0512 62.8708Z" fill="#DEE3ED"/>
<path d="M18.7411 42.9224H35.6203C36.4677 42.9224 37.1549 42.2353 37.1549 41.3879V39.8533C37.1549 39.0059 36.4677 38.3188 35.6203 38.3188H18.7411C17.8937 38.3188 17.2065 39.0059 17.2065 39.8533V41.3879C17.2067 42.2353 17.8937 42.9224 18.7411 42.9224Z" fill="#FFDC69"/>
<path d="M43.2929 42.9224H52.4998C53.3472 42.9224 54.0344 42.2353 54.0344 41.3879V39.8533C54.0344 39.0059 53.3472 38.3188 52.4998 38.3188H43.2929C42.4454 38.3188 41.7583 39.0059 41.7583 39.8533V41.3879C41.7585 42.2353 42.4454 42.9224 43.2929 42.9224Z" fill="#B4E173"/>
<path d="M60.1718 42.9224H69.3787C70.2262 42.9224 70.9133 42.2353 70.9133 41.3879V39.8533C70.9133 39.0059 70.2262 38.3188 69.3787 38.3188H60.1718C59.3244 38.3188 58.6372 39.0059 58.6372 39.8533V41.3879C58.6372 42.2353 59.3244 42.9224 60.1718 42.9224Z" fill="#FF969B"/>
<path d="M77.0512 42.9224H86.2581C87.1055 42.9224 87.7927 42.2353 87.7927 41.3879V39.8533C87.7927 39.0059 87.1055 38.3188 86.2581 38.3188H77.0512C76.2037 38.3188 75.5166 39.0059 75.5166 39.8533V41.3879C75.5168 42.2353 76.2037 42.9224 77.0512 42.9224Z" fill="#A0DCF0"/>
<path d="M52.4999 78.9827C53.7711 78.9827 54.8016 77.9522 54.8016 76.681C54.8016 75.4099 53.7711 74.3794 52.4999 74.3794C51.2287 74.3794 50.1982 75.4099 50.1982 76.681C50.1982 77.9522 51.2287 78.9827 52.4999 78.9827Z" fill="#96A5B9"/>
</svg>
