<svg width="170" height="40" viewBox="0 0 170 40" fill="none" xmlns="http://www.w3.org/2000/svg">
<path d="M66.4702 31H58.8647V9.54545H66.533C68.6911 9.54545 70.5488 9.97496 72.1062 10.834C73.6636 11.686 74.8613 12.9117 75.6994 14.511C76.5444 16.1103 76.967 18.0239 76.967 20.2518C76.967 22.4866 76.5444 24.4072 75.6994 26.0135C74.8613 27.6198 73.6566 28.8525 72.0852 29.7115C70.5208 30.5705 68.6491 31 66.4702 31ZM63.4007 27.1135H66.2816C67.6225 27.1135 68.7504 26.876 69.6653 26.4011C70.5872 25.9192 71.2786 25.1754 71.7395 24.1697C72.2074 23.1571 72.4414 21.8511 72.4414 20.2518C72.4414 18.6664 72.2074 17.3709 71.7395 16.3652C71.2786 15.3596 70.5907 14.6193 69.6758 14.1444C68.7609 13.6694 67.633 13.432 66.2921 13.432H63.4007V27.1135ZM84.8317 31.3038C83.8051 31.3038 82.8902 31.1257 82.087 30.7695C81.2839 30.4064 80.6484 29.8721 80.1804 29.1667C79.7195 28.4544 79.489 27.5674 79.489 26.5059C79.489 25.6119 79.6532 24.8612 79.9814 24.2536C80.3096 23.646 80.7566 23.1571 81.3223 22.7869C81.888 22.4168 82.5305 22.1374 83.2499 21.9489C83.9762 21.7603 84.7374 21.6276 85.5336 21.5508C86.4694 21.453 87.2237 21.3622 87.7964 21.2784C88.3691 21.1876 88.7846 21.0549 89.043 20.8803C89.3014 20.7057 89.4306 20.4473 89.4306 20.1051V20.0423C89.4306 19.3788 89.2211 18.8655 88.8021 18.5023C88.39 18.1391 87.8034 17.9576 87.0421 17.9576C86.239 17.9576 85.5999 18.1357 85.125 18.4918C84.6501 18.841 84.3359 19.281 84.1822 19.8118L80.0547 19.4766C80.2642 18.4988 80.6763 17.6538 81.2909 16.9414C81.9055 16.2221 82.6981 15.6703 83.6689 15.2862C84.6466 14.8951 85.778 14.6996 87.0631 14.6996C87.957 14.6996 88.8125 14.8043 89.6297 15.0138C90.4538 15.2234 91.1836 15.5481 91.8191 15.9881C92.4616 16.4281 92.968 16.9938 93.3381 17.6852C93.7083 18.3696 93.8933 19.1902 93.8933 20.147V31H89.6611V28.7686H89.5354C89.277 29.2715 88.9313 29.715 88.4983 30.0991C88.0653 30.4762 87.545 30.773 86.9374 30.9895C86.3298 31.199 85.6279 31.3038 84.8317 31.3038ZM86.1098 28.2239C86.7663 28.2239 87.3459 28.0947 87.8488 27.8363C88.3516 27.5709 88.7462 27.2147 89.0325 26.7678C89.3189 26.3208 89.462 25.8145 89.462 25.2488V23.5412C89.3224 23.632 89.1303 23.7158 88.8859 23.7926C88.6484 23.8625 88.3795 23.9288 88.0792 23.9917C87.7789 24.0475 87.4786 24.0999 87.1783 24.1488C86.878 24.1907 86.6056 24.2291 86.3612 24.264C85.8374 24.3408 85.38 24.4631 84.9889 24.6307C84.5978 24.7983 84.294 25.0253 84.0775 25.3116C83.861 25.591 83.7527 25.9402 83.7527 26.3592C83.7527 26.9668 83.9727 27.4312 84.4127 27.7525C84.8597 28.0668 85.4254 28.2239 86.1098 28.2239ZM105.914 14.9091V18.2614H96.2242V14.9091H105.914ZM98.4241 11.054H102.887V26.0554C102.887 26.4674 102.95 26.7887 103.075 27.0192C103.201 27.2427 103.376 27.3998 103.599 27.4906C103.83 27.5814 104.095 27.6268 104.395 27.6268C104.605 27.6268 104.814 27.6093 105.024 27.5744C105.233 27.5325 105.394 27.5011 105.506 27.4801L106.208 30.801C105.984 30.8708 105.67 30.9511 105.265 31.0419C104.86 31.1397 104.367 31.199 103.788 31.22C102.712 31.2619 101.769 31.1187 100.959 30.7905C100.156 30.4622 99.5311 29.9524 99.0841 29.261C98.6371 28.5696 98.4172 27.6966 98.4241 26.642V11.054ZM113.41 31.3038C112.383 31.3038 111.468 31.1257 110.665 30.7695C109.862 30.4064 109.226 29.8721 108.759 29.1667C108.298 28.4544 108.067 27.5674 108.067 26.5059C108.067 25.6119 108.231 24.8612 108.56 24.2536C108.888 23.646 109.335 23.1571 109.9 22.7869C110.466 22.4168 111.109 22.1374 111.828 21.9489C112.554 21.7603 113.316 21.6276 114.112 21.5508C115.048 21.453 115.802 21.3622 116.375 21.2784C116.947 21.1876 117.363 21.0549 117.621 20.8803C117.88 20.7057 118.009 20.4473 118.009 20.1051V20.0423C118.009 19.3788 117.799 18.8655 117.38 18.5023C116.968 18.1391 116.381 17.9576 115.62 17.9576C114.817 17.9576 114.178 18.1357 113.703 18.4918C113.228 18.841 112.914 19.281 112.76 19.8118L108.633 19.4766C108.842 18.4988 109.254 17.6538 109.869 16.9414C110.484 16.2221 111.276 15.6703 112.247 15.2862C113.225 14.8951 114.356 14.6996 115.641 14.6996C116.535 14.6996 117.391 14.8043 118.208 15.0138C119.032 15.2234 119.762 15.5481 120.397 15.9881C121.04 16.4281 121.546 16.9938 121.916 17.6852C122.286 18.3696 122.471 19.1902 122.471 20.147V31H118.239V28.7686H118.114C117.855 29.2715 117.509 29.715 117.076 30.0991C116.643 30.4762 116.123 30.773 115.515 30.9895C114.908 31.199 114.206 31.3038 113.41 31.3038ZM114.688 28.2239C115.344 28.2239 115.924 28.0947 116.427 27.8363C116.93 27.5709 117.324 27.2147 117.611 26.7678C117.897 26.3208 118.04 25.8145 118.04 25.2488V23.5412C117.9 23.632 117.708 23.7158 117.464 23.7926C117.227 23.8625 116.958 23.9288 116.657 23.9917C116.357 24.0475 116.057 24.0999 115.756 24.1488C115.456 24.1907 115.184 24.2291 114.939 24.264C114.416 24.3408 113.958 24.4631 113.567 24.6307C113.176 24.7983 112.872 25.0253 112.656 25.3116C112.439 25.591 112.331 25.9402 112.331 26.3592C112.331 26.9668 112.551 27.4312 112.991 27.7525C113.438 28.0668 114.003 28.2239 114.688 28.2239ZM132.845 31V9.54545H141.31C142.93 9.54545 144.313 9.83529 145.458 10.4149C146.61 10.9876 147.487 11.8013 148.088 12.8558C148.695 13.9034 148.999 15.1361 148.999 16.5538C148.999 17.9785 148.692 19.2042 148.077 20.2308C147.462 21.2505 146.572 22.0327 145.406 22.5774C144.246 23.1222 142.843 23.3945 141.194 23.3945H135.527V19.7489H140.461C141.327 19.7489 142.046 19.6302 142.619 19.3928C143.192 19.1553 143.618 18.7991 143.897 18.3242C144.184 17.8493 144.327 17.2592 144.327 16.5538C144.327 15.8414 144.184 15.2408 143.897 14.752C143.618 14.2631 143.188 13.8929 142.609 13.6415C142.036 13.3831 141.313 13.2539 140.44 13.2539H137.381V31H132.845ZM144.431 21.2365L149.764 31H144.756L139.539 21.2365H144.431ZM163.843 15.7157C163.759 14.8707 163.4 14.2142 162.764 13.7463C162.129 13.2783 161.266 13.0444 160.177 13.0444C159.436 13.0444 158.811 13.1491 158.301 13.3587C157.792 13.5612 157.401 13.844 157.128 14.2072C156.863 14.5704 156.73 14.9824 156.73 15.4434C156.716 15.8275 156.796 16.1627 156.971 16.449C157.153 16.7354 157.401 16.9833 157.715 17.1928C158.029 17.3954 158.392 17.5734 158.804 17.7271C159.216 17.8738 159.656 17.9995 160.124 18.1042L162.052 18.5652C162.988 18.7747 163.847 19.054 164.629 19.4032C165.411 19.7524 166.089 20.1819 166.661 20.6918C167.234 21.2016 167.677 21.8022 167.992 22.4936C168.313 23.185 168.477 23.9777 168.484 24.8716C168.477 26.1846 168.142 27.323 167.478 28.2868C166.822 29.2435 165.872 29.9873 164.629 30.5181C163.393 31.0419 161.902 31.3038 160.156 31.3038C158.424 31.3038 156.915 31.0384 155.63 30.5076C154.352 29.9769 153.353 29.1912 152.634 28.1506C151.922 27.103 151.548 25.8075 151.513 24.264H155.903C155.951 24.9834 156.157 25.584 156.521 26.0659C156.891 26.5408 157.383 26.9004 157.998 27.1449C158.619 27.3823 159.321 27.5011 160.103 27.5011C160.872 27.5011 161.539 27.3893 162.104 27.1658C162.677 26.9424 163.12 26.6316 163.435 26.2335C163.749 25.8354 163.906 25.378 163.906 24.8612C163.906 24.3793 163.763 23.9742 163.477 23.646C163.197 23.3177 162.785 23.0384 162.24 22.8079C161.703 22.5774 161.043 22.3679 160.26 22.1793L157.924 21.5927C156.116 21.1527 154.687 20.4648 153.64 19.5289C152.592 18.5931 152.072 17.3325 152.079 15.7472C152.072 14.4482 152.418 13.3133 153.116 12.3425C153.821 11.3717 154.789 10.614 156.018 10.0692C157.247 9.5245 158.644 9.25213 160.208 9.25213C161.8 9.25213 163.19 9.5245 164.377 10.0692C165.572 10.614 166.501 11.3717 167.164 12.3425C167.828 13.3133 168.17 14.4377 168.191 15.7157H163.843Z" fill="#686864"/>
<g clip-path="url(#clip0_59_6015)">
<path d="M16 23.3326V23.0826V22.8326V17.0826V16.8326H16.0227C16.0087 16.9153 16 16.9986 16 17.0826C16 15.458 18.5747 14.048 22.356 13.3326H2.40533C1.07733 13.3326 0 14.4093 0 15.738V23.5933C0 24.9226 1.07733 25.9993 2.40533 25.9993H16V23.3326Z" fill="#424A60"/>
<path d="M16.0227 35.3348H16V29.3348V29.0848V28.8348V26.0015H2.40533C1.07733 26.0015 0 27.0781 0 28.4068V36.2621C0 37.5915 1.07733 38.6681 2.40533 38.6681H21.5507C18.4007 37.9555 16.252 36.7368 16.0227 35.3348Z" fill="#556080"/>
<path d="M36.2613 13.3326H2.40533C1.07733 13.3326 0 12.2552 0 10.9272V3.07123C0 1.74323 1.07733 0.665894 2.40533 0.665894H36.2607C37.5893 0.665894 38.6667 1.74323 38.6667 3.07123V10.9266C38.6667 12.2552 37.5893 13.3326 36.2613 13.3326Z" fill="#556080"/>
<path d="M6.33455 9.33183C7.62322 9.33183 8.66789 8.28716 8.66789 6.99849C8.66789 5.70983 7.62322 4.66516 6.33455 4.66516C5.04589 4.66516 4.00122 5.70983 4.00122 6.99849C4.00122 8.28716 5.04589 9.33183 6.33455 9.33183Z" fill="#7383BF"/>
<path d="M32.6662 6.66817C33.0344 6.66817 33.3328 6.3697 33.3328 6.00151C33.3328 5.63332 33.0344 5.33484 32.6662 5.33484C32.298 5.33484 31.9995 5.63332 31.9995 6.00151C31.9995 6.3697 32.298 6.66817 32.6662 6.66817Z" fill="#7383BF"/>
<path d="M30.0007 6.66817C30.3688 6.66817 30.6673 6.3697 30.6673 6.00151C30.6673 5.63332 30.3688 5.33484 30.0007 5.33484C29.6325 5.33484 29.334 5.63332 29.334 6.00151C29.334 6.3697 29.6325 6.66817 30.0007 6.66817Z" fill="#7383BF"/>
<path d="M33.9999 8.66597C34.3681 8.66597 34.6666 8.3675 34.6666 7.99931C34.6666 7.63112 34.3681 7.33264 33.9999 7.33264C33.6317 7.33264 33.3333 7.63112 33.3333 7.99931C33.3333 8.3675 33.6317 8.66597 33.9999 8.66597Z" fill="#7383BF"/>
<path d="M31.3344 8.66597C31.7026 8.66597 32.0011 8.3675 32.0011 7.99931C32.0011 7.63112 31.7026 7.33264 31.3344 7.33264C30.9662 7.33264 30.6677 7.63112 30.6677 7.99931C30.6677 8.3675 30.9662 8.66597 31.3344 8.66597Z" fill="#7383BF"/>
<path d="M27.3334 6.66817C27.7016 6.66817 28.0001 6.3697 28.0001 6.00151C28.0001 5.63332 27.7016 5.33484 27.3334 5.33484C26.9652 5.33484 26.6667 5.63332 26.6667 6.00151C26.6667 6.3697 26.9652 6.66817 27.3334 6.66817Z" fill="#7383BF"/>
<path d="M28.6672 8.66597C29.0353 8.66597 29.3338 8.3675 29.3338 7.99931C29.3338 7.63112 29.0353 7.33264 28.6672 7.33264C28.299 7.33264 28.0005 7.63112 28.0005 7.99931C28.0005 8.3675 28.299 8.66597 28.6672 8.66597Z" fill="#7383BF"/>
<path d="M24.6679 6.66817C25.0361 6.66817 25.3346 6.3697 25.3346 6.00151C25.3346 5.63332 25.0361 5.33484 24.6679 5.33484C24.2997 5.33484 24.0012 5.63332 24.0012 6.00151C24.0012 6.3697 24.2997 6.66817 24.6679 6.66817Z" fill="#7383BF"/>
<path d="M26.0014 8.66597C26.3696 8.66597 26.6681 8.3675 26.6681 7.99931C26.6681 7.63112 26.3696 7.33264 26.0014 7.33264C25.6332 7.33264 25.3347 7.63112 25.3347 7.99931C25.3347 8.3675 25.6332 8.66597 26.0014 8.66597Z" fill="#7383BF"/>
<path d="M22.0004 6.66817C22.3686 6.66817 22.6671 6.3697 22.6671 6.00151C22.6671 5.63332 22.3686 5.33484 22.0004 5.33484C21.6322 5.33484 21.3337 5.63332 21.3337 6.00151C21.3337 6.3697 21.6322 6.66817 22.0004 6.66817Z" fill="#7383BF"/>
<path d="M23.3341 8.66597C23.7023 8.66597 24.0008 8.3675 24.0008 7.99931C24.0008 7.63112 23.7023 7.33264 23.3341 7.33264C22.966 7.33264 22.6675 7.63112 22.6675 7.99931C22.6675 8.3675 22.966 8.66597 23.3341 8.66597Z" fill="#7383BF"/>
<path d="M6.33455 21.9993C7.62322 21.9993 8.66789 20.9546 8.66789 19.666C8.66789 18.3773 7.62322 17.3326 6.33455 17.3326C5.04589 17.3326 4.00122 18.3773 4.00122 19.666C4.00122 20.9546 5.04589 21.9993 6.33455 21.9993Z" fill="#7383BF"/>
<path d="M6.33455 34.6667C7.62322 34.6667 8.66789 33.622 8.66789 32.3333C8.66789 31.0447 7.62322 30 6.33455 30C5.04589 30 4.00122 31.0447 4.00122 32.3333C4.00122 33.622 5.04589 34.6667 6.33455 34.6667Z" fill="#7383BF"/>
<path d="M28.0005 32.4983C21.3732 32.4983 16.0005 30.5956 16.0005 28.2483V35.3316H16.0232C16.3885 37.5623 21.6105 39.3316 28.0005 39.3316C34.3905 39.3316 39.6125 37.5623 39.9778 35.3316H40.0005V28.2483C40.0005 30.5956 34.6278 32.4983 28.0005 32.4983Z" fill="#1A9172"/>
<path d="M16.0005 27.999V28.249C16.0005 28.165 16.0092 28.0817 16.0232 27.999H16.0005Z" fill="#1A9172"/>
<path d="M39.9775 27.999C39.9915 28.0817 40.0002 28.165 40.0002 28.249V27.999H39.9775Z" fill="#1A9172"/>
<path d="M28.0005 25.3319C21.3732 25.3319 16.0005 23.4292 16.0005 21.0819V28.4986H16.0232C16.3885 30.7292 21.6105 32.4986 28.0005 32.4986C34.3905 32.4986 39.6125 30.7292 39.9778 28.4986H40.0005V21.0819C40.0005 23.4292 34.6278 25.3319 28.0005 25.3319Z" fill="#25AE88"/>
<path d="M16.0005 20.8326V21.0826C16.0005 20.9986 16.0092 20.9153 16.0232 20.8326H16.0005Z" fill="#25AE88"/>
<path d="M39.9775 20.8326C39.9915 20.9153 40.0002 20.9986 40.0002 21.0826V20.8326H39.9775Z" fill="#25AE88"/>
<path d="M28.0007 18.5C34.6281 18.5 40.0007 16.5972 40.0007 14.25C40.0007 11.9028 34.6281 10 28.0007 10C21.3733 10 16.0007 11.9028 16.0007 14.25C16.0007 16.5972 21.3733 18.5 28.0007 18.5Z" fill="#88C057"/>
<path d="M28.0005 18.4978C21.3732 18.4978 16.0005 16.5951 16.0005 14.2478V21.3311H16.0232C16.3885 23.5618 21.6105 25.3311 28.0005 25.3311C34.3905 25.3311 39.6125 23.5618 39.9778 21.3311H40.0005V14.2478C40.0005 16.5951 34.6278 18.4978 28.0005 18.4978Z" fill="#61B872"/>
<path d="M16.0005 13.9985V14.2485C16.0005 14.1645 16.0092 14.0812 16.0232 13.9985H16.0005Z" fill="#61B872"/>
<path d="M39.9775 13.9985C39.9915 14.0812 40.0002 14.1645 40.0002 14.2485V13.9985H39.9775Z" fill="#61B872"/>
</g>
<defs>
<clipPath id="clip0_59_6015">
<rect width="40" height="40" fill="white"/>
</clipPath>
</defs>
</svg>
