<svg width="255" height="36" viewBox="0 0 255 36" fill="none" xmlns="http://www.w3.org/2000/svg">
<path d="M54.4007 7.54545V29H49.8647V7.54545H54.4007ZM62.5117 19.6974V29H58.049V12.9091H62.3022V15.748H62.4907C62.8469 14.8122 63.444 14.0719 64.2821 13.5272C65.1202 12.9754 66.1363 12.6996 67.3306 12.6996C68.448 12.6996 69.4222 12.944 70.2533 13.4329C71.0844 13.9218 71.7304 14.6201 72.1914 15.5281C72.6523 16.429 72.8828 17.5045 72.8828 18.7546V29H68.4201V19.5508C68.427 18.5661 68.1756 17.7978 67.6658 17.2461C67.156 16.6874 66.4541 16.408 65.5601 16.408C64.9595 16.408 64.4288 16.5372 63.9678 16.7956C63.5139 17.054 63.1577 17.4312 62.8993 17.927C62.6479 18.4159 62.5187 19.006 62.5117 19.6974ZM76.4 35.0341V12.9091H80.7999V15.6119H80.9989C81.1945 15.1789 81.4773 14.7389 81.8475 14.2919C82.2246 13.8379 82.7135 13.4608 83.3141 13.1605C83.9217 12.8532 84.676 12.6996 85.5769 12.6996C86.7502 12.6996 87.8327 13.0069 88.8244 13.6214C89.8161 14.229 90.6088 15.1474 91.2024 16.3766C91.796 17.5988 92.0929 19.1317 92.0929 20.9755C92.0929 22.7704 91.803 24.2859 91.2234 25.522C90.6507 26.7512 89.8685 27.6835 88.8768 28.3191C87.892 28.9476 86.7886 29.2619 85.5664 29.2619C84.7004 29.2619 83.9636 29.1187 83.356 28.8324C82.7554 28.546 82.263 28.1864 81.8789 27.7534C81.4948 27.3134 81.2015 26.8699 80.9989 26.4229H80.8627V35.0341H76.4ZM80.7685 20.9545C80.7685 21.9113 80.9012 22.7459 81.1665 23.4583C81.4319 24.1706 81.8161 24.7259 82.3189 25.1239C82.8217 25.515 83.4328 25.7106 84.1522 25.7106C84.8785 25.7106 85.4931 25.5115 85.9959 25.1135C86.4988 24.7084 86.8794 24.1497 87.1378 23.4373C87.4032 22.718 87.5359 21.8904 87.5359 20.9545C87.5359 20.0257 87.4067 19.2086 87.1483 18.5032C86.8899 17.7978 86.5092 17.2461 86.0064 16.848C85.5036 16.4499 84.8855 16.2509 84.1522 16.2509C83.4258 16.2509 82.8113 16.4429 82.3084 16.8271C81.8126 17.2112 81.4319 17.7559 81.1665 18.4613C80.9012 19.1667 80.7685 19.9978 80.7685 20.9545ZM105.387 22.1488V12.9091H109.849V29H105.565V26.0772H105.397C105.034 27.0201 104.43 27.7778 103.585 28.3505C102.747 28.9232 101.724 29.2095 100.515 29.2095C99.4399 29.2095 98.4936 28.9651 97.6765 28.4762C96.8594 27.9873 96.2203 27.2924 95.7594 26.3915C95.3055 25.4906 95.075 24.4116 95.068 23.1545V12.9091H99.5307V22.3583C99.5377 23.3081 99.7926 24.0589 100.295 24.6106C100.798 25.1623 101.472 25.4382 102.317 25.4382C102.855 25.4382 103.358 25.316 103.826 25.0716C104.294 24.8201 104.671 24.45 104.957 23.9611C105.251 23.4722 105.394 22.8681 105.387 22.1488ZM121.978 12.9091V16.2614H112.288V12.9091H121.978ZM114.488 9.05398H118.95V24.0554C118.95 24.4674 119.013 24.7887 119.139 25.0192C119.265 25.2427 119.439 25.3998 119.663 25.4906C119.893 25.5814 120.159 25.6268 120.459 25.6268C120.668 25.6268 120.878 25.6093 121.087 25.5744C121.297 25.5325 121.458 25.5011 121.569 25.4801L122.271 28.801C122.048 28.8708 121.733 28.9511 121.328 29.0419C120.923 29.1397 120.431 29.199 119.851 29.22C118.776 29.2619 117.833 29.1187 117.023 28.7905C116.22 28.4622 115.595 27.9524 115.148 27.261C114.701 26.5696 114.481 25.6966 114.488 24.642V9.05398ZM131.796 29V7.54545H140.261C141.888 7.54545 143.274 7.85624 144.42 8.47781C145.565 9.09239 146.438 9.94792 147.039 11.0444C147.646 12.1339 147.95 13.391 147.95 14.8157C147.95 16.2404 147.643 17.4975 147.028 18.587C146.414 19.6765 145.523 20.525 144.357 21.1326C143.198 21.7402 141.794 22.044 140.146 22.044H134.751V18.4089H139.412C140.285 18.4089 141.005 18.2588 141.57 17.9585C142.143 17.6512 142.569 17.2286 142.848 16.6909C143.135 16.1461 143.278 15.5211 143.278 14.8157C143.278 14.1033 143.135 13.4818 142.848 12.951C142.569 12.4132 142.143 11.9977 141.57 11.7044C140.998 11.4041 140.271 11.2539 139.391 11.2539H136.332V29H131.796ZM157.886 29.3143C156.231 29.3143 154.807 28.979 153.612 28.3086C152.425 27.6312 151.51 26.6744 150.868 25.4382C150.225 24.1951 149.904 22.725 149.904 21.0279C149.904 19.3727 150.225 17.92 150.868 16.6699C151.51 15.4198 152.415 14.4455 153.581 13.7472C154.754 13.0488 156.13 12.6996 157.708 12.6996C158.77 12.6996 159.758 12.8707 160.673 13.2129C161.595 13.5481 162.398 14.0545 163.082 14.7319C163.774 15.4093 164.312 16.2614 164.696 17.288C165.08 18.3076 165.272 19.5019 165.272 20.8707V22.0964H151.685V19.3308H161.071C161.071 18.6883 160.931 18.1191 160.652 17.6232C160.373 17.1274 159.985 16.7398 159.489 16.4604C159 16.1741 158.431 16.0309 157.782 16.0309C157.104 16.0309 156.504 16.188 155.98 16.5023C155.463 16.8096 155.058 17.2251 154.765 17.7489C154.471 18.2657 154.321 18.8419 154.314 19.4774V22.1069C154.314 22.9031 154.461 23.591 154.754 24.1706C155.054 24.7503 155.477 25.1973 156.022 25.5115C156.566 25.8258 157.213 25.983 157.96 25.983C158.456 25.983 158.91 25.9131 159.322 25.7734C159.734 25.6338 160.086 25.4242 160.38 25.1449C160.673 24.8655 160.897 24.5233 161.05 24.1183L165.178 24.3906C164.968 25.3823 164.539 26.2483 163.889 26.9886C163.247 27.7219 162.416 28.2946 161.396 28.7067C160.383 29.1117 159.213 29.3143 157.886 29.3143ZM172.647 19.6974V29H168.184V12.9091H172.437V15.748H172.626C172.982 14.8122 173.579 14.0719 174.417 13.5272C175.255 12.9754 176.272 12.6996 177.466 12.6996C178.583 12.6996 179.557 12.944 180.389 13.4329C181.22 13.9218 181.866 14.6201 182.327 15.5281C182.788 16.429 183.018 17.5045 183.018 18.7546V29H178.555V19.5508C178.562 18.5661 178.311 17.7978 177.801 17.2461C177.291 16.6874 176.589 16.408 175.695 16.408C175.095 16.408 174.564 16.5372 174.103 16.7956C173.649 17.054 173.293 17.4312 173.035 17.927C172.783 18.4159 172.654 19.006 172.647 19.6974ZM188.714 35.0341C188.149 35.0341 187.618 34.9887 187.122 34.8979C186.633 34.8141 186.228 34.7058 185.907 34.5732L186.912 31.2418C187.436 31.4025 187.908 31.4898 188.327 31.5037C188.753 31.5177 189.119 31.4199 189.427 31.2104C189.741 31.0009 189.996 30.6447 190.191 30.1419L190.453 29.4609L184.681 12.9091H189.374L192.706 24.7259H192.873L196.236 12.9091H200.961L194.706 30.739C194.406 31.605 193.998 32.3593 193.481 33.0018C192.971 33.6513 192.325 34.1506 191.543 34.4998C190.761 34.856 189.818 35.0341 188.714 35.0341ZM207.401 29.3038C206.374 29.3038 205.459 29.1257 204.656 28.7695C203.853 28.4064 203.217 27.8721 202.749 27.1667C202.288 26.4544 202.058 25.5674 202.058 24.5059C202.058 23.6119 202.222 22.8612 202.55 22.2536C202.878 21.646 203.325 21.1571 203.891 20.7869C204.457 20.4168 205.099 20.1374 205.819 19.9489C206.545 19.7603 207.306 19.6276 208.102 19.5508C209.038 19.453 209.793 19.3622 210.365 19.2784C210.938 19.1876 211.353 19.0549 211.612 18.8803C211.87 18.7057 211.999 18.4473 211.999 18.1051V18.0423C211.999 17.3788 211.79 16.8655 211.371 16.5023C210.959 16.1391 210.372 15.9576 209.611 15.9576C208.808 15.9576 208.169 16.1357 207.694 16.4918C207.219 16.841 206.905 17.281 206.751 17.8118L202.624 17.4766C202.833 16.4988 203.245 15.6538 203.86 14.9414C204.474 14.2221 205.267 13.6703 206.238 13.2862C207.215 12.8951 208.347 12.6996 209.632 12.6996C210.526 12.6996 211.381 12.8043 212.199 13.0138C213.023 13.2234 213.752 13.5481 214.388 13.9881C215.03 14.4281 215.537 14.9938 215.907 15.6852C216.277 16.3696 216.462 17.1902 216.462 18.147V29H212.23V26.7686H212.104C211.846 27.2715 211.5 27.715 211.067 28.0991C210.634 28.4762 210.114 28.773 209.506 28.9895C208.899 29.199 208.197 29.3038 207.401 29.3038ZM208.679 26.2239C209.335 26.2239 209.915 26.0947 210.418 25.8363C210.92 25.5709 211.315 25.2147 211.601 24.7678C211.888 24.3208 212.031 23.8145 212.031 23.2488V21.5412C211.891 21.632 211.699 21.7158 211.455 21.7926C211.217 21.8625 210.948 21.9288 210.648 21.9917C210.348 22.0475 210.047 22.0999 209.747 22.1488C209.447 22.1907 209.174 22.2291 208.93 22.264C208.406 22.3408 207.949 22.4631 207.558 22.6307C207.167 22.7983 206.863 23.0253 206.646 23.3116C206.43 23.591 206.322 23.9402 206.322 24.3592C206.322 24.9668 206.542 25.4312 206.982 25.7525C207.429 26.0668 207.994 26.2239 208.679 26.2239ZM223.968 24.3697L223.979 19.0165H224.628L229.782 12.9091H234.905L227.98 20.9964H226.922L223.968 24.3697ZM219.924 29V7.54545H224.387V29H219.924ZM229.981 29L225.246 21.9917L228.221 18.8384L235.209 29H229.981ZM237.094 29V12.9091H241.557V29H237.094ZM239.336 10.8349C238.673 10.8349 238.104 10.6149 237.629 10.1749C237.161 9.72792 236.927 9.19365 236.927 8.57209C236.927 7.9575 237.161 7.43022 237.629 6.99023C238.104 6.54326 238.673 6.31978 239.336 6.31978C240 6.31978 240.565 6.54326 241.033 6.99023C241.508 7.43022 241.746 7.9575 241.746 8.57209C241.746 9.19365 241.508 9.72792 241.033 10.1749C240.565 10.6149 240 10.8349 239.336 10.8349ZM253.691 12.9091V16.2614H244.001V12.9091H253.691ZM246.201 9.05398H250.663V24.0554C250.663 24.4674 250.726 24.7887 250.852 25.0192C250.977 25.2427 251.152 25.3998 251.376 25.4906C251.606 25.5814 251.871 25.6268 252.172 25.6268C252.381 25.6268 252.591 25.6093 252.8 25.5744C253.01 25.5325 253.17 25.5011 253.282 25.4801L253.984 28.801C253.761 28.8708 253.446 28.9511 253.041 29.0419C252.636 29.1397 252.144 29.199 251.564 29.22C250.489 29.2619 249.546 29.1187 248.736 28.7905C247.933 28.4622 247.307 27.9524 246.86 27.261C246.414 26.5696 246.194 25.6966 246.201 24.642V9.05398Z" fill="#686864"/>
<path d="M29 5H3C1.9 5 1 5.9 1 7V33C1 34.1 1.9 35 3 35H29C30.1 35 31 34.1 31 33V7C31 5.9 30.1 5 29 5Z" fill="#427687"/>
<path d="M27.425 5H2.875C1.85 5 1 5.85 1 6.875V31.35C1 32.4 1.85 33.225 2.875 33.225H27.4C28.45 33.225 29.275 32.375 29.275 31.35V6.875C29.325 5.85 28.45 5 27.425 5V5Z" fill="#8CAFBF"/>
<path d="M27.425 5H2.875C1.85 5 1 5.85 1 6.875V31.35C1 32.4 1.85 33.225 2.875 33.225H27.4C28.45 33.225 29.275 32.375 29.275 31.35V6.875C29.325 5.85 28.45 5 27.425 5V5Z" fill="#8CAFBF"/>
<path opacity="0.5" d="M9.92515 7.22509C9.92515 6.65009 9.52515 6.47509 7.22515 6.55009C5.30015 6.62509 4.35015 6.85009 3.77515 7.55009C3.20015 8.25009 3.05015 9.67509 3.02515 11.3751C3.02515 12.5751 3.02515 13.7001 3.65015 13.7001C4.50015 13.7001 4.50015 11.7251 5.20015 10.6251C6.55015 8.45009 9.92515 7.97509 9.92515 7.22509V7.22509Z" fill="#B4E1ED"/>
<path d="M3.73021 23.4888C3.22521 23.0263 2.97021 22.4213 2.97021 21.6713C2.97021 21.1738 3.10271 20.7363 3.36521 20.3563C3.62771 19.9763 3.98771 19.6838 4.44521 19.4813C4.90271 19.2763 5.40771 19.1738 5.96271 19.1738C6.73271 19.1738 7.38771 19.2863 7.93271 19.5088V19.1888C7.93271 18.7813 7.78021 18.4488 7.47271 18.1963C7.16521 17.9438 6.75521 17.8163 6.24021 17.8163C5.89021 17.8163 5.55271 17.8963 5.22521 18.0563C4.89771 18.2163 4.62771 18.4288 4.41521 18.6913L3.18771 17.7288C3.54771 17.2613 4.00021 16.9013 4.54521 16.6488C5.09021 16.3963 5.68521 16.2688 6.32521 16.2688C7.46521 16.2688 8.33021 16.5313 8.92521 17.0563C9.51771 17.5813 9.81521 18.3513 9.81521 19.3638V23.9488H7.93271V23.1888H7.81522C7.59022 23.4813 7.29771 23.7188 6.93271 23.9038C6.56771 24.0888 6.14771 24.1813 5.67021 24.1813C4.88271 24.1838 4.23771 23.9513 3.73021 23.4888V23.4888ZM7.44522 22.1613C7.77022 21.8063 7.93521 21.3913 7.93521 20.9138C7.43771 20.6813 6.91771 20.5638 6.37271 20.5638C5.38021 20.5638 4.88271 20.9338 4.88271 21.6738C4.88271 21.9763 4.99021 22.2213 5.20271 22.4113C5.41771 22.6013 5.72271 22.6963 6.12271 22.6963C6.68021 22.6938 7.12022 22.5163 7.44522 22.1613Z" fill="#FAFAFA"/>
<path d="M14.3795 23.8622C13.9845 23.6472 13.692 23.3797 13.497 23.0597H13.3795V23.9497H11.5845V13.4972H13.497V16.3597L13.3795 17.4097H13.497C13.702 17.0897 13.997 16.8197 14.387 16.5997C14.777 16.3797 15.2245 16.2722 15.7295 16.2722C16.402 16.2722 17.012 16.4397 17.562 16.7747C18.112 17.1097 18.542 17.5797 18.8545 18.1847C19.167 18.7872 19.322 19.4697 19.322 20.2297C19.322 20.9997 19.167 21.6822 18.8545 22.2822C18.542 22.8822 18.112 23.3472 17.562 23.6847C17.012 24.0197 16.402 24.1872 15.7295 24.1872C15.2245 24.1847 14.7745 24.0772 14.3795 23.8622ZM16.402 22.1397C16.7145 21.9547 16.962 21.6972 17.147 21.3672C17.332 21.0372 17.4245 20.6572 17.4245 20.2272C17.4245 19.7997 17.332 19.4197 17.147 19.0897C16.962 18.7597 16.7145 18.5047 16.402 18.3222C16.0963 18.1439 15.7484 18.0507 15.3945 18.0522C15.0445 18.0522 14.712 18.1422 14.402 18.3222C14.0895 18.5022 13.842 18.7572 13.657 19.0897C13.472 19.4197 13.3795 19.7997 13.3795 20.2272C13.3795 20.6547 13.472 21.0347 13.657 21.3672C13.842 21.6972 14.0895 21.9572 14.402 22.1397C14.7145 22.3247 15.0445 22.4172 15.3945 22.4172C15.7545 22.4172 16.0895 22.3247 16.402 22.1397Z" fill="#FAFAFA"/>
<path d="M22.2859 23.6813C21.6909 23.3463 21.2284 22.8763 20.8909 22.2713C20.5559 21.6688 20.3884 20.9863 20.3884 20.2263C20.3884 19.4663 20.5559 18.7888 20.8909 18.1888C21.2259 17.5913 21.6909 17.1213 22.2859 16.7788C22.8784 16.4388 23.5509 16.2688 24.3009 16.2688C25.1284 16.2688 25.8384 16.4463 26.4334 16.8013C27.0284 17.1563 27.4559 17.6613 27.7184 18.3113L25.9659 19.0413C25.6534 18.3788 25.0984 18.0488 24.3009 18.0488C23.7159 18.0488 23.2384 18.2488 22.8634 18.6463C22.4884 19.0463 22.3009 19.5713 22.3009 20.2238C22.3009 20.8863 22.4884 21.4163 22.8634 21.8163C23.2384 22.2163 23.7184 22.4138 24.3009 22.4138C25.1084 22.4138 25.6934 22.0638 26.0534 21.3638L27.7909 22.1238C27.4684 22.7763 27.0109 23.2813 26.4184 23.6413C25.8234 24.0013 25.1184 24.1813 24.3009 24.1813C23.5509 24.1863 22.8809 24.0188 22.2859 23.6813V23.6813Z" fill="#FAFAFA"/>
</svg>
