<svg width="107" height="107" viewBox="0 0 107 107" fill="none" xmlns="http://www.w3.org/2000/svg">
<g clip-path="url(#clip0_85_462)">
<path d="M71.2001 24.7C71.2001 23.982 70.618 23.4 69.9002 23.4H17.9C17.1821 23.4 16.6001 23.9821 16.6001 24.7V89.7C16.6001 90.418 17.1822 91 17.9 91H60.8001L71.2001 80.5999V24.7Z" fill="#EBEBEC"/>
<path d="M20.5001 89.7V24.7C20.5001 23.982 21.0822 23.4 21.8 23.4H17.9C17.1821 23.4 16.6001 23.9821 16.6001 24.7V89.7C16.6001 90.418 17.1822 91 17.9 91H21.8C21.0821 91 20.5001 90.4179 20.5001 89.7Z" fill="#D7D8D9"/>
<path d="M71.2007 80.5999H62.1007C61.3827 80.5999 60.8008 81.182 60.8008 81.8999V91L71.2007 80.5999Z" fill="#D7D8D9"/>
<path d="M59.5 64.9999H43.9C43.1821 64.9999 42.6001 64.4178 42.6001 63.7C42.6001 62.9821 43.1822 62.4 43.9 62.4H59.5C60.218 62.4 60.8 62.9821 60.8 63.7C60.8 64.4178 60.2179 64.9999 59.5 64.9999Z" fill="#AFB0B4"/>
<path d="M59.5 70.2001H43.9C43.1821 70.2001 42.6001 69.6179 42.6001 68.9001C42.6001 68.1823 43.1822 67.6002 43.9 67.6002H59.5C60.218 67.6002 60.8 68.1823 60.8 68.9001C60.8 69.6179 60.2179 70.2001 59.5 70.2001Z" fill="#AFB0B4"/>
<path d="M59.5 75.4H43.9C43.1821 75.4 42.6001 74.8179 42.6001 74.1001C42.6001 73.3822 43.1822 72.8001 43.9 72.8001H59.5C60.218 72.8001 60.8 73.3822 60.8 74.1001C60.8 74.8179 60.2179 75.4 59.5 75.4Z" fill="#AFB0B4"/>
<path d="M36.0998 67.6H30.8998C30.1831 67.6 29.5999 67.0168 29.5999 66.3V63.7C29.5999 62.9832 30.1831 62.4 30.8998 62.4H38.6998C39.4178 62.4 39.9998 61.8179 39.9998 61.1001C39.9998 60.3821 39.4177 59.8001 38.6998 59.8001H34.7998V58.5002C34.7998 57.7822 34.2177 57.2002 33.4999 57.2002C32.7819 57.2002 32.1999 57.7823 32.1999 58.5002V59.8001H30.9C28.7497 59.8001 27 61.5496 27 63.7001V66.3002C27 68.4507 28.7497 70.2002 30.9 70.2002H36.0999C36.8167 70.2002 37.3999 70.7833 37.3999 71.5001V74.1002C37.3999 74.8169 36.8167 75.4001 36.0999 75.4001H28.2999C27.582 75.4001 27 75.9822 27 76.7001C27 77.4179 27.5821 78 28.2999 78H32.1999V79.3C32.1999 80.018 32.7821 80.5999 33.4999 80.5999C34.2179 80.5999 34.7998 80.0178 34.7998 79.3V78H36.0998C38.2501 78 39.9998 76.2505 39.9998 74.1V71.5C39.9998 69.3495 38.2501 67.6 36.0998 67.6Z" fill="#FDD042"/>
<path d="M58.1997 32.5H29.5998C28.8818 32.5 28.2998 33.0821 28.2998 33.8V53.2999C28.2998 54.0179 28.8819 54.5999 29.5998 54.5999H58.1997C58.9177 54.5999 59.4996 54.0178 59.4996 53.2999V33.8C59.4998 33.0821 58.9177 32.5 58.1997 32.5Z" fill="#FDDD85"/>
<path d="M41.2998 32.5H29.5998C28.8818 32.5 28.2998 33.0821 28.2998 33.8V53.2999C28.2998 54.0179 28.8819 54.5999 29.5998 54.5999H41.2998C42.0177 54.5999 42.5997 54.0178 42.5997 53.2999V33.8C42.5997 33.0821 42.0177 32.5 41.2998 32.5Z" fill="#FDD042"/>
<path d="M54.3001 40.3H46.5001C45.7821 40.3 45.2002 39.7179 45.2002 39C45.2002 38.282 45.7823 37.7001 46.5001 37.7001H54.3001C55.0181 37.7001 55.6001 38.2822 55.6001 39C55.6002 39.7179 55.0181 40.3 54.3001 40.3Z" fill="#9B9DA1"/>
<path d="M46.4999 48.1C45.9615 48.1 45.4667 47.7549 45.2807 47.2502C45.0955 46.7476 45.2448 46.1582 45.6553 45.8112C46.0802 45.452 46.7033 45.4011 47.1788 45.6919C47.6375 45.9727 47.8806 46.5264 47.7746 47.0543C47.6542 47.6544 47.1131 48.1 46.4999 48.1Z" fill="#606268"/>
<path d="M50.4001 48.1C49.8623 48.1 49.366 47.7548 49.1808 47.2499C48.9963 46.7472 49.1448 46.1584 49.5557 45.8112C49.9806 45.452 50.6037 45.4011 51.0791 45.6919C51.538 45.9727 51.7808 46.5258 51.6743 47.0535C51.5531 47.6539 51.0145 48.1 50.4001 48.1Z" fill="#606268"/>
<path d="M54.3 48.1C53.7624 48.1 53.2659 47.7546 53.0807 47.2499C52.8962 46.7472 53.0447 46.1584 53.4556 45.8112C53.8805 45.452 54.5036 45.4011 54.979 45.6919C55.4379 45.9727 55.6807 46.5258 55.5742 47.0535C55.453 47.6539 54.9144 48.1 54.3 48.1Z" fill="#606268"/>
<path d="M33.5003 48.1C32.9627 48.1 32.4662 47.7546 32.2809 47.2499C32.0963 46.747 32.245 46.1588 32.6558 45.8119C33.081 45.4527 33.7031 45.4004 34.1793 45.692C34.638 45.9728 34.881 46.526 34.7745 47.0537C34.6532 47.6536 34.1144 48.1 33.5003 48.1Z" fill="#606268"/>
<path d="M37.3997 48.1C36.8619 48.1 36.3656 47.7548 36.1803 47.2499C35.9957 46.747 36.1444 46.1588 36.5553 45.812C36.9805 45.4527 37.6025 45.4005 38.0787 45.6921C38.5376 45.9728 38.7804 46.526 38.6739 47.0537C38.5526 47.6539 38.0141 48.1 37.3997 48.1Z" fill="#606268"/>
<path d="M38.7002 32.5H32.2002V41.5999C32.2002 42.3179 32.7823 42.8999 33.5001 42.8999H37.4001C38.1181 42.8999 38.7001 42.3178 38.7001 41.5999V32.5H38.7002Z" fill="#E1A527"/>
<path d="M55.6003 18.1999H52.1226C50.6301 15.055 47.4341 13 43.9003 13C40.3666 13 37.1706 15.055 35.678 18.1999H32.2003C31.4823 18.1999 30.9004 18.7821 30.9004 19.4999V28.6C30.9004 29.318 31.4825 29.9 32.2003 29.9H55.6003C56.3183 29.9 56.9003 29.3178 56.9003 28.6V19.5001C56.9003 18.7821 56.3182 18.1999 55.6003 18.1999ZM43.9003 18.1999C45.3339 18.1999 46.5004 19.3664 46.5004 20.8C46.5004 22.2336 45.3339 23.4001 43.9003 23.4001C42.4668 23.4001 41.3003 22.2336 41.3003 20.8C41.3003 19.3664 42.4668 18.1999 43.9003 18.1999Z" fill="#E5563C"/>
<path d="M34.1503 27.3001C33.7914 27.3001 33.5003 27.0091 33.5003 26.65V18.2H32.2003C31.4823 18.2 30.9004 18.7821 30.9004 19.4999V28.6C30.9004 29.318 31.4825 29.9 32.2003 29.9H55.6003C56.3183 29.9 56.9003 29.3178 56.9003 28.6V27.3001H34.1503Z" fill="#CF442B"/>
<path d="M79.0001 33.7999C78.2821 33.7999 77.7002 33.2178 77.7002 32.5V24.7C77.7002 23.982 78.2823 23.4 79.0001 23.4C79.718 23.4 80.3001 23.9821 80.3001 24.7V32.5C80.3001 33.218 79.718 33.7999 79.0001 33.7999Z" fill="#4C4E55"/>
<path d="M84.0151 38.3311L80.1151 31.8311C79.6189 31.0048 78.3816 31.0048 77.8854 31.8311L73.9854 38.3311C73.4746 39.1827 74.1099 40.3 75.1002 40.3H82.9002C83.8906 40.3 84.5261 39.183 84.0151 38.3311Z" fill="#FDD042"/>
<path d="M76.581 38.3311L80.2981 32.1359L80.1151 31.8311C79.6192 31.0048 78.3816 31.0048 77.8854 31.8311L73.9854 38.3311C73.4746 39.1827 74.1099 40.3 75.1002 40.3H77.6957C76.7053 40.3 76.0704 39.1829 76.581 38.3311Z" fill="#F2C127"/>
<path d="M82.8998 37.7H75.0998C74.3818 37.7 73.7998 38.2821 73.7998 38.9999V87.1C73.7998 89.2505 75.5495 91 77.6998 91H80.2997C82.45 91 84.1997 89.2505 84.1997 87.1V39.0001C84.1997 38.2821 83.6176 37.7 82.8998 37.7Z" fill="#D7D8D9"/>
<path d="M85.4998 85.8H84.1998C83.4819 85.8 82.8999 85.2179 82.8999 84.5001C82.8999 83.7821 83.482 83.2001 84.1998 83.2001H85.4998C86.2166 83.2001 86.7997 82.617 86.7997 81.9002V66.3002C86.7997 65.5822 87.3819 65.0002 88.0997 65.0002C88.8175 65.0002 89.3996 65.5824 89.3996 66.3002V81.9002C89.3998 84.0504 87.6503 85.8 85.4998 85.8Z" fill="#4C4E55"/>
<path d="M73.7998 68.8459V87.1C73.7998 89.2505 75.5495 91 77.6998 91H80.2999C82.4502 91 84.1999 89.2505 84.1999 87.1V68.8459H73.7998Z" fill="#E5563C"/>
<path d="M76.3999 87.1V39C76.3999 38.282 76.982 37.7001 77.6998 37.7001H75.0998C74.3818 37.7001 73.7998 38.2822 73.7998 39V87.1C73.7998 89.2505 75.5495 91 77.6998 91H80.2999C78.1495 91 76.3999 89.2505 76.3999 87.1Z" fill="#C3C4C6"/>
<path d="M76.3999 87.1V68.8459H73.7998V87.1C73.7998 89.2505 75.5495 91 77.6998 91H80.2999C78.1495 91 76.3999 89.2505 76.3999 87.1Z" fill="#CF442B"/>
<path d="M79.0001 63.7C78.2821 63.7 77.7002 63.1179 77.7002 62.4V55.9C77.7002 55.182 78.2823 54.6 79.0001 54.6C79.718 54.6 80.3001 55.1821 80.3001 55.9V62.4C80.3001 63.1179 79.718 63.7 79.0001 63.7Z" fill="#74757B"/>
<path d="M79.0002 45.5C78.4626 45.5 77.9661 45.1546 77.7809 44.6499C77.5964 44.1471 77.7449 43.5583 78.1558 43.2111C78.5807 42.8519 79.2038 42.801 79.6792 43.0919C80.1379 43.3726 80.3809 43.9258 80.2744 44.4535C80.1532 45.0536 79.6145 45.5 79.0002 45.5Z" fill="#74757B"/>
<path d="M79.0002 49.3999C78.4624 49.3999 77.9661 49.0547 77.7809 48.5499C77.5964 48.0471 77.7449 47.4583 78.1558 47.1111C78.5807 46.7519 79.2038 46.701 79.6792 46.9919C80.1379 47.2726 80.3809 47.8258 80.2744 48.3535C80.1532 48.9537 79.6145 49.3999 79.0002 49.3999Z" fill="#74757B"/>
<path d="M79.0003 53.3C78.4625 53.3 77.9662 52.9548 77.7809 52.4499C77.5963 51.947 77.745 51.3588 78.1558 51.0119C78.5809 50.6528 79.2032 50.6001 79.6793 50.892C80.138 51.1731 80.381 51.7258 80.2745 52.2537C80.1532 52.8538 79.6145 53.3 79.0003 53.3Z" fill="#74757B"/>
</g>
<defs>
<clipPath id="clip0_85_462">
<rect width="78" height="78" fill="white" transform="translate(14 13)"/>
</clipPath>
</defs>
</svg>
