<svg width="107" height="107" viewBox="0 0 107 107" fill="none" xmlns="http://www.w3.org/2000/svg">
<path d="M19.6736 53.8927C21.453 53.8927 22.8955 52.4502 22.8955 50.6708C22.8955 48.8914 21.453 47.4489 19.6736 47.4489C17.8942 47.4489 16.4517 48.8914 16.4517 50.6708C16.4517 52.4502 17.8942 53.8927 19.6736 53.8927Z" fill="#A8CBEB"/>
<path d="M77.6677 30.2654C79.4471 30.2654 80.8896 28.8229 80.8896 27.0435C80.8896 25.264 79.4471 23.8215 77.6677 23.8215C75.8883 23.8215 74.4458 25.264 74.4458 27.0435C74.4458 28.8229 75.8883 30.2654 77.6677 30.2654Z" fill="#A8CBEB"/>
<path d="M58.3362 46.3749C60.1156 46.3749 61.5581 44.9324 61.5581 43.153C61.5581 41.3736 60.1156 39.9311 58.3362 39.9311C56.5568 39.9311 55.1143 41.3736 55.1143 43.153C55.1143 44.9324 56.5568 46.3749 58.3362 46.3749Z" fill="#A8CBEB"/>
<path d="M36.2189 37.2999C35.9093 36.8 35.7465 36.2232 35.7491 35.6352C35.746 34.8545 36.0259 34.0992 36.537 33.509C37.048 32.9189 37.7556 32.5339 38.5287 32.4253C39.3018 32.3167 40.088 32.492 40.7419 32.9186C41.3957 33.3451 41.8728 33.9942 42.0849 34.7455C42.297 35.4968 42.2296 36.2996 41.8953 37.0051C41.561 37.7106 40.9824 38.271 40.2667 38.5827C39.5509 38.8944 38.7464 38.9362 38.0022 38.7003C37.258 38.4645 36.6245 37.9669 36.2189 37.2999Z" fill="#A8CBEB"/>
<path d="M83.5749 39.9311V75.3722H71.7612V39.9311C71.7612 39.3614 71.9875 38.8151 72.3904 38.4123C72.7932 38.0094 73.3395 37.7831 73.9092 37.7831H81.427C81.9967 37.7831 82.543 38.0094 82.9458 38.4123C83.3486 38.8151 83.5749 39.3614 83.5749 39.9311Z" fill="#EA9080"/>
<path d="M44.9118 48.5229V75.3722H33.0981V48.5229C33.0981 48.2408 33.1537 47.9615 33.2616 47.7009C33.3696 47.4403 33.5278 47.2035 33.7273 47.0041C33.9267 46.8046 34.1635 46.6464 34.4241 46.5384C34.6847 46.4305 34.964 46.3749 35.2461 46.3749H42.7639C43.3336 46.3749 43.8799 46.6012 44.2827 47.0041C44.6855 47.4069 44.9118 47.9532 44.9118 48.5229Z" fill="#7BD489"/>
<path d="M13.7661 75.3722V63.5585C13.7661 63.2764 13.8217 62.9971 13.9296 62.7365C14.0376 62.4759 14.1958 62.2391 14.3952 62.0397C14.5947 61.8402 14.8315 61.682 15.0921 61.5741C15.3527 61.4661 15.632 61.4106 15.9141 61.4106H23.4319C23.7139 61.4106 23.9932 61.4661 24.2538 61.5741C24.5145 61.682 24.7512 61.8402 24.9507 62.0397C25.1501 62.2391 25.3084 62.4759 25.4163 62.7365C25.5243 62.9971 25.5798 63.2764 25.5798 63.5585V75.3722" stroke="#515F76" stroke-width="1.61096" stroke-miterlimit="10"/>
<path d="M52.4297 75.3722V56.0406C52.4297 55.7586 52.4852 55.4793 52.5932 55.2187C52.7011 54.9581 52.8593 54.7213 53.0588 54.5218C53.2583 54.3224 53.495 54.1641 53.7556 54.0562C54.0162 53.9483 54.2956 53.8927 54.5776 53.8927H62.0954C62.6651 53.8927 63.2115 54.119 63.6143 54.5218C64.0171 54.9246 64.2434 55.471 64.2434 56.0406V75.3722" fill="white"/>
<path d="M52.4297 75.3722V56.0406C52.4297 55.7586 52.4852 55.4793 52.5932 55.2187C52.7011 54.9581 52.8593 54.7213 53.0588 54.5218C53.2583 54.3224 53.495 54.1641 53.7556 54.0562C54.0162 53.9483 54.2956 53.8927 54.5776 53.8927H62.0954C62.6651 53.8927 63.2115 54.119 63.6143 54.5218C64.0171 54.9246 64.2434 55.471 64.2434 56.0406V75.3722" stroke="#515F76" stroke-width="1.61096" stroke-miterlimit="10"/>
<path d="M42.2265 35.6352C42.2367 36.3476 42.0105 37.0433 41.5832 37.6135C41.156 38.1837 40.5518 38.5961 39.8652 38.7864C39.1786 38.9766 38.4483 38.9339 37.7886 38.665C37.1288 38.396 36.5768 37.9159 36.2189 37.2999C35.9093 36.8 35.7465 36.2232 35.7491 35.6352C35.7491 34.7763 36.0903 33.9525 36.6976 33.3451C37.305 32.7377 38.1288 32.3965 38.9878 32.3965C39.8467 32.3965 40.6705 32.7377 41.2779 33.3451C41.8852 33.9525 42.2265 34.7763 42.2265 35.6352Z" stroke="#515F76" stroke-width="1.61096" stroke-miterlimit="10" stroke-linecap="round"/>
<path d="M77.6677 30.2654C79.4471 30.2654 80.8896 28.8229 80.8896 27.0435C80.8896 25.264 79.4471 23.8215 77.6677 23.8215C75.8883 23.8215 74.4458 25.264 74.4458 27.0435C74.4458 28.8229 75.8883 30.2654 77.6677 30.2654Z" stroke="#515F76" stroke-width="1.61096" stroke-miterlimit="10" stroke-linecap="round"/>
<path d="M58.3362 46.3749C60.1156 46.3749 61.5581 44.9324 61.5581 43.153C61.5581 41.3736 60.1156 39.9311 58.3362 39.9311C56.5568 39.9311 55.1143 41.3736 55.1143 43.153C55.1143 44.9324 56.5568 46.3749 58.3362 46.3749Z" stroke="#515F76" stroke-width="1.61096" stroke-miterlimit="10" stroke-linecap="round"/>
<path d="M19.6736 53.8927C21.453 53.8927 22.8955 52.4502 22.8955 50.6708C22.8955 48.8914 21.453 47.4489 19.6736 47.4489C17.8942 47.4489 16.4517 48.8914 16.4517 50.6708C16.4517 52.4502 17.8942 53.8927 19.6736 53.8927Z" stroke="#515F76" stroke-width="1.61096" stroke-miterlimit="10" stroke-linecap="round"/>
<path d="M22.459 48.5229L36.2461 37.2931L36.3199 37.2394" stroke="#515F76" stroke-width="1.61096" stroke-miterlimit="10"/>
<path d="M42.2266 36.7091L55.1142 41.985" stroke="#515F76" stroke-width="1.61096" stroke-miterlimit="10"/>
<path d="M61.1821 41.4481L74.9357 29.3994" stroke="#515F76" stroke-width="1.61096" stroke-miterlimit="10"/>
<path opacity="0.8" d="M81.4268 37.8301H73.909C73.2811 37.8319 72.6795 38.0821 72.2355 38.5261C71.7915 38.97 71.5413 39.5717 71.5396 40.1996V75.3654L73.1505 75.4124L73.3921 42.2602C73.3932 41.8803 73.5285 41.5129 73.7741 41.223C74.0198 40.9332 74.36 40.7395 74.7346 40.6761L83.4606 39.9244C83.4716 39.6515 83.4269 39.3793 83.3294 39.1242C83.2318 38.8692 83.0834 38.6367 82.8931 38.4408C82.7029 38.2449 82.4748 38.0897 82.2227 37.9847C81.9707 37.8798 81.6999 37.8272 81.4268 37.8301Z" fill="#EEB8A9"/>
<path d="M71.7612 75.3722V39.9311C71.7612 39.3614 71.9875 38.8151 72.3904 38.4123C72.7932 38.0094 73.3395 37.7831 73.9092 37.7831H81.427C81.9967 37.7831 82.543 38.0094 82.9458 38.4123C83.3486 38.8151 83.5749 39.3614 83.5749 39.9311V75.3722" stroke="#515F76" stroke-width="1.61096" stroke-miterlimit="10"/>
<path opacity="0.8" d="M42.7635 46.422H35.2457C34.6581 46.3953 34.0827 46.5958 33.639 46.982C33.1954 47.3682 32.9174 47.9104 32.8628 48.4961V75.4192H34.4939V51.2951C34.4939 50.869 34.6627 50.4603 34.9634 50.1584C35.264 49.8565 35.672 49.6859 36.0981 49.6842L44.8242 48.5431C44.8194 47.9924 44.6026 47.4647 44.2188 47.0696C43.835 46.6746 43.3138 46.4427 42.7635 46.422Z" fill="#A4E0B3"/>
<path d="M33.0981 75.3722V48.5229C33.0981 48.2408 33.1537 47.9615 33.2616 47.7009C33.3696 47.4403 33.5278 47.2035 33.7273 47.0041C33.9267 46.8046 34.1635 46.6464 34.4241 46.5384C34.6847 46.4305 34.964 46.3749 35.2461 46.3749H42.7639C43.3336 46.3749 43.8799 46.6012 44.2827 47.0041C44.6855 47.4069 44.9118 47.9532 44.9118 48.5229V75.3722" stroke="#515F76" stroke-width="1.61096" stroke-miterlimit="10"/>
<path d="M5.8457 80.2991L7.99365 82.447" stroke="#B8B9BA" stroke-width="1.07397" stroke-miterlimit="10" stroke-linecap="round"/>
<path d="M7.99365 80.2991L5.8457 82.447" stroke="#B8B9BA" stroke-width="1.07397" stroke-miterlimit="10" stroke-linecap="round"/>
<path d="M85.3196 82.447C85.9127 82.447 86.3935 81.9662 86.3935 81.373C86.3935 80.7799 85.9127 80.2991 85.3196 80.2991C84.7264 80.2991 84.2456 80.7799 84.2456 81.373C84.2456 81.9662 84.7264 82.447 85.3196 82.447Z" fill="#B8B9BA"/>
<path d="M9.87323 51.8388C10.6147 51.8388 11.2157 51.2378 11.2157 50.4963C11.2157 49.7549 10.6147 49.1539 9.87323 49.1539C9.1318 49.1539 8.53076 49.7549 8.53076 50.4963C8.53076 51.2378 9.1318 51.8388 9.87323 51.8388Z" stroke="#B8B9BA" stroke-width="1.07397" stroke-miterlimit="10" stroke-linecap="round"/>
<path d="M13.3635 45.3949C13.9567 45.3949 14.4375 44.9141 14.4375 44.321C14.4375 43.7278 13.9567 43.247 13.3635 43.247C12.7704 43.247 12.2896 43.7278 12.2896 44.321C12.2896 44.9141 12.7704 45.3949 13.3635 45.3949Z" fill="#B8B9BA"/>
<path d="M98.0062 70.6937L99.5702 69.8748C99.5789 69.8696 99.5889 69.8671 99.599 69.8673C99.6091 69.8676 99.619 69.8707 99.6274 69.8763C99.6358 69.8819 99.6425 69.8898 99.6466 69.899C99.6507 69.9083 99.6522 69.9185 99.6508 69.9285L99.3554 71.667L100.698 72.9759L98.8453 73.2444L98.013 74.9225L97.1806 73.2444L95.4354 72.9893C95.427 72.9847 95.42 72.9779 95.4152 72.9696C95.4103 72.9613 95.4077 72.9519 95.4077 72.9423C95.4077 72.9327 95.4103 72.9233 95.4152 72.9151C95.42 72.9068 95.427 72.9 95.4354 72.8953L96.6973 71.6603L96.3819 69.8144L98.0062 70.6937Z" fill="#A8CBEB"/>
<path d="M94.4485 65.2634C95.0416 65.2634 95.5225 64.7825 95.5225 64.1894C95.5225 63.5963 95.0416 63.1154 94.4485 63.1154C93.8553 63.1154 93.3745 63.5963 93.3745 64.1894C93.3745 64.7825 93.8553 65.2634 94.4485 65.2634Z" fill="#B8B9BA"/>
<path d="M93.6428 82.447C94.3842 82.447 94.9852 81.8459 94.9852 81.1045C94.9852 80.3631 94.3842 79.762 93.6428 79.762C92.9013 79.762 92.3003 80.3631 92.3003 81.1045C92.3003 81.8459 92.9013 82.447 93.6428 82.447Z" stroke="#B8B9BA" stroke-width="1.07397" stroke-miterlimit="10" stroke-linecap="round"/>
<path d="M9.4707 75.3722H88.9447" stroke="#515F76" stroke-width="1.61096" stroke-miterlimit="10" stroke-linecap="round"/>
</svg>
