<svg width="132" height="38" viewBox="0 0 132 38" fill="none" xmlns="http://www.w3.org/2000/svg">
<path d="M52.8647 29V7.54545H57.4007V17.0051H57.6836L65.4043 7.54545H70.8413L62.8796 17.1518L70.9355 29H65.5091L59.6321 20.1793L57.4007 22.9031V29H52.8647ZM77.5825 7.54545V29H73.1198V7.54545H77.5825ZM85.7458 29.3038C84.7191 29.3038 83.8043 29.1257 83.0011 28.7695C82.198 28.4064 81.5624 27.8721 81.0945 27.1667C80.6336 26.4544 80.4031 25.5674 80.4031 24.5059C80.4031 23.6119 80.5672 22.8612 80.8955 22.2536C81.2237 21.646 81.6707 21.1571 82.2364 20.7869C82.8021 20.4168 83.4446 20.1374 84.1639 19.9489C84.8903 19.7603 85.6515 19.6276 86.4477 19.5508C87.3835 19.453 88.1378 19.3622 88.7104 19.2784C89.2831 19.1876 89.6987 19.0549 89.9571 18.8803C90.2155 18.7057 90.3447 18.4473 90.3447 18.1051V18.0423C90.3447 17.3788 90.1352 16.8655 89.7161 16.5023C89.3041 16.1391 88.7174 15.9576 87.9562 15.9576C87.153 15.9576 86.514 16.1357 86.0391 16.4918C85.5642 16.841 85.2499 17.281 85.0963 17.8118L80.9688 17.4766C81.1783 16.4988 81.5904 15.6538 82.2049 14.9414C82.8195 14.2221 83.6122 13.6703 84.583 13.2862C85.5607 12.8951 86.6921 12.6996 87.9771 12.6996C88.8711 12.6996 89.7266 12.8043 90.5437 13.0138C91.3678 13.2234 92.0976 13.5481 92.7332 13.9881C93.3757 14.4281 93.882 14.9938 94.2522 15.6852C94.6223 16.3696 94.8074 17.1902 94.8074 18.147V29H90.5752V26.7686H90.4494C90.191 27.2715 89.8453 27.715 89.4123 28.0991C88.9793 28.4762 88.459 28.773 87.8514 28.9895C87.2438 29.199 86.5419 29.3038 85.7458 29.3038ZM87.0238 26.2239C87.6803 26.2239 88.26 26.0947 88.7628 25.8363C89.2657 25.5709 89.6603 25.2147 89.9466 24.7678C90.2329 24.3208 90.3761 23.8145 90.3761 23.2488V21.5412C90.2364 21.632 90.0444 21.7158 89.7999 21.7926C89.5625 21.8625 89.2936 21.9288 88.9933 21.9917C88.693 22.0475 88.3927 22.0999 88.0924 22.1488C87.7921 22.1907 87.5197 22.2291 87.2753 22.264C86.7515 22.3408 86.294 22.4631 85.9029 22.6307C85.5118 22.7983 85.208 23.0253 84.9915 23.3116C84.775 23.591 84.6668 23.9402 84.6668 24.3592C84.6668 24.9668 84.8868 25.4312 85.3267 25.7525C85.7737 26.0668 86.3394 26.2239 87.0238 26.2239ZM98.2697 29V12.9091H102.732V29H98.2697ZM100.511 10.8349C99.848 10.8349 99.2788 10.6149 98.8039 10.1749C98.336 9.72792 98.1021 9.19365 98.1021 8.57209C98.1021 7.9575 98.336 7.43022 98.8039 6.99023C99.2788 6.54326 99.848 6.31978 100.511 6.31978C101.175 6.31978 101.741 6.54326 102.209 6.99023C102.683 7.43022 102.921 7.9575 102.921 8.57209C102.921 9.19365 102.683 9.72792 102.209 10.1749C101.741 10.6149 101.175 10.8349 100.511 10.8349ZM106.307 29V12.9091H110.56V15.748H110.749C111.084 14.8052 111.643 14.0614 112.425 13.5167C113.207 12.9719 114.143 12.6996 115.233 12.6996C116.336 12.6996 117.275 12.9754 118.051 13.5272C118.826 14.0719 119.343 14.8122 119.601 15.748H119.769C120.097 14.8262 120.691 14.0894 121.55 13.5376C122.416 12.9789 123.439 12.6996 124.619 12.6996C126.121 12.6996 127.339 13.178 128.275 14.1348C129.218 15.0846 129.689 16.4325 129.689 18.1784V29H125.237V19.0584C125.237 18.1645 125 17.494 124.525 17.0471C124.05 16.6001 123.456 16.3766 122.744 16.3766C121.934 16.3766 121.302 16.635 120.848 17.1518C120.394 17.6616 120.167 18.3356 120.167 19.1737V29H115.84V18.9641C115.84 18.175 115.613 17.5464 115.159 17.0785C114.712 16.6106 114.122 16.3766 113.389 16.3766C112.893 16.3766 112.446 16.5023 112.048 16.7537C111.657 16.9982 111.346 17.3439 111.116 17.7908C110.885 18.2308 110.77 18.7476 110.77 19.3413V29H106.307Z" fill="#686864"/>
<g clip-path="url(#clip0_59_6107)">
<path d="M4.15625 0V34.6453V35.6232V35.8655L6.29078 38L8.57612 35.7147L10.6347 37.7738L12.5922 35.8161L14.5545 37.7785L16.6375 35.6962L18.7999 37.8587L21.0353 35.6232H21.0686L23.3676 37.9222L25.4481 35.8423L27.4104 37.8047L29.4927 35.7218L31.6558 37.8848L33.8437 35.6962V35.6232V34.6453V0H4.15625Z" fill="#E5E5E5"/>
<path d="M32.0625 5.04688H29.6875V4.45312H32.0625V5.04688ZM27.3124 5.04688H24.9374V4.45312H27.3124V5.04688ZM22.5625 5.04688H20.1875V4.45312H22.5625V5.04688ZM17.8125 5.04688H15.4375V4.45312H17.8125V5.04688ZM13.0625 5.04688H10.6875V4.45312H13.0625V5.04688ZM8.3125 5.04688H5.9375V4.45312H8.3125V5.04688Z" fill="#999999"/>
<path d="M11.319 22.116V20.7504C10.5173 20.7403 9.73142 20.5261 9.0354 20.1282L9.41599 18.8029C10.0819 19.1972 10.8391 19.4108 11.6129 19.4228C12.5035 19.4228 13.1073 18.9858 13.1073 18.3095C13.1073 17.6754 12.6139 17.2663 11.5707 16.8845C10.0905 16.3501 9.13218 15.6721 9.13218 14.3611C9.13218 13.1486 9.97827 12.2182 11.4015 11.9647V10.5842H12.5575V11.8952C13.2325 11.9026 13.8972 12.0615 14.5027 12.3601L14.1244 13.6563C13.5323 13.3475 12.875 13.1846 12.2072 13.1813C11.2204 13.1813 10.8677 13.6884 10.8677 14.1681C10.8677 14.7464 11.3754 15.0706 12.5736 15.5498C14.1523 16.1435 14.8577 16.9029 14.8577 18.1581C14.8577 19.3563 14.0265 20.4144 12.475 20.6679V22.1196L11.319 22.116Z" fill="#E21B1B"/>
<path d="M30.4012 14.9922H18.7544V15.5859H30.4012V14.9922Z" fill="#999999"/>
<path d="M30.4012 11.7168H18.7544V12.3105H30.4012V11.7168Z" fill="#999999"/>
<path d="M30.4012 18.2095H18.7544V18.8032H30.4012V18.2095Z" fill="#999999"/>
<path d="M30.4012 21.4331H18.7544V22.0269H30.4012V21.4331Z" fill="#999999"/>
<path d="M30.4025 24.6536H7.59424V25.2473H30.4025V24.6536Z" fill="#999999"/>
<path d="M30.4025 27.874H7.59424V28.4678H30.4025V27.874Z" fill="#999999"/>
</g>
<defs>
<clipPath id="clip0_59_6107">
<rect width="38" height="38" fill="white"/>
</clipPath>
</defs>
</svg>
