<svg width="324" height="62" viewBox="0 0 324 62" fill="none" xmlns="http://www.w3.org/2000/svg">
<path d="M9.10356 18.951H52.8949V43.0496H9.10356V18.951Z" fill="white" stroke="#BBB7B7" stroke-width="0.775"/>
<path d="M53.2824 22.6643H8.71606V39.3368H53.2824V22.6643Z" fill="#CED5E0"/>
<path d="M53.2824 23.7073H8.71606V38.2803H53.2824V23.7073Z" fill="#E6E9EE"/>
<path d="M11.2211 21.5831H10.509V19.9502H11.1474C11.2579 19.9502 11.3562 19.9625 11.4298 19.987C11.5158 20.0116 11.5649 20.0484 11.614 20.0975C11.6876 20.1835 11.7245 20.2817 11.7245 20.3799C11.7245 20.5027 11.6876 20.6009 11.6017 20.6623C11.5772 20.6868 11.5526 20.6991 11.5403 20.6991C11.528 20.6991 11.5158 20.7114 11.4789 20.7237C11.5772 20.7482 11.6631 20.7973 11.7245 20.8587C11.7859 20.9324 11.8104 21.0183 11.8104 21.1165C11.8104 21.227 11.7736 21.3252 11.6876 21.4235C11.6017 21.534 11.4421 21.5831 11.2211 21.5831ZM10.8774 20.6132H11.0492C11.1474 20.6132 11.2211 20.6009 11.2702 20.5763C11.3193 20.5518 11.3439 20.5027 11.3439 20.429C11.3439 20.3553 11.3193 20.3062 11.2702 20.2817C11.2211 20.2571 11.1474 20.2448 11.037 20.2448H10.8651V20.6132H10.8774ZM10.8774 21.2761H11.1229C11.2334 21.2761 11.3071 21.2639 11.3562 21.2393C11.4053 21.2147 11.4298 21.1656 11.4298 21.092C11.4298 21.0183 11.4053 20.9692 11.3439 20.9447C11.2825 20.9201 11.1966 20.9078 11.0738 20.9078H10.8528V21.2761H10.8774Z" fill="#4CDBC4"/>
<path d="M13.2596 21.5831L13.1122 21.227H12.4247L12.2774 21.5831H11.8845L12.5966 19.9502H12.9526L13.6647 21.5831H13.2596ZM12.7685 20.4413L12.5598 20.9201H12.9649L12.7685 20.4413Z" fill="#4CDBC4"/>
<path d="M14.9889 19.9502H15.3573V21.5831H14.9889L14.2155 20.5641V21.5831H13.8472V19.9502H14.1909L14.9889 21.006V19.9502Z" fill="#4CDBC4"/>
<path d="M15.7512 19.9502H16.1195V20.6254L16.7334 19.9502H17.1877L16.537 20.6746C16.5983 20.7482 16.6966 20.8955 16.8439 21.1165C16.9912 21.3252 17.114 21.4848 17.1877 21.5953H16.758L16.2791 20.9447L16.1195 21.1288V21.5953H15.7512V19.9502V19.9502Z" fill="#4CDBC4"/>
<path d="M30.4349 26.21H11.4543V27.0325H30.4349V26.21Z" fill="#CED5E0"/>
<path d="M30.4349 30.2134H11.4543V31.036H30.4349V30.2134Z" fill="#CED5E0"/>
<path d="M30.4349 34.2275H11.4543V35.0501H30.4349V34.2275Z" fill="#CED5E0"/>
<path d="M51.1597 26.21H41.8904V27.0325H51.1597V26.21Z" fill="#CED5E0"/>
<path d="M40.4891 26.8148C40.354 26.6797 40.2804 26.4833 40.3295 26.2746C40.8083 23.9419 42.5148 22.0389 44.7861 21.3146L45.1176 21.2041C45.5105 21.0813 45.7928 20.7498 45.8542 20.3324C45.9156 19.915 45.756 19.5221 45.4122 19.2765L44.8352 18.8591C44.5651 18.6627 44.5037 18.2944 44.7002 18.0365C44.8966 17.7665 45.2649 17.7051 45.5227 17.9015L46.0998 18.3189C46.7996 18.8223 47.1556 19.6571 47.0206 20.5166C46.8855 21.3637 46.2962 22.0635 45.4736 22.3336L45.1421 22.4441C43.276 23.0457 41.8764 24.6049 41.4835 26.5201C41.4221 26.8393 41.1029 27.048 40.7837 26.9744C40.661 26.9498 40.5627 26.8884 40.4891 26.8148Z" fill="#FFD05B"/>
<path d="M21.1271 39.9585C22.4264 38.6592 23.3048 37.431 23.089 37.2152C22.8733 36.9995 21.6451 37.8779 20.3458 39.1772C19.0465 40.4765 18.1681 41.7047 18.3838 41.9204C18.5996 42.1362 19.8278 41.2578 21.1271 39.9585Z" fill="#324A5E"/>
<path d="M44.5167 17.5706L42.7488 15.8027L45.4743 13.0771C45.5234 13.028 45.5971 13.028 45.6462 13.0771L47.2422 14.6732C47.2913 14.7223 47.2913 14.7959 47.2422 14.845L44.5167 17.5706Z" fill="#FFD05B"/>
<path d="M19.7175 41.2283C19.8526 41.3633 20.0736 41.4124 20.2454 41.3265C24.211 39.399 34.4134 30.6821 40.4047 24.6786C47.5746 17.5087 45.9785 16.9685 44.6648 15.6425C43.3512 14.3289 42.7987 12.7328 35.6288 19.9027C29.6498 25.894 20.933 36.1087 18.9932 40.0742C18.9072 40.2461 18.9441 40.4671 19.0914 40.6021L19.7175 41.2283Z" fill="#FF7058"/>
<path d="M21.9522 35.5786C20.5895 37.4079 19.5336 38.9794 18.9934 40.0721C18.9075 40.244 18.9443 40.465 19.0916 40.6L19.7178 41.2261C19.8528 41.3612 20.0738 41.4103 20.2457 41.3244C21.3384 40.7964 22.9098 39.7406 24.7392 38.3655L21.9522 35.5786Z" fill="#FFD05B"/>
<path d="M37.6044 27.3904C37.9604 27.0589 38.3042 26.7274 38.6357 26.4082L33.9089 21.6692C33.5897 22.0007 33.2582 22.3567 32.9268 22.7005L37.6044 27.3904Z" fill="#FFD05B"/>
<path d="M64.6972 41V21.4727H68.8258V37.5961H77.1973V41H64.6972ZM84.0314 41.2765C83.097 41.2765 82.2643 41.1144 81.5333 40.7902C80.8023 40.4597 80.2238 39.9734 79.7979 39.3314C79.3784 38.683 79.1686 37.8758 79.1686 36.9096C79.1686 36.0959 79.318 35.4126 79.6168 34.8596C79.9155 34.3066 80.3224 33.8616 80.8372 33.5247C81.3521 33.1878 81.9369 32.9336 82.5916 32.7619C83.2527 32.5903 83.9456 32.4695 84.6702 32.3996C85.522 32.3106 86.2085 32.228 86.7297 32.1517C87.251 32.0691 87.6292 31.9483 87.8644 31.7894C88.0996 31.6305 88.2172 31.3953 88.2172 31.0838V31.0266C88.2172 30.4227 88.0265 29.9555 87.6451 29.625C87.27 29.2944 86.7361 29.1292 86.0432 29.1292C85.3122 29.1292 84.7306 29.2913 84.2984 29.6154C83.8661 29.9333 83.5801 30.3337 83.4402 30.8168L79.6835 30.5117C79.8742 29.6218 80.2493 28.8527 80.8086 28.2043C81.368 27.5496 82.0895 27.0474 82.973 26.6978C83.8629 26.3418 84.8927 26.1638 86.0623 26.1638C86.8759 26.1638 87.6546 26.2592 88.3983 26.4499C89.1484 26.6406 89.8127 26.9362 90.3911 27.3366C90.9759 27.7371 91.4368 28.252 91.7736 28.8813C92.1105 29.5042 92.279 30.2511 92.279 31.1219V41H88.4269V38.9691H88.3125C88.0773 39.4268 87.7627 39.8304 87.3686 40.18C86.9745 40.5233 86.5009 40.7934 85.9479 40.9905C85.3949 41.1812 84.756 41.2765 84.0314 41.2765ZM85.1946 38.4733C85.7921 38.4733 86.3197 38.3557 86.7774 38.1205C87.2351 37.8789 87.5942 37.5548 87.8548 37.1479C88.1155 36.7411 88.2458 36.2803 88.2458 35.7654V34.2112C88.1186 34.2939 87.9438 34.3701 87.7214 34.4401C87.5052 34.5036 87.2605 34.564 86.9872 34.6212C86.7138 34.6721 86.4405 34.7197 86.1672 34.7642C85.8939 34.8024 85.6459 34.8373 85.4235 34.8691C84.9467 34.939 84.5304 35.0503 84.1744 35.2028C83.8184 35.3554 83.5419 35.562 83.3449 35.8226C83.1478 36.0769 83.0493 36.3947 83.0493 36.7761C83.0493 37.3291 83.2495 37.7518 83.65 38.0442C84.0568 38.3303 84.5717 38.4733 85.1946 38.4733ZM95.4302 46.492V26.3545H99.4349V28.8145H99.616C99.794 28.4204 100.051 28.02 100.388 27.6131C100.732 27.2 101.177 26.8567 101.723 26.5834C102.276 26.3037 102.963 26.1638 103.783 26.1638C104.851 26.1638 105.836 26.4435 106.739 27.0029C107.641 27.5559 108.363 28.3918 108.903 29.5106C109.443 30.623 109.713 32.0182 109.713 33.6963C109.713 35.33 109.45 36.7093 108.922 37.8344C108.401 38.9532 107.689 39.8018 106.786 40.3802C105.89 40.9523 104.886 41.2384 103.773 41.2384C102.985 41.2384 102.314 41.1081 101.761 40.8474C101.215 40.5868 100.767 40.2595 100.417 39.8654C100.067 39.4649 99.8004 39.0613 99.616 38.6544H99.4921V46.492H95.4302ZM99.4063 33.6773C99.4063 34.5481 99.527 35.3077 99.7686 35.9561C100.01 36.6045 100.36 37.1098 100.817 37.4721C101.275 37.8281 101.831 38.0061 102.486 38.0061C103.147 38.0061 103.706 37.8249 104.164 37.4626C104.622 37.0939 104.968 36.5854 105.203 35.937C105.445 35.2823 105.566 34.529 105.566 33.6773C105.566 32.8319 105.448 32.0881 105.213 31.4461C104.978 30.8041 104.631 30.302 104.174 29.9396C103.716 29.5773 103.153 29.3961 102.486 29.3961C101.825 29.3961 101.266 29.571 100.808 29.9206C100.357 30.2702 100.01 30.766 99.7686 31.408C99.527 32.05 99.4063 32.8064 99.4063 33.6773ZM119.038 41.286C117.557 41.286 116.276 40.9714 115.196 40.3421C114.122 39.7064 113.292 38.8229 112.707 37.6914C112.123 36.5536 111.83 35.2346 111.83 33.7345C111.83 32.2216 112.123 30.8995 112.707 29.768C113.292 28.6302 114.122 27.7466 115.196 27.1173C116.276 26.4817 117.557 26.1638 119.038 26.1638C120.519 26.1638 121.797 26.4817 122.871 27.1173C123.952 27.7466 124.785 28.6302 125.37 29.768C125.954 30.8995 126.247 32.2216 126.247 33.7345C126.247 35.2346 125.954 36.5536 125.37 37.6914C124.785 38.8229 123.952 39.7064 122.871 40.3421C121.797 40.9714 120.519 41.286 119.038 41.286ZM119.057 38.1396C119.731 38.1396 120.294 37.9489 120.745 37.5675C121.196 37.1797 121.537 36.6521 121.765 35.9847C122.001 35.3173 122.118 34.5577 122.118 33.7059C122.118 32.8541 122.001 32.0945 121.765 31.4271C121.537 30.7596 121.196 30.232 120.745 29.8443C120.294 29.4565 119.731 29.2627 119.057 29.2627C118.377 29.2627 117.805 29.4565 117.341 29.8443C116.884 30.232 116.537 30.7596 116.302 31.4271C116.073 32.0945 115.959 32.8541 115.959 33.7059C115.959 34.5577 116.073 35.3173 116.302 35.9847C116.537 36.6521 116.884 37.1797 117.341 37.5675C117.805 37.9489 118.377 38.1396 119.057 38.1396ZM128.888 41V26.3545H132.826V28.9099H132.978C133.245 28.0009 133.693 27.3144 134.323 26.8504C134.952 26.38 135.677 26.1448 136.497 26.1448C136.7 26.1448 136.919 26.1575 137.155 26.1829C137.39 26.2083 137.596 26.2433 137.774 26.2878V29.892C137.584 29.8347 137.32 29.7839 136.983 29.7394C136.646 29.6949 136.338 29.6727 136.058 29.6727C135.461 29.6727 134.927 29.803 134.456 30.0636C133.992 30.3178 133.623 30.6738 133.35 31.1315C133.083 31.5892 132.95 32.1167 132.95 32.7143V41H128.888ZM143.631 41.2765C142.697 41.2765 141.864 41.1144 141.133 40.7902C140.402 40.4597 139.823 39.9734 139.398 39.3314C138.978 38.683 138.768 37.8758 138.768 36.9096C138.768 36.0959 138.918 35.4126 139.216 34.8596C139.515 34.3066 139.922 33.8616 140.437 33.5247C140.952 33.1878 141.537 32.9336 142.191 32.7619C142.852 32.5903 143.545 32.4695 144.27 32.3996C145.122 32.3106 145.808 32.228 146.329 32.1517C146.851 32.0691 147.229 31.9483 147.464 31.7894C147.699 31.6305 147.817 31.3953 147.817 31.0838V31.0266C147.817 30.4227 147.626 29.9555 147.245 29.625C146.87 29.2944 146.336 29.1292 145.643 29.1292C144.912 29.1292 144.33 29.2913 143.898 29.6154C143.466 29.9333 143.18 30.3337 143.04 30.8168L139.283 30.5117C139.474 29.6218 139.849 28.8527 140.408 28.2043C140.968 27.5496 141.689 27.0474 142.573 26.6978C143.463 26.3418 144.492 26.1638 145.662 26.1638C146.476 26.1638 147.254 26.2592 147.998 26.4499C148.748 26.6406 149.412 26.9362 149.991 27.3366C150.576 27.7371 151.036 28.252 151.373 28.8813C151.71 29.5042 151.879 30.2511 151.879 31.1219V41H148.027V38.9691H147.912C147.677 39.4268 147.362 39.8304 146.968 40.18C146.574 40.5233 146.101 40.7934 145.548 40.9905C144.995 41.1812 144.356 41.2765 143.631 41.2765ZM144.794 38.4733C145.392 38.4733 145.919 38.3557 146.377 38.1205C146.835 37.8789 147.194 37.5548 147.455 37.1479C147.715 36.7411 147.845 36.2803 147.845 35.7654V34.2112C147.718 34.2939 147.543 34.3701 147.321 34.4401C147.105 34.5036 146.86 34.564 146.587 34.6212C146.314 34.6721 146.04 34.7197 145.767 34.7642C145.494 34.8024 145.246 34.8373 145.023 34.8691C144.546 34.939 144.13 35.0503 143.774 35.2028C143.418 35.3554 143.142 35.562 142.945 35.8226C142.747 36.0769 142.649 36.3947 142.649 36.7761C142.649 37.3291 142.849 37.7518 143.25 38.0442C143.656 38.3303 144.171 38.4733 144.794 38.4733ZM159.092 32.5331V41H155.03V26.3545H158.901V28.9385H159.073C159.397 28.0867 159.94 27.4129 160.703 26.9171C161.466 26.4149 162.391 26.1638 163.478 26.1638C164.495 26.1638 165.382 26.3863 166.138 26.8313C166.894 27.2762 167.482 27.9119 167.902 28.7382C168.321 29.5582 168.531 30.5371 168.531 31.675V41H164.469V32.3996C164.476 31.5033 164.247 30.8041 163.783 30.302C163.319 29.7934 162.68 29.5392 161.866 29.5392C161.32 29.5392 160.837 29.6568 160.417 29.892C160.004 30.1271 159.68 30.4704 159.445 30.9217C159.216 31.3667 159.098 31.9038 159.092 32.5331ZM178.023 41V21.4727H182.152V30.0827H182.409L189.436 21.4727H194.385L187.138 30.2161L194.471 41H189.532L184.183 32.9717L182.152 35.4507V41H178.023ZM202.058 41.286C200.551 41.286 199.255 40.9809 198.168 40.3707C197.087 39.7541 196.254 38.8833 195.67 37.7582C195.085 36.6267 194.792 35.2887 194.792 33.744C194.792 32.2375 195.085 30.9154 195.67 29.7775C196.254 28.6397 197.078 27.753 198.139 27.1173C199.207 26.4817 200.459 26.1638 201.896 26.1638C202.862 26.1638 203.761 26.3196 204.594 26.6311C205.433 26.9362 206.164 27.397 206.787 28.0136C207.416 28.6302 207.906 29.4057 208.256 30.3401C208.605 31.2681 208.78 32.3551 208.78 33.601V34.7166H196.413V32.1994H204.957C204.957 31.6146 204.829 31.0965 204.575 30.6452C204.321 30.1939 203.968 29.8411 203.517 29.5868C203.072 29.3262 202.554 29.1959 201.963 29.1959C201.346 29.1959 200.799 29.3389 200.323 29.625C199.852 29.9047 199.484 30.2829 199.217 30.7596C198.95 31.23 198.813 31.7544 198.807 32.3329V34.7261C198.807 35.4507 198.94 36.0769 199.207 36.6045C199.48 37.132 199.865 37.5389 200.361 37.8249C200.857 38.111 201.445 38.254 202.125 38.254C202.576 38.254 202.989 38.1904 203.364 38.0633C203.739 37.9362 204.06 37.7455 204.327 37.4912C204.594 37.2369 204.798 36.9255 204.937 36.5568L208.694 36.8047C208.503 37.7073 208.113 38.4955 207.521 39.1693C206.937 39.8368 206.18 40.358 205.252 40.733C204.33 41.1017 203.266 41.286 202.058 41.286ZM220.822 34.7642V26.3545H224.884V41H220.985V38.3398H220.832C220.501 39.1979 219.952 39.8876 219.182 40.4088C218.42 40.9301 217.488 41.1907 216.389 41.1907C215.41 41.1907 214.549 40.9682 213.805 40.5233C213.061 40.0783 212.479 39.4458 212.06 38.6258C211.647 37.8058 211.437 36.8238 211.431 35.6796V26.3545H215.492V34.9549C215.499 35.8194 215.731 36.5028 216.189 37.0049C216.646 37.5071 217.26 37.7582 218.029 37.7582C218.518 37.7582 218.976 37.6469 219.402 37.4244C219.828 37.1956 220.171 36.8587 220.431 36.4138C220.698 35.9688 220.829 35.419 220.822 34.7642ZM232.309 41.2765C231.375 41.2765 230.542 41.1144 229.811 40.7902C229.08 40.4597 228.502 39.9734 228.076 39.3314C227.656 38.683 227.447 37.8758 227.447 36.9096C227.447 36.0959 227.596 35.4126 227.895 34.8596C228.194 34.3066 228.6 33.8616 229.115 33.5247C229.63 33.1878 230.215 32.9336 230.87 32.7619C231.531 32.5903 232.224 32.4695 232.948 32.3996C233.8 32.3106 234.487 32.228 235.008 32.1517C235.529 32.0691 235.907 31.9483 236.142 31.7894C236.378 31.6305 236.495 31.3953 236.495 31.0838V31.0266C236.495 30.4227 236.305 29.9555 235.923 29.625C235.548 29.2944 235.014 29.1292 234.321 29.1292C233.59 29.1292 233.009 29.2913 232.576 29.6154C232.144 29.9333 231.858 30.3337 231.718 30.8168L227.962 30.5117C228.152 29.6218 228.527 28.8527 229.087 28.2043C229.646 27.5496 230.368 27.0474 231.251 26.6978C232.141 26.3418 233.171 26.1638 234.34 26.1638C235.154 26.1638 235.933 26.2592 236.676 26.4499C237.426 26.6406 238.091 26.9362 238.669 27.3366C239.254 27.7371 239.715 28.252 240.052 28.8813C240.389 29.5042 240.557 30.2511 240.557 31.1219V41H236.705V38.9691H236.591C236.355 39.4268 236.041 39.8304 235.647 40.18C235.253 40.5233 234.779 40.7934 234.226 40.9905C233.673 41.1812 233.034 41.2765 232.309 41.2765ZM233.473 38.4733C234.07 38.4733 234.598 38.3557 235.055 38.1205C235.513 37.8789 235.872 37.5548 236.133 37.1479C236.394 36.7411 236.524 36.2803 236.524 35.7654V34.2112C236.397 34.2939 236.222 34.3701 235.999 34.4401C235.783 34.5036 235.539 34.564 235.265 34.6212C234.992 34.6721 234.719 34.7197 234.445 34.7642C234.172 34.8024 233.924 34.8373 233.702 34.8691C233.225 34.939 232.808 35.0503 232.452 35.2028C232.097 35.3554 231.82 35.562 231.623 35.8226C231.426 36.0769 231.327 36.3947 231.327 36.7761C231.327 37.3291 231.528 37.7518 231.928 38.0442C232.335 38.3303 232.85 38.4733 233.473 38.4733ZM247.77 32.5331V41H243.708V26.3545H247.579V28.9385H247.751C248.075 28.0867 248.619 27.4129 249.382 26.9171C250.144 26.4149 251.069 26.1638 252.156 26.1638C253.173 26.1638 254.06 26.3863 254.816 26.8313C255.573 27.2762 256.161 27.9119 256.58 28.7382C257 29.5582 257.21 30.5371 257.21 31.675V41H253.148V32.3996C253.154 31.5033 252.925 30.8041 252.461 30.302C251.997 29.7934 251.358 29.5392 250.545 29.5392C249.998 29.5392 249.515 29.6568 249.095 29.892C248.682 30.1271 248.358 30.4704 248.123 30.9217C247.894 31.3667 247.777 31.9038 247.77 32.5331ZM264.587 41.2765C263.653 41.2765 262.82 41.1144 262.089 40.7902C261.358 40.4597 260.78 39.9734 260.354 39.3314C259.934 38.683 259.724 37.8758 259.724 36.9096C259.724 36.0959 259.874 35.4126 260.173 34.8596C260.471 34.3066 260.878 33.8616 261.393 33.5247C261.908 33.1878 262.493 32.9336 263.147 32.7619C263.808 32.5903 264.501 32.4695 265.226 32.3996C266.078 32.3106 266.764 32.228 267.286 32.1517C267.807 32.0691 268.185 31.9483 268.42 31.7894C268.655 31.6305 268.773 31.3953 268.773 31.0838V31.0266C268.773 30.4227 268.582 29.9555 268.201 29.625C267.826 29.2944 267.292 29.1292 266.599 29.1292C265.868 29.1292 265.286 29.2913 264.854 29.6154C264.422 29.9333 264.136 30.3337 263.996 30.8168L260.239 30.5117C260.43 29.6218 260.805 28.8527 261.364 28.2043C261.924 27.5496 262.645 27.0474 263.529 26.6978C264.419 26.3418 265.448 26.1638 266.618 26.1638C267.432 26.1638 268.21 26.2592 268.954 26.4499C269.704 26.6406 270.368 26.9362 270.947 27.3366C271.532 27.7371 271.993 28.252 272.329 28.8813C272.666 29.5042 272.835 30.2511 272.835 31.1219V41H268.983V38.9691H268.868C268.633 39.4268 268.318 39.8304 267.924 40.18C267.53 40.5233 267.057 40.7934 266.504 40.9905C265.951 41.1812 265.312 41.2765 264.587 41.2765ZM265.75 38.4733C266.348 38.4733 266.876 38.3557 267.333 38.1205C267.791 37.8789 268.15 37.5548 268.411 37.1479C268.671 36.7411 268.802 36.2803 268.802 35.7654V34.2112C268.674 34.2939 268.5 34.3701 268.277 34.4401C268.061 34.5036 267.816 34.564 267.543 34.6212C267.27 34.6721 266.996 34.7197 266.723 34.7642C266.45 34.8024 266.202 34.8373 265.979 34.8691C265.502 34.939 265.086 35.0503 264.73 35.2028C264.374 35.3554 264.098 35.562 263.901 35.8226C263.704 36.0769 263.605 36.3947 263.605 36.7761C263.605 37.3291 263.805 37.7518 264.206 38.0442C264.613 38.3303 265.127 38.4733 265.75 38.4733ZM282.584 46.7972C281.268 46.7972 280.14 46.616 279.199 46.2537C278.265 45.8977 277.521 45.4114 276.968 44.7949C276.415 44.1783 276.056 43.4854 275.891 42.7163L279.647 42.2109C279.762 42.5033 279.943 42.7767 280.191 43.0309C280.439 43.2852 280.766 43.4886 281.173 43.6411C281.586 43.8001 282.088 43.8795 282.679 43.8795C283.563 43.8795 284.291 43.6634 284.863 43.2311C285.441 42.8053 285.731 42.0901 285.731 41.0858V38.4065H285.559C285.381 38.8134 285.114 39.1979 284.758 39.5602C284.402 39.9226 283.944 40.2181 283.385 40.447C282.826 40.6758 282.158 40.7902 281.383 40.7902C280.283 40.7902 279.282 40.536 278.379 40.0275C277.483 39.5126 276.768 38.7275 276.234 37.6724C275.706 36.6108 275.443 35.2696 275.443 33.6487C275.443 31.9896 275.713 30.6039 276.253 29.4915C276.793 28.3791 277.512 27.5464 278.408 26.9934C279.31 26.4404 280.299 26.1638 281.373 26.1638C282.193 26.1638 282.88 26.3037 283.433 26.5834C283.986 26.8567 284.431 27.2 284.768 27.6131C285.111 28.02 285.375 28.4204 285.559 28.8145H285.712V26.3545H289.745V41.143C289.745 42.3889 289.44 43.4314 288.829 44.2704C288.219 45.1095 287.374 45.7388 286.293 46.1583C285.219 46.5842 283.983 46.7972 282.584 46.7972ZM282.67 37.7391C283.325 37.7391 283.878 37.577 284.329 37.2528C284.787 36.9223 285.136 36.4519 285.378 35.8417C285.626 35.2251 285.75 34.4877 285.75 33.6296C285.75 32.7715 285.629 32.0278 285.387 31.3985C285.146 30.7628 284.796 30.2702 284.338 29.9206C283.881 29.571 283.325 29.3961 282.67 29.3961C282.002 29.3961 281.44 29.5773 280.982 29.9396C280.525 30.2956 280.178 30.7914 279.943 31.4271C279.708 32.0627 279.59 32.7969 279.59 33.6296C279.59 34.475 279.708 35.206 279.943 35.8226C280.185 36.4328 280.531 36.9064 280.982 37.2433C281.44 37.5738 282.002 37.7391 282.67 37.7391ZM297.153 41.2765C296.219 41.2765 295.386 41.1144 294.655 40.7902C293.924 40.4597 293.346 39.9734 292.92 39.3314C292.5 38.683 292.291 37.8758 292.291 36.9096C292.291 36.0959 292.44 35.4126 292.739 34.8596C293.037 34.3066 293.444 33.8616 293.959 33.5247C294.474 33.1878 295.059 32.9336 295.714 32.7619C296.375 32.5903 297.067 32.4695 297.792 32.3996C298.644 32.3106 299.33 32.228 299.852 32.1517C300.373 32.0691 300.751 31.9483 300.986 31.7894C301.221 31.6305 301.339 31.3953 301.339 31.0838V31.0266C301.339 30.4227 301.148 29.9555 300.767 29.625C300.392 29.2944 299.858 29.1292 299.165 29.1292C298.434 29.1292 297.852 29.2913 297.42 29.6154C296.988 29.9333 296.702 30.3337 296.562 30.8168L292.805 30.5117C292.996 29.6218 293.371 28.8527 293.931 28.2043C294.49 27.5496 295.211 27.0474 296.095 26.6978C296.985 26.3418 298.015 26.1638 299.184 26.1638C299.998 26.1638 300.776 26.2592 301.52 26.4499C302.27 26.6406 302.935 26.9362 303.513 27.3366C304.098 27.7371 304.559 28.252 304.896 28.8813C305.232 29.5042 305.401 30.2511 305.401 31.1219V41H301.549V38.9691H301.434C301.199 39.4268 300.885 39.8304 300.49 40.18C300.096 40.5233 299.623 40.7934 299.07 40.9905C298.517 41.1812 297.878 41.2765 297.153 41.2765ZM298.317 38.4733C298.914 38.4733 299.442 38.3557 299.899 38.1205C300.357 37.8789 300.716 37.5548 300.977 37.1479C301.237 36.7411 301.368 36.2803 301.368 35.7654V34.2112C301.241 34.2939 301.066 34.3701 300.843 34.4401C300.627 34.5036 300.382 34.564 300.109 34.6212C299.836 34.6721 299.562 34.7197 299.289 34.7642C299.016 34.8024 298.768 34.8373 298.545 34.8691C298.069 34.939 297.652 35.0503 297.296 35.2028C296.94 35.3554 296.664 35.562 296.467 35.8226C296.27 36.0769 296.171 36.3947 296.171 36.7761C296.171 37.3291 296.371 37.7518 296.772 38.0442C297.179 38.3303 297.694 38.4733 298.317 38.4733ZM312.614 32.5331V41H308.552V26.3545H312.423V28.9385H312.595C312.919 28.0867 313.463 27.4129 314.225 26.9171C314.988 26.4149 315.913 26.1638 317 26.1638C318.017 26.1638 318.904 26.3863 319.66 26.8313C320.417 27.2762 321.005 27.9119 321.424 28.7382C321.844 29.5582 322.053 30.5371 322.053 31.675V41H317.992V32.3996C317.998 31.5033 317.769 30.8041 317.305 30.302C316.841 29.7934 316.202 29.5392 315.389 29.5392C314.842 29.5392 314.359 29.6568 313.939 29.892C313.526 30.1271 313.202 30.4704 312.967 30.9217C312.738 31.3667 312.62 31.9038 312.614 32.5331Z" fill="#686864"/>
</svg>
