<svg width="234" height="46" viewBox="0 0 234 46" fill="none" xmlns="http://www.w3.org/2000/svg">
<path d="M54.697 31V11.4751H62.4002C63.8811 11.4751 65.1427 11.7579 66.185 12.3236C67.2274 12.8829 68.0219 13.6615 68.5685 14.6593C69.1214 15.6508 69.3979 16.7949 69.3979 18.0914C69.3979 19.388 69.1182 20.532 68.5589 21.5235C67.9996 22.515 67.1893 23.2873 66.1278 23.8402C65.0728 24.3932 63.7953 24.6697 62.2953 24.6697H57.3855V21.3615H61.628C62.4224 21.3615 63.0771 21.2248 63.5919 20.9515C64.1131 20.6719 64.5008 20.2873 64.755 19.798C65.0156 19.3022 65.1459 18.7334 65.1459 18.0914C65.1459 17.4431 65.0156 16.8775 64.755 16.3944C64.5008 15.905 64.1131 15.5269 63.5919 15.2599C63.0707 14.9866 62.4097 14.85 61.6089 14.85H58.8251V31H54.697ZM78.4406 31.286C76.9342 31.286 75.6377 30.9809 74.5508 30.3708C73.4703 29.7543 72.6377 28.8835 72.053 27.7586C71.4683 26.6272 71.1759 25.2893 71.1759 23.7449C71.1759 22.2386 71.4683 20.9166 72.053 19.7789C72.6377 18.6412 73.4608 17.7546 74.5222 17.119C75.59 16.4834 76.8421 16.1656 78.2785 16.1656C79.2446 16.1656 80.1439 16.3213 80.9765 16.6328C81.8155 16.9379 82.5464 17.3987 83.1693 18.0152C83.7985 18.6317 84.2879 19.4071 84.6374 20.3414C84.987 21.2693 85.1618 22.3562 85.1618 23.6019V24.7173H72.7966V22.2004H81.3388C81.3388 21.6157 81.2117 21.0977 80.9574 20.6464C80.7032 20.1952 80.3505 19.8424 79.8992 19.5882C79.4543 19.3276 78.9363 19.1973 78.3452 19.1973C77.7287 19.1973 77.1821 19.3403 76.7054 19.6263C76.2351 19.906 75.8665 20.2842 75.5995 20.7609C75.3326 21.2312 75.1959 21.7555 75.1896 22.3339V24.7269C75.1896 25.4514 75.3231 26.0775 75.59 26.605C75.8633 27.1325 76.2478 27.5393 76.7436 27.8253C77.2393 28.1113 77.8272 28.2543 78.5073 28.2543C78.9586 28.2543 79.3717 28.1907 79.7467 28.0636C80.1217 27.9365 80.4426 27.7458 80.7096 27.4916C80.9765 27.2374 81.1799 26.926 81.3197 26.5573L85.076 26.8052C84.8853 27.7077 84.4944 28.4958 83.9033 29.1695C83.3186 29.8369 82.5623 30.3581 81.6343 30.7331C80.7127 31.1017 79.6482 31.286 78.4406 31.286ZM87.8121 31V16.3563H91.6828V18.9399H91.8544C92.1595 18.0819 92.668 17.405 93.3798 16.9093C94.0916 16.4135 94.9433 16.1656 95.9348 16.1656C96.939 16.1656 97.7939 16.4167 98.4994 16.9188C99.2049 17.4145 99.6752 18.0883 99.9104 18.9399H100.063C100.362 18.101 100.902 17.4304 101.684 16.9283C102.472 16.4199 103.403 16.1656 104.477 16.1656C105.843 16.1656 106.953 16.601 107.804 17.4717C108.662 18.3361 109.091 19.5628 109.091 21.1517V31H105.039V21.9526C105.039 21.139 104.823 20.5289 104.391 20.1221C103.959 19.7153 103.419 19.5119 102.77 19.5119C102.033 19.5119 101.458 19.7471 101.045 20.2174C100.632 20.6814 100.425 21.2947 100.425 22.0574V31H96.4878V21.8668C96.4878 21.1486 96.2812 20.5765 95.8681 20.1507C95.4613 19.7249 94.9243 19.5119 94.2569 19.5119C93.8056 19.5119 93.3989 19.6263 93.0366 19.8552C92.6807 20.0776 92.3978 20.3922 92.1881 20.799C91.9784 21.1994 91.8735 21.6697 91.8735 22.21V31H87.8121ZM112.376 31V11.4751H116.437V18.816H116.561C116.739 18.4219 116.996 18.0215 117.333 17.6147C117.676 17.2016 118.121 16.8584 118.668 16.5851C119.221 16.3055 119.907 16.1656 120.727 16.1656C121.795 16.1656 122.78 16.4453 123.683 17.0046C124.585 17.5575 125.306 18.3933 125.847 19.5119C126.387 20.6242 126.657 22.0193 126.657 23.6972C126.657 25.3307 126.393 26.7099 125.866 27.8348C125.345 28.9534 124.633 29.8019 123.73 30.3803C122.834 30.9523 121.83 31.2383 120.718 31.2383C119.929 31.2383 119.259 31.108 118.706 30.8475C118.159 30.5869 117.711 30.2596 117.362 29.8655C117.012 29.4651 116.745 29.0615 116.561 28.6547H116.38V31H112.376ZM116.351 23.6782C116.351 24.5489 116.472 25.3084 116.713 25.9567C116.955 26.605 117.305 27.1103 117.762 27.4725C118.22 27.8285 118.776 28.0064 119.431 28.0064C120.092 28.0064 120.651 27.8253 121.108 27.463C121.566 27.0944 121.912 26.5859 122.148 25.9376C122.389 25.283 122.51 24.5298 122.51 23.6782C122.51 22.8328 122.392 22.0892 122.157 21.4473C121.922 20.8053 121.576 20.3032 121.118 19.941C120.66 19.5787 120.098 19.3975 119.431 19.3975C118.77 19.3975 118.21 19.5723 117.753 19.9219C117.301 20.2715 116.955 20.7672 116.713 21.4091C116.472 22.0511 116.351 22.8074 116.351 23.6782ZM133.543 31.2765C132.608 31.2765 131.776 31.1144 131.045 30.7903C130.314 30.4598 129.736 29.9735 129.31 29.3316C128.89 28.6833 128.681 27.8761 128.681 26.9101C128.681 26.0965 128.83 25.4133 129.129 24.8603C129.427 24.3074 129.834 23.8625 130.349 23.5256C130.864 23.1888 131.448 22.9345 132.103 22.7629C132.764 22.5913 133.457 22.4706 134.181 22.4006C135.033 22.3117 135.72 22.229 136.241 22.1528C136.762 22.0701 137.14 21.9494 137.375 21.7905C137.61 21.6316 137.728 21.3964 137.728 21.085V21.0278C137.728 20.424 137.537 19.9568 137.156 19.6263C136.781 19.2958 136.247 19.1306 135.554 19.1306C134.823 19.1306 134.242 19.2927 133.81 19.6168C133.377 19.9346 133.091 20.335 132.952 20.8181L129.195 20.513C129.386 19.6232 129.761 18.8541 130.32 18.2058C130.88 17.5512 131.601 17.0491 132.484 16.6995C133.374 16.3436 134.404 16.1656 135.573 16.1656C136.387 16.1656 137.165 16.261 137.909 16.4516C138.659 16.6423 139.323 16.9379 139.902 17.3383C140.486 17.7387 140.947 18.2535 141.284 18.8827C141.621 19.5056 141.789 20.2524 141.789 21.1231V31H137.938V28.9693H137.823C137.588 29.4269 137.274 29.8305 136.879 30.1801C136.485 30.5233 136.012 30.7934 135.459 30.9905C134.906 31.1811 134.267 31.2765 133.543 31.2765ZM134.706 28.4736C135.303 28.4736 135.831 28.356 136.288 28.1208C136.746 27.8793 137.105 27.5552 137.366 27.1484C137.626 26.7416 137.757 26.2808 137.757 25.766V24.212C137.629 24.2947 137.455 24.3709 137.232 24.4408C137.016 24.5044 136.771 24.5648 136.498 24.622C136.225 24.6728 135.952 24.7205 135.678 24.765C135.405 24.8031 135.157 24.8381 134.935 24.8699C134.458 24.9398 134.042 25.051 133.686 25.2035C133.33 25.3561 133.053 25.5626 132.856 25.8232C132.659 26.0775 132.561 26.3952 132.561 26.7766C132.561 27.3295 132.761 27.7522 133.161 28.0446C133.568 28.3306 134.083 28.4736 134.706 28.4736ZM146.923 36.4914C146.408 36.4914 145.925 36.4501 145.474 36.3674C145.029 36.2912 144.661 36.1927 144.368 36.0719L145.283 33.0402C145.76 33.1864 146.189 33.2658 146.57 33.2785C146.958 33.2913 147.292 33.2023 147.571 33.0116C147.857 32.8209 148.089 32.4968 148.267 32.0392L148.506 31.4195L143.253 16.3563H147.524L150.556 27.1103H150.708L153.768 16.3563H158.068L152.376 32.5826C152.103 33.3707 151.731 34.0571 151.261 34.6419C150.797 35.2329 150.209 35.6874 149.497 36.0052C148.785 36.3293 147.927 36.4914 146.923 36.4914ZM163.929 31.2765C162.995 31.2765 162.162 31.1144 161.431 30.7903C160.7 30.4598 160.122 29.9735 159.696 29.3316C159.276 28.6833 159.067 27.8761 159.067 26.9101C159.067 26.0965 159.216 25.4133 159.515 24.8603C159.813 24.3074 160.22 23.8625 160.735 23.5256C161.25 23.1888 161.835 22.9345 162.489 22.7629C163.15 22.5913 163.843 22.4706 164.568 22.4006C165.419 22.3117 166.106 22.229 166.627 22.1528C167.148 22.0701 167.526 21.9494 167.761 21.7905C167.997 21.6316 168.114 21.3964 168.114 21.085V21.0278C168.114 20.424 167.923 19.9568 167.542 19.6263C167.167 19.2958 166.633 19.1306 165.94 19.1306C165.21 19.1306 164.628 19.2927 164.196 19.6168C163.764 19.9346 163.478 20.335 163.338 20.8181L159.582 20.513C159.772 19.6232 160.147 18.8541 160.706 18.2058C161.266 17.5512 161.987 17.0491 162.871 16.6995C163.76 16.3436 164.79 16.1656 165.96 16.1656C166.773 16.1656 167.552 16.261 168.295 16.4516C169.045 16.6423 169.709 16.9379 170.288 17.3383C170.873 17.7387 171.333 18.2535 171.67 18.8827C172.007 19.5056 172.175 20.2524 172.175 21.1231V31H168.324V28.9693H168.209C167.974 29.4269 167.66 29.8305 167.266 30.1801C166.872 30.5233 166.398 30.7934 165.845 30.9905C165.292 31.1811 164.653 31.2765 163.929 31.2765ZM165.092 28.4736C165.689 28.4736 166.217 28.356 166.675 28.1208C167.132 27.8793 167.491 27.5552 167.752 27.1484C168.012 26.7416 168.143 26.2808 168.143 25.766V24.212C168.016 24.2947 167.841 24.3709 167.618 24.4408C167.402 24.5044 167.158 24.5648 166.884 24.622C166.611 24.6728 166.338 24.7205 166.064 24.765C165.791 24.8031 165.543 24.8381 165.321 24.8699C164.844 24.9398 164.428 25.051 164.072 25.2035C163.716 25.3561 163.439 25.5626 163.242 25.8232C163.045 26.0775 162.947 26.3952 162.947 26.7766C162.947 27.3295 163.147 27.7522 163.548 28.0446C163.954 28.3306 164.469 28.4736 165.092 28.4736ZM175.326 31V16.3563H179.264V18.9113H179.416C179.683 18.0024 180.131 17.316 180.761 16.8521C181.39 16.3817 182.114 16.1466 182.934 16.1466C183.138 16.1466 183.357 16.1593 183.592 16.1847C183.827 16.2101 184.034 16.2451 184.212 16.2896V19.8933C184.021 19.8361 183.757 19.7852 183.42 19.7408C183.084 19.6963 182.775 19.674 182.496 19.674C181.898 19.674 181.364 19.8043 180.894 20.0649C180.43 20.3191 180.061 20.6751 179.788 21.1327C179.521 21.5903 179.388 22.1178 179.388 22.7153V31H175.326ZM190.068 31.2765C189.133 31.2765 188.301 31.1144 187.57 30.7903C186.839 30.4598 186.261 29.9735 185.835 29.3316C185.415 28.6833 185.206 27.8761 185.206 26.9101C185.206 26.0965 185.355 25.4133 185.654 24.8603C185.952 24.3074 186.359 23.8625 186.874 23.5256C187.389 23.1888 187.974 22.9345 188.628 22.7629C189.289 22.5913 189.982 22.4706 190.707 22.4006C191.558 22.3117 192.245 22.229 192.766 22.1528C193.287 22.0701 193.665 21.9494 193.9 21.7905C194.135 21.6316 194.253 21.3964 194.253 21.085V21.0278C194.253 20.424 194.062 19.9568 193.681 19.6263C193.306 19.2958 192.772 19.1306 192.079 19.1306C191.348 19.1306 190.767 19.2927 190.335 19.6168C189.902 19.9346 189.616 20.335 189.477 20.8181L185.72 20.513C185.911 19.6232 186.286 18.8541 186.845 18.2058C187.405 17.5512 188.126 17.0491 189.01 16.6995C189.899 16.3436 190.929 16.1656 192.098 16.1656C192.912 16.1656 193.691 16.261 194.434 16.4516C195.184 16.6423 195.848 16.9379 196.427 17.3383C197.011 17.7387 197.472 18.2535 197.809 18.8827C198.146 19.5056 198.314 20.2524 198.314 21.1231V31H194.463V28.9693H194.348C194.113 29.4269 193.799 29.8305 193.405 30.1801C193.01 30.5233 192.537 30.7934 191.984 30.9905C191.431 31.1811 190.792 31.2765 190.068 31.2765ZM191.231 28.4736C191.828 28.4736 192.356 28.356 192.813 28.1208C193.271 27.8793 193.63 27.5552 193.891 27.1484C194.151 26.7416 194.282 26.2808 194.282 25.766V24.212C194.155 24.2947 193.98 24.3709 193.757 24.4408C193.541 24.5044 193.296 24.5648 193.023 24.622C192.75 24.6728 192.477 24.7205 192.203 24.765C191.93 24.8031 191.682 24.8381 191.46 24.8699C190.983 24.9398 190.567 25.051 190.211 25.2035C189.855 25.3561 189.578 25.5626 189.381 25.8232C189.184 26.0775 189.086 26.3952 189.086 26.7766C189.086 27.3295 189.286 27.7522 189.686 28.0446C190.093 28.3306 190.608 28.4736 191.231 28.4736ZM205.527 22.5341V31H201.465V16.3563H205.336V18.9399H205.508C205.832 18.0883 206.375 17.4145 207.138 16.9188C207.9 16.4167 208.825 16.1656 209.912 16.1656C210.929 16.1656 211.816 16.3881 212.572 16.833C213.328 17.2779 213.916 17.9135 214.336 18.7397C214.755 19.5596 214.965 20.5384 214.965 21.6761V31H210.904V22.4006C210.91 21.5045 210.681 20.8053 210.217 20.3032C209.753 19.7948 209.114 19.5405 208.301 19.5405C207.754 19.5405 207.271 19.6581 206.852 19.8933C206.439 20.1285 206.114 20.4717 205.879 20.9229C205.651 21.3678 205.533 21.9049 205.527 22.5341Z" fill="#686864"/>
<path d="M37.3924 10.4385H8.60825C8.40786 10.4385 8.2439 10.6024 8.2439 10.8028V17.6072C8.2439 17.8076 8.40786 17.9715 8.60825 17.9715H37.3924C37.5928 17.9715 37.7568 17.8076 37.7568 17.6072V10.8028C37.7568 10.6024 37.5928 10.4385 37.3924 10.4385Z" fill="#FFD05B"/>
<path d="M36.0997 12.2969H9.91162V16.1226H36.0997V12.2969Z" fill="#324A5E"/>
<path d="M14.702 35.5142H14.8022L15.9317 34.3847L17.0612 35.5142H17.1614L18.2818 34.3847L19.4113 35.5142H19.5115L20.641 34.3847L21.7705 35.5142H21.8707L23.0002 34.3847L24.1297 35.5142H24.2299L25.3594 34.3847L26.4889 35.5142H26.5891L27.7186 34.3847L28.839 35.5142H28.9392L30.0687 34.3847L31.1982 35.5142H31.2984L32.4279 34.3847L33.275 35.2228V14.2085H12.7253V35.2228L13.5725 34.3847L14.702 35.5142Z" fill="#EDF2F2"/>
<path d="M29.8777 19.437H16.1323V20.7123H29.8777V19.437Z" fill="#4CDBC4"/>
<path d="M29.8777 23.4077H16.1323V24.683H29.8777V23.4077Z" fill="#4CDBC4"/>
<path d="M24.385 27.3716H16.1323V28.6468H24.385V27.3716Z" fill="#4CDBC4"/>
</svg>
