<svg width="328" height="36" viewBox="0 0 328 36" fill="none" xmlns="http://www.w3.org/2000/svg">
<path d="M49.8647 29V7.54545H58.3292C59.9564 7.54545 61.3427 7.85624 62.4881 8.47781C63.6335 9.09239 64.5065 9.94792 65.1071 11.0444C65.7147 12.1339 66.0185 13.391 66.0185 14.8157C66.0185 16.2404 65.7112 17.4975 65.0966 18.587C64.482 19.6765 63.5916 20.525 62.4252 21.1326C61.2659 21.7402 59.8622 22.044 58.214 22.044H52.8189V18.4089H57.4806C58.3536 18.4089 59.073 18.2588 59.6387 17.9585C60.2114 17.6512 60.6374 17.2286 60.9167 16.6909C61.2031 16.1461 61.3462 15.5211 61.3462 14.8157C61.3462 14.1033 61.2031 13.4818 60.9167 12.951C60.6374 12.4132 60.2114 11.9977 59.6387 11.7044C59.066 11.4041 58.3397 11.2539 57.4597 11.2539H54.4007V29H49.8647ZM75.9548 29.3143C74.2996 29.3143 72.8749 28.979 71.6807 28.3086C70.4934 27.6312 69.5785 26.6744 68.936 25.4382C68.2935 24.1951 67.9722 22.725 67.9722 21.0279C67.9722 19.3727 68.2935 17.92 68.936 16.6699C69.5785 15.4198 70.4829 14.4455 71.6492 13.7472C72.8225 13.0488 74.1984 12.6996 75.7767 12.6996C76.8383 12.6996 77.8265 12.8707 78.7414 13.2129C79.6633 13.5481 80.4664 14.0545 81.1508 14.7319C81.8422 15.4093 82.38 16.2614 82.7641 17.288C83.1482 18.3076 83.3403 19.5019 83.3403 20.8707V22.0964H69.7531V19.3308H79.1395C79.1395 18.6883 78.9998 18.1191 78.7204 17.6232C78.4411 17.1274 78.0535 16.7398 77.5576 16.4604C77.0687 16.1741 76.4996 16.0309 75.8501 16.0309C75.1726 16.0309 74.572 16.188 74.0482 16.5023C73.5314 16.8096 73.1263 17.2251 72.833 17.7489C72.5397 18.2657 72.3895 18.8419 72.3825 19.4774V22.1069C72.3825 22.9031 72.5292 23.591 72.8225 24.1706C73.1228 24.7503 73.5454 25.1973 74.0901 25.5115C74.6349 25.8258 75.2809 25.983 76.0281 25.983C76.524 25.983 76.978 25.9131 77.39 25.7734C77.8021 25.6338 78.1547 25.4242 78.4481 25.1449C78.7414 24.8655 78.9649 24.5233 79.1185 24.1183L83.246 24.3906C83.0365 25.3823 82.607 26.2483 81.9575 26.9886C81.315 27.7219 80.4839 28.2946 79.4642 28.7067C78.4516 29.1117 77.2818 29.3143 75.9548 29.3143ZM90.7153 19.6974V29H86.2526V12.9091H90.5058V15.748H90.6943C91.0505 14.8122 91.6476 14.0719 92.4857 13.5272C93.3238 12.9754 94.3399 12.6996 95.5342 12.6996C96.6516 12.6996 97.6259 12.944 98.4569 13.4329C99.288 13.9218 99.934 14.6201 100.395 15.5281C100.856 16.429 101.086 17.5045 101.086 18.7546V29H96.6237V19.5508C96.6307 18.5661 96.3792 17.7978 95.8694 17.2461C95.3596 16.6874 94.6577 16.408 93.7638 16.408C93.1631 16.408 92.6324 16.5372 92.1714 16.7956C91.7175 17.054 91.3613 17.4312 91.1029 17.927C90.8515 18.4159 90.7223 19.006 90.7153 19.6974ZM111.874 29.3143C110.226 29.3143 108.808 28.9651 107.621 28.2667C106.44 27.5613 105.533 26.5836 104.897 25.3335C104.268 24.0833 103.954 22.6446 103.954 21.0174C103.954 19.3692 104.272 17.9235 104.907 16.6804C105.55 15.4303 106.461 14.456 107.642 13.7576C108.822 13.0523 110.226 12.6996 111.853 12.6996C113.257 12.6996 114.486 12.9545 115.54 13.4643C116.595 13.9741 117.43 14.69 118.044 15.6119C118.659 16.5337 118.997 17.6162 119.06 18.8594H114.849C114.73 18.0562 114.416 17.4102 113.906 16.9213C113.403 16.4255 112.743 16.1776 111.926 16.1776C111.235 16.1776 110.631 16.3661 110.114 16.7433C109.604 17.1134 109.206 17.6547 108.92 18.367C108.633 19.0794 108.49 19.9419 108.49 20.9545C108.49 21.9812 108.63 22.8542 108.909 23.5735C109.196 24.2929 109.597 24.8411 110.114 25.2182C110.631 25.5953 111.235 25.7839 111.926 25.7839C112.436 25.7839 112.894 25.6792 113.299 25.4696C113.711 25.2601 114.049 24.9563 114.315 24.5582C114.587 24.1532 114.765 23.6678 114.849 23.1021H119.06C118.99 24.3313 118.655 25.4138 118.055 26.3496C117.461 27.2785 116.64 28.0048 115.593 28.5286C114.545 29.0524 113.306 29.3143 111.874 29.3143ZM126.506 29.3038C125.479 29.3038 124.565 29.1257 123.761 28.7695C122.958 28.4064 122.323 27.8721 121.855 27.1667C121.394 26.4544 121.163 25.5674 121.163 24.5059C121.163 23.6119 121.327 22.8612 121.656 22.2536C121.984 21.646 122.431 21.1571 122.997 20.7869C123.562 20.4168 124.205 20.1374 124.924 19.9489C125.651 19.7603 126.412 19.6276 127.208 19.5508C128.144 19.453 128.898 19.3622 129.471 19.2784C130.043 19.1876 130.459 19.0549 130.717 18.8803C130.976 18.7057 131.105 18.4473 131.105 18.1051V18.0423C131.105 17.3788 130.895 16.8655 130.476 16.5023C130.064 16.1391 129.478 15.9576 128.716 15.9576C127.913 15.9576 127.274 16.1357 126.799 16.4918C126.324 16.841 126.01 17.281 125.857 17.8118L121.729 17.4766C121.939 16.4988 122.351 15.6538 122.965 14.9414C123.58 14.2221 124.372 13.6703 125.343 13.2862C126.321 12.8951 127.452 12.6996 128.737 12.6996C129.631 12.6996 130.487 12.8043 131.304 13.0138C132.128 13.2234 132.858 13.5481 133.493 13.9881C134.136 14.4281 134.642 14.9938 135.012 15.6852C135.383 16.3696 135.568 17.1902 135.568 18.147V29H131.335V26.7686H131.21C130.951 27.2715 130.606 27.715 130.173 28.0991C129.74 28.4762 129.219 28.773 128.612 28.9895C128.004 29.199 127.302 29.3038 126.506 29.3038ZM127.784 26.2239C128.441 26.2239 129.02 26.0947 129.523 25.8363C130.026 25.5709 130.421 25.2147 130.707 24.7678C130.993 24.3208 131.136 23.8145 131.136 23.2488V21.5412C130.997 21.632 130.805 21.7158 130.56 21.7926C130.323 21.8625 130.054 21.9288 129.754 21.9917C129.453 22.0475 129.153 22.0999 128.853 22.1488C128.552 22.1907 128.28 22.2291 128.036 22.264C127.512 22.3408 127.054 22.4631 126.663 22.6307C126.272 22.7983 125.968 23.0253 125.752 23.3116C125.535 23.591 125.427 23.9402 125.427 24.3592C125.427 24.9668 125.647 25.4312 126.087 25.7525C126.534 26.0668 127.1 26.2239 127.784 26.2239ZM139.03 29V12.9091H143.356V15.7166H143.524C143.817 14.7179 144.31 13.9637 145.001 13.4538C145.693 12.937 146.489 12.6786 147.39 12.6786C147.613 12.6786 147.854 12.6926 148.112 12.7205C148.371 12.7485 148.598 12.7869 148.793 12.8358V16.7956C148.584 16.7328 148.294 16.6769 147.924 16.628C147.554 16.5791 147.215 16.5547 146.908 16.5547C146.251 16.5547 145.665 16.6979 145.148 16.9842C144.638 17.2636 144.233 17.6547 143.933 18.1575C143.639 18.6603 143.493 19.24 143.493 19.8965V29H139.03ZM151.101 29V12.9091H155.563V29H151.101ZM153.343 10.8349C152.679 10.8349 152.11 10.6149 151.635 10.1749C151.167 9.72792 150.933 9.19365 150.933 8.57209C150.933 7.9575 151.167 7.43022 151.635 6.99023C152.11 6.54326 152.679 6.31978 153.343 6.31978C154.006 6.31978 154.572 6.54326 155.04 6.99023C155.515 7.43022 155.752 7.9575 155.752 8.57209C155.752 9.19365 155.515 9.72792 155.04 10.1749C154.572 10.6149 154.006 10.8349 153.343 10.8349ZM163.727 29.3038C162.7 29.3038 161.785 29.1257 160.982 28.7695C160.179 28.4064 159.543 27.8721 159.075 27.1667C158.615 26.4544 158.384 25.5674 158.384 24.5059C158.384 23.6119 158.548 22.8612 158.876 22.2536C159.205 21.646 159.652 21.1571 160.217 20.7869C160.783 20.4168 161.426 20.1374 162.145 19.9489C162.871 19.7603 163.632 19.6276 164.429 19.5508C165.364 19.453 166.119 19.3622 166.691 19.2784C167.264 19.1876 167.68 19.0549 167.938 18.8803C168.196 18.7057 168.326 18.4473 168.326 18.1051V18.0423C168.326 17.3788 168.116 16.8655 167.697 16.5023C167.285 16.1391 166.698 15.9576 165.937 15.9576C165.134 15.9576 164.495 16.1357 164.02 16.4918C163.545 16.841 163.231 17.281 163.077 17.8118L158.95 17.4766C159.159 16.4988 159.571 15.6538 160.186 14.9414C160.8 14.2221 161.593 13.6703 162.564 13.2862C163.542 12.8951 164.673 12.6996 165.958 12.6996C166.852 12.6996 167.708 12.8043 168.525 13.0138C169.349 13.2234 170.079 13.5481 170.714 13.9881C171.357 14.4281 171.863 14.9938 172.233 15.6852C172.603 16.3696 172.788 17.1902 172.788 18.147V29H168.556V26.7686H168.43C168.172 27.2715 167.826 27.715 167.393 28.0991C166.96 28.4762 166.44 28.773 165.832 28.9895C165.225 29.199 164.523 29.3038 163.727 29.3038ZM165.005 26.2239C165.661 26.2239 166.241 26.0947 166.744 25.8363C167.247 25.5709 167.641 25.2147 167.928 24.7678C168.214 24.3208 168.357 23.8145 168.357 23.2488V21.5412C168.217 21.632 168.025 21.7158 167.781 21.7926C167.543 21.8625 167.275 21.9288 166.974 21.9917C166.674 22.0475 166.374 22.0999 166.073 22.1488C165.773 22.1907 165.501 22.2291 165.256 22.264C164.732 22.3408 164.275 22.4631 163.884 22.6307C163.493 22.7983 163.189 23.0253 162.972 23.3116C162.756 23.591 162.648 23.9402 162.648 24.3592C162.648 24.9668 162.868 25.4312 163.308 25.7525C163.755 26.0668 164.32 26.2239 165.005 26.2239ZM180.713 19.6974V29H176.251V12.9091H180.504V15.748H180.692C181.049 14.8122 181.646 14.0719 182.484 13.5272C183.322 12.9754 184.338 12.6996 185.532 12.6996C186.65 12.6996 187.624 12.944 188.455 13.4329C189.286 13.9218 189.932 14.6201 190.393 15.5281C190.854 16.429 191.084 17.5045 191.084 18.7546V29H186.622V19.5508C186.629 18.5661 186.377 17.7978 185.867 17.2461C185.358 16.6874 184.656 16.408 183.762 16.408C183.161 16.408 182.63 16.5372 182.169 16.7956C181.716 17.054 181.359 17.4312 181.101 17.927C180.85 18.4159 180.72 19.006 180.713 19.6974ZM201.513 29V7.54545H209.978C211.605 7.54545 212.991 7.85624 214.137 8.47781C215.282 9.09239 216.155 9.94792 216.756 11.0444C217.363 12.1339 217.667 13.391 217.667 14.8157C217.667 16.2404 217.36 17.4975 216.745 18.587C216.13 19.6765 215.24 20.525 214.074 21.1326C212.914 21.7402 211.511 22.044 209.862 22.044H204.467V18.4089H209.129C210.002 18.4089 210.721 18.2588 211.287 17.9585C211.86 17.6512 212.286 17.2286 212.565 16.6909C212.852 16.1461 212.995 15.5211 212.995 14.8157C212.995 14.1033 212.852 13.4818 212.565 12.951C212.286 12.4132 211.86 11.9977 211.287 11.7044C210.714 11.4041 209.988 11.2539 209.108 11.2539H206.049V29H201.513ZM227.603 29.3143C225.948 29.3143 224.523 28.979 223.329 28.3086C222.142 27.6312 221.227 26.6744 220.584 25.4382C219.942 24.1951 219.621 22.725 219.621 21.0279C219.621 19.3727 219.942 17.92 220.584 16.6699C221.227 15.4198 222.131 14.4455 223.298 13.7472C224.471 13.0488 225.847 12.6996 227.425 12.6996C228.487 12.6996 229.475 12.8707 230.39 13.2129C231.312 13.5481 232.115 14.0545 232.799 14.7319C233.491 15.4093 234.028 16.2614 234.413 17.288C234.797 18.3076 234.989 19.5019 234.989 20.8707V22.0964H221.402V19.3308H230.788C230.788 18.6883 230.648 18.1191 230.369 17.6232C230.09 17.1274 229.702 16.7398 229.206 16.4604C228.717 16.1741 228.148 16.0309 227.498 16.0309C226.821 16.0309 226.22 16.188 225.697 16.5023C225.18 16.8096 224.775 17.2251 224.481 17.7489C224.188 18.2657 224.038 18.8419 224.031 19.4774V22.1069C224.031 22.9031 224.178 23.591 224.471 24.1706C224.771 24.7503 225.194 25.1973 225.739 25.5115C226.283 25.8258 226.929 25.983 227.677 25.983C228.172 25.983 228.626 25.9131 229.038 25.7734C229.45 25.6338 229.803 25.4242 230.097 25.1449C230.39 24.8655 230.613 24.5233 230.767 24.1183L234.894 24.3906C234.685 25.3823 234.255 26.2483 233.606 26.9886C232.963 27.7219 232.132 28.2946 231.113 28.7067C230.1 29.1117 228.93 29.3143 227.603 29.3143ZM242.364 19.6974V29H237.901V12.9091H242.154V15.748H242.343C242.699 14.8122 243.296 14.0719 244.134 13.5272C244.972 12.9754 245.988 12.6996 247.183 12.6996C248.3 12.6996 249.274 12.944 250.105 13.4329C250.936 13.9218 251.582 14.6201 252.043 15.5281C252.504 16.429 252.735 17.5045 252.735 18.7546V29H248.272V19.5508C248.279 18.5661 248.028 17.7978 247.518 17.2461C247.008 16.6874 246.306 16.408 245.412 16.408C244.812 16.408 244.281 16.5372 243.82 16.7956C243.366 17.054 243.01 17.4312 242.751 17.927C242.5 18.4159 242.371 19.006 242.364 19.6974ZM258.431 35.0341C257.865 35.0341 257.335 34.9887 256.839 34.8979C256.35 34.8141 255.945 34.7058 255.624 34.5732L256.629 31.2418C257.153 31.4025 257.624 31.4898 258.043 31.5037C258.469 31.5177 258.836 31.4199 259.143 31.2104C259.458 31.0009 259.713 30.6447 259.908 30.1419L260.17 29.4609L254.398 12.9091H259.091L262.422 24.7259H262.59L265.953 12.9091H270.677L264.423 30.739C264.123 31.605 263.714 32.3593 263.198 33.0018C262.688 33.6513 262.042 34.1506 261.26 34.4998C260.477 34.856 259.535 35.0341 258.431 35.0341ZM277.117 29.3038C276.091 29.3038 275.176 29.1257 274.373 28.7695C273.57 28.4064 272.934 27.8721 272.466 27.1667C272.005 26.4544 271.775 25.5674 271.775 24.5059C271.775 23.6119 271.939 22.8612 272.267 22.2536C272.595 21.646 273.042 21.1571 273.608 20.7869C274.174 20.4168 274.816 20.1374 275.536 19.9489C276.262 19.7603 277.023 19.6276 277.819 19.5508C278.755 19.453 279.509 19.3622 280.082 19.2784C280.655 19.1876 281.07 19.0549 281.329 18.8803C281.587 18.7057 281.716 18.4473 281.716 18.1051V18.0423C281.716 17.3788 281.507 16.8655 281.088 16.5023C280.676 16.1391 280.089 15.9576 279.328 15.9576C278.525 15.9576 277.886 16.1357 277.411 16.4918C276.936 16.841 276.622 17.281 276.468 17.8118L272.34 17.4766C272.55 16.4988 272.962 15.6538 273.577 14.9414C274.191 14.2221 274.984 13.6703 275.955 13.2862C276.932 12.8951 278.064 12.6996 279.349 12.6996C280.243 12.6996 281.098 12.8043 281.915 13.0138C282.739 13.2234 283.469 13.5481 284.105 13.9881C284.747 14.4281 285.254 14.9938 285.624 15.6852C285.994 16.3696 286.179 17.1902 286.179 18.147V29H281.947V26.7686H281.821C281.563 27.2715 281.217 27.715 280.784 28.0991C280.351 28.4762 279.831 28.773 279.223 28.9895C278.615 29.199 277.914 29.3038 277.117 29.3038ZM278.395 26.2239C279.052 26.2239 279.632 26.0947 280.134 25.8363C280.637 25.5709 281.032 25.2147 281.318 24.7678C281.605 24.3208 281.748 23.8145 281.748 23.2488V21.5412C281.608 21.632 281.416 21.7158 281.172 21.7926C280.934 21.8625 280.665 21.9288 280.365 21.9917C280.065 22.0475 279.764 22.0999 279.464 22.1488C279.164 22.1907 278.891 22.2291 278.647 22.264C278.123 22.3408 277.666 22.4631 277.275 22.6307C276.883 22.7983 276.58 23.0253 276.363 23.3116C276.147 23.591 276.038 23.9402 276.038 24.3592C276.038 24.9668 276.258 25.4312 276.698 25.7525C277.145 26.0668 277.711 26.2239 278.395 26.2239ZM293.685 24.3697L293.695 19.0165H294.345L299.499 12.9091H304.622L297.697 20.9964H296.639L293.685 24.3697ZM289.641 29V7.54545H294.104V29H289.641ZM299.698 29L294.963 21.9917L297.938 18.8384L304.926 29H299.698ZM306.811 29V12.9091H311.274V29H306.811ZM309.053 10.8349C308.39 10.8349 307.82 10.6149 307.345 10.1749C306.878 9.72792 306.644 9.19365 306.644 8.57209C306.644 7.9575 306.878 7.43022 307.345 6.99023C307.82 6.54326 308.39 6.31978 309.053 6.31978C309.716 6.31978 310.282 6.54326 310.75 6.99023C311.225 7.43022 311.462 7.9575 311.462 8.57209C311.462 9.19365 311.225 9.72792 310.75 10.1749C310.282 10.6149 309.716 10.8349 309.053 10.8349ZM323.408 12.9091V16.2614H313.717V12.9091H323.408ZM315.917 9.05398H320.38V24.0554C320.38 24.4674 320.443 24.7887 320.569 25.0192C320.694 25.2427 320.869 25.3998 321.092 25.4906C321.323 25.5814 321.588 25.6268 321.889 25.6268C322.098 25.6268 322.308 25.6093 322.517 25.5744C322.727 25.5325 322.887 25.5011 322.999 25.4801L323.701 28.801C323.477 28.8708 323.163 28.9511 322.758 29.0419C322.353 29.1397 321.861 29.199 321.281 29.22C320.205 29.2619 319.263 29.1187 318.452 28.7905C317.649 28.4622 317.024 27.9524 316.577 27.261C316.13 26.5696 315.91 25.6966 315.917 24.642V9.05398Z" fill="#686864"/>
<g clip-path="url(#clip0_59_5993)">
<path d="M28.3043 18.5254H2.69567C1.20688 18.5254 0 17.3574 0 15.9167V12.9903C0 11.5496 1.20688 10.3816 2.69567 10.3816H28.3044C29.7931 10.3816 31.0001 11.5495 31.0001 12.9903V15.9167C31 17.3574 29.7931 18.5254 28.3043 18.5254Z" fill="#F4EECB"/>
<path d="M28.3043 10.3816H2.69567C1.20688 10.3816 0 11.5484 0 12.9876V15.9194C0 17.3587 1.20688 18.5254 2.69567 18.5254H28.3044C29.7931 18.5254 31.0001 17.3587 31.0001 15.9194V12.9876C31 11.5484 29.7931 10.3816 28.3043 10.3816ZM29.9891 15.9195C29.9891 16.8176 29.2333 17.5482 28.3043 17.5482H2.69567C1.7667 17.5482 1.01089 16.8176 1.01089 15.9195V12.9877C1.01089 12.0895 1.7667 11.3589 2.69567 11.3589H28.3044C29.2334 11.3589 29.9892 12.0895 29.9892 12.9877V15.9195H29.9891Z" fill="#E2DCBC"/>
<path d="M3.87515 14.4207V14.4859C3.87515 14.7558 3.64882 14.9745 3.3697 14.9745C3.09058 14.9745 2.86426 14.7558 2.86426 14.4859V14.4207C2.86426 14.1509 3.09058 13.9321 3.3697 13.9321C3.64882 13.9321 3.87515 14.1509 3.87515 14.4207ZM5.39142 13.9321C5.1123 13.9321 4.88598 14.1509 4.88598 14.4207V14.4859C4.88598 14.7558 5.1123 14.9745 5.39142 14.9745C5.67054 14.9745 5.89687 14.7558 5.89687 14.4859V14.4207C5.89687 14.1509 5.67061 13.9321 5.39142 13.9321ZM7.4132 13.9321C7.13408 13.9321 6.90776 14.1509 6.90776 14.4207V14.4859C6.90776 14.7558 7.13408 14.9745 7.4132 14.9745C7.69233 14.9745 7.91865 14.7558 7.91865 14.4859V14.4207C7.91865 14.1509 7.69233 13.9321 7.4132 13.9321Z" fill="#BFBBA3"/>
<path d="M30.6056 24.8824L26.7934 21.1969C26.267 20.688 25.4136 20.688 24.8873 21.1969L23.3666 19.7268C25.2291 17.0657 24.9421 13.4182 22.5046 11.0619C19.7413 8.39035 15.2609 8.39035 12.4976 11.0619C9.73421 13.7334 9.73421 18.0647 12.4976 20.7363C14.935 23.0926 18.708 23.3701 21.4606 21.5697L22.9812 23.0397C22.4549 23.5486 22.4549 24.3736 22.9812 24.8824L26.7935 28.5679C27.3198 29.0768 28.1732 29.0768 28.6996 28.5679L30.6056 26.7252C31.132 26.2163 31.132 25.3913 30.6056 24.8824Z" fill="#84A7B7"/>
<path d="M23.366 19.725L24.8867 21.195L22.9806 23.0377L21.46 21.5677C21.828 21.3269 22.1782 21.0495 22.504 20.7343C22.83 20.4192 23.1169 20.0808 23.366 19.725Z" fill="#256277"/>
<path d="M22.2182 15.899C22.2182 18.4177 20.1062 20.4596 17.5008 20.4596C14.8955 20.4596 12.7834 18.4177 12.7834 15.899C12.7834 13.3803 14.8955 11.3385 17.5008 11.3385C20.1062 11.3385 22.2182 13.3803 22.2182 15.899Z" fill="#C3E4ED"/>
<path d="M21.944 14.3666L15.9156 20.1945C15.0339 19.8906 14.273 19.3408 13.7221 18.6297L20.3254 12.246C21.0609 12.7785 21.6296 13.5142 21.944 14.3666ZM19.0848 11.6024L13.0564 17.4304C13.1353 17.6444 13.2301 17.8511 13.3398 18.049L19.7247 11.8764C19.52 11.7704 19.3062 11.6788 19.0848 11.6024Z" fill="#DCF3F9"/>
<path d="M17.5214 12.4891C18.2658 12.4891 18.8693 13.0725 18.8693 13.7922C18.8693 14.5118 18.2658 15.0953 17.5214 15.0953C16.777 15.0953 16.1736 14.5119 16.1736 13.7922C16.1736 13.0725 16.7771 12.4891 17.5214 12.4891Z" fill="white"/>
</g>
<defs>
<clipPath id="clip0_59_5993">
<rect width="31" height="30" fill="white" transform="translate(0 4.00391)"/>
</clipPath>
</defs>
</svg>
