<svg width="196" height="36" viewBox="0 0 196 36" fill="none" xmlns="http://www.w3.org/2000/svg">
<path d="M23.4412 5.64868H15.1035V25.4504H23.4413V5.64868H23.4412ZM18.1167 21.9382H16.6723C16.3306 21.9382 16.0537 21.64 16.0537 21.272C16.0537 20.904 16.3306 20.6058 16.6723 20.6058H18.1167C18.4584 20.6058 18.7353 20.904 18.7353 21.272C18.7353 21.64 18.4584 21.9382 18.1167 21.9382ZM18.1167 18.6492H16.6723C16.3306 18.6492 16.0537 18.3509 16.0537 17.983C16.0537 17.615 16.3306 17.3168 16.6723 17.3168H18.1167C18.4584 17.3168 18.7353 17.615 18.7353 17.983C18.7353 18.3509 18.4584 18.6492 18.1167 18.6492ZM18.1167 15.3602H16.6723C16.3306 15.3602 16.0537 15.062 16.0537 14.694C16.0537 14.326 16.3306 14.0278 16.6723 14.0278H18.1167C18.4584 14.0278 18.7353 14.326 18.7353 14.694C18.7353 15.062 18.4584 15.3602 18.1167 15.3602ZM18.1167 12.0711H16.6723C16.3306 12.0711 16.0537 11.7729 16.0537 11.405C16.0537 11.037 16.3306 10.7388 16.6723 10.7388H18.1167C18.4584 10.7388 18.7353 11.037 18.7353 11.405C18.7353 11.7729 18.4584 12.0711 18.1167 12.0711ZM18.1167 8.78211H16.6723C16.3306 8.78211 16.0537 8.48389 16.0537 8.11592C16.0537 7.74796 16.3306 7.44974 16.6723 7.44974H18.1167C18.4584 7.44974 18.7353 7.74796 18.7353 8.11592C18.7353 8.48389 18.4584 8.78211 18.1167 8.78211ZM21.8725 21.9382H20.428C20.0863 21.9382 19.8094 21.64 19.8094 21.272C19.8094 20.904 20.0863 20.6058 20.428 20.6058H21.8725C22.2141 20.6058 22.4911 20.904 22.4911 21.272C22.4911 21.64 22.2141 21.9382 21.8725 21.9382ZM21.8725 18.6492H20.428C20.0863 18.6492 19.8094 18.3509 19.8094 17.983C19.8094 17.615 20.0863 17.3168 20.428 17.3168H21.8725C22.2141 17.3168 22.4911 17.615 22.4911 17.983C22.4911 18.3509 22.2141 18.6492 21.8725 18.6492ZM21.8725 15.3602H20.428C20.0863 15.3602 19.8094 15.062 19.8094 14.694C19.8094 14.326 20.0863 14.0278 20.428 14.0278H21.8725C22.2141 14.0278 22.4911 14.326 22.4911 14.694C22.4911 15.062 22.2141 15.3602 21.8725 15.3602ZM21.8725 12.0711H20.428C20.0863 12.0711 19.8094 11.7729 19.8094 11.405C19.8094 11.037 20.0863 10.7388 20.428 10.7388H21.8725C22.2141 10.7388 22.4911 11.037 22.4911 11.405C22.4911 11.7729 22.2141 12.0711 21.8725 12.0711ZM21.8725 8.78211H20.428C20.0863 8.78211 19.8094 8.48389 19.8094 8.11592C19.8094 7.74796 20.0863 7.44974 20.428 7.44974H21.8725C22.2141 7.44974 22.4911 7.74796 22.4911 8.11592C22.4911 8.48389 22.2141 8.78211 21.8725 8.78211Z" fill="#FFD46A"/>
<path d="M6.20602 22.6213C6.44755 22.8815 6.44755 23.3033 6.20602 23.5635L4.45418 25.45H7.64876L9.49198 23.465C9.73362 23.2048 10.1252 23.2048 10.3668 23.465C10.6084 23.7251 10.6084 24.147 10.3669 24.4071L9.39845 25.45H11.9901V12.8485H3.65234V19.0118L4.53804 18.058C4.77967 17.7979 5.1713 17.7979 5.41289 18.058C5.65447 18.3182 5.65447 18.74 5.41294 19.0002L3.6524 20.8962V24.4293L5.33122 22.6213C5.5728 22.3611 5.96438 22.3611 6.20602 22.6213ZM9.01808 14.0274H10.4626C10.8042 14.0274 11.0812 14.3256 11.0812 14.6935C11.0812 15.0615 10.8042 15.3597 10.4626 15.3597H9.01808C8.67645 15.3597 8.39948 15.0615 8.39948 14.6935C8.39948 14.3256 8.67645 14.0274 9.01808 14.0274ZM9.01808 17.3164H10.4626C10.8042 17.3164 11.0812 17.6146 11.0812 17.9826C11.0812 18.3505 10.8042 18.6488 10.4626 18.6488H9.01808C8.67645 18.6488 8.39948 18.3505 8.39948 17.9826C8.39948 17.6146 8.67645 17.3164 9.01808 17.3164ZM9.01808 20.6054H10.4626C10.8042 20.6054 11.0812 20.9036 11.0812 21.2716C11.0812 21.6395 10.8042 21.9377 10.4626 21.9377H9.01808C8.67645 21.9377 8.39948 21.6395 8.39948 21.2716C8.39948 20.9036 8.67645 20.6054 9.01808 20.6054ZM5.26238 15.3597C4.92075 15.3597 4.64378 15.0615 4.64378 14.6935C4.64378 14.3256 4.92075 14.0274 5.26238 14.0274H6.70685C7.04848 14.0274 7.32545 14.3256 7.32545 14.6935C7.32545 15.0615 7.04848 15.3597 6.70685 15.3597H5.26238Z" fill="#4CC7BB"/>
<path d="M25.3815 26.2324H0.6186C0.27697 26.2324 0 25.9341 0 25.5662C0 25.1982 0.276919 24.9 0.6186 24.9H1.85723V20.0714C1.85723 20.0706 1.85723 20.0699 1.85723 20.069V11.6323C1.85723 11.2644 2.13415 10.9661 2.47583 10.9661H12.0508C12.3924 10.9661 12.6694 11.2644 12.6694 11.6323V24.9001H13.3074V4.43205C13.3074 4.06414 13.5844 3.76587 13.926 3.76587H23.501C23.8426 3.76587 24.1196 4.06409 24.1196 4.43205V24.9H25.3814C25.723 24.9 26 25.1982 26 25.5662C26 25.9341 25.723 26.2324 25.3815 26.2324ZM14.5447 24.9H22.8824V5.09824H14.5447V24.9ZM8.84054 24.9H11.4322V12.2985H3.09443V18.4619L3.98012 17.5081C4.22171 17.2479 4.61338 17.2479 4.85497 17.5081C5.09655 17.7683 5.09655 18.1901 4.85497 18.4502L3.09443 20.3463V23.8793L4.77325 22.0714C5.01484 21.8112 5.40652 21.8112 5.6481 22.0714C5.88969 22.3315 5.88969 22.7533 5.6481 23.0135L3.89627 24.9001H7.09089L8.93417 22.915C9.17575 22.6549 9.56743 22.6549 9.80902 22.915C10.0506 23.1752 10.0506 23.597 9.80902 23.8572L8.84054 24.9ZM21.3137 21.3877H19.8691C19.5275 21.3877 19.2505 21.0895 19.2505 20.7216C19.2505 20.3536 19.5275 20.0554 19.8691 20.0554H21.3137C21.6553 20.0554 21.9323 20.3536 21.9323 20.7216C21.9323 21.0895 21.6553 21.3877 21.3137 21.3877ZM17.5579 21.3877H16.1134C15.7718 21.3877 15.4948 21.0895 15.4948 20.7216C15.4948 20.3536 15.7718 20.0554 16.1134 20.0554H17.5579C17.8995 20.0554 18.1765 20.3536 18.1765 20.7216C18.1765 21.0895 17.8995 21.3877 17.5579 21.3877ZM9.90468 21.3877H8.46016C8.11853 21.3877 7.84156 21.0895 7.84156 20.7216C7.84156 20.3536 8.11848 20.0554 8.46016 20.0554H9.90468C10.2463 20.0554 10.5233 20.3536 10.5233 20.7216C10.5233 21.0895 10.2463 21.3877 9.90468 21.3877ZM21.3137 18.0987H19.8691C19.5275 18.0987 19.2505 17.8005 19.2505 17.4325C19.2505 17.0646 19.5275 16.7663 19.8691 16.7663H21.3137C21.6553 16.7663 21.9323 17.0646 21.9323 17.4325C21.9323 17.8005 21.6553 18.0987 21.3137 18.0987ZM17.5579 18.0987H16.1134C15.7718 18.0987 15.4948 17.8005 15.4948 17.4325C15.4948 17.0646 15.7718 16.7663 16.1134 16.7663H17.5579C17.8995 16.7663 18.1765 17.0646 18.1765 17.4325C18.1765 17.8005 17.8995 18.0987 17.5579 18.0987ZM9.90468 18.0987H8.46016C8.11853 18.0987 7.84156 17.8005 7.84156 17.4325C7.84156 17.0646 8.11848 16.7663 8.46016 16.7663H9.90468C10.2463 16.7663 10.5233 17.0646 10.5233 17.4325C10.5233 17.8005 10.2463 18.0987 9.90468 18.0987ZM21.3137 14.8097H19.8691C19.5275 14.8097 19.2505 14.5115 19.2505 14.1435C19.2505 13.7755 19.5275 13.4773 19.8691 13.4773H21.3137C21.6553 13.4773 21.9323 13.7755 21.9323 14.1435C21.9323 14.5115 21.6553 14.8097 21.3137 14.8097ZM17.5579 14.8097H16.1134C15.7718 14.8097 15.4948 14.5115 15.4948 14.1435C15.4948 13.7755 15.7718 13.4773 16.1134 13.4773H17.5579C17.8995 13.4773 18.1765 13.7755 18.1765 14.1435C18.1765 14.5115 17.8995 14.8097 17.5579 14.8097ZM9.90468 14.8097H8.46016C8.11853 14.8097 7.84156 14.5115 7.84156 14.1435C7.84156 13.7755 8.11848 13.4773 8.46016 13.4773H9.90468C10.2463 13.4773 10.5233 13.7755 10.5233 14.1435C10.5233 14.5115 10.2463 14.8097 9.90468 14.8097ZM6.14894 14.8097H4.70447C4.36284 14.8097 4.08587 14.5115 4.08587 14.1435C4.08587 13.7755 4.36279 13.4773 4.70447 13.4773H6.14899C6.49062 13.4773 6.76759 13.7755 6.76759 14.1435C6.76759 14.5115 6.49062 14.8097 6.14894 14.8097ZM21.3137 11.5207H19.8691C19.5275 11.5207 19.2505 11.2225 19.2505 10.8545C19.2505 10.4866 19.5275 10.1883 19.8691 10.1883H21.3137C21.6553 10.1883 21.9323 10.4866 21.9323 10.8545C21.9323 11.2225 21.6553 11.5207 21.3137 11.5207ZM17.5579 11.5207H16.1134C15.7718 11.5207 15.4948 11.2225 15.4948 10.8545C15.4948 10.4866 15.7718 10.1883 16.1134 10.1883H17.5579C17.8995 10.1883 18.1765 10.4866 18.1765 10.8545C18.1765 11.2225 17.8995 11.5207 17.5579 11.5207ZM21.3137 8.23167H19.8691C19.5275 8.23167 19.2505 7.93345 19.2505 7.56548C19.2505 7.19752 19.5275 6.8993 19.8691 6.8993H21.3137C21.6553 6.8993 21.9323 7.19752 21.9323 7.56548C21.9323 7.93345 21.6553 8.23167 21.3137 8.23167ZM17.5579 8.23167H16.1134C15.7718 8.23167 15.4948 7.93345 15.4948 7.56548C15.4948 7.19752 15.7718 6.8993 16.1134 6.8993H17.5579C17.8995 6.8993 18.1765 7.19752 18.1765 7.56548C18.1765 7.93345 17.8995 8.23167 17.5579 8.23167Z" fill="black"/>
<path d="M40.697 26V6.47507H48.4002C49.8811 6.47507 51.1427 6.7579 52.185 7.32357C53.2274 7.88288 54.0219 8.66146 54.5685 9.65931C55.1214 10.6508 55.3979 11.7949 55.3979 13.0914C55.3979 14.388 55.1182 15.532 54.5589 16.5235C53.9996 17.515 53.1893 18.2873 52.1278 18.8402C51.0728 19.3932 49.7953 19.6697 48.2953 19.6697H43.3855V16.3615H47.628C48.4224 16.3615 49.0771 16.2248 49.5919 15.9515C50.1131 15.6719 50.5008 15.2873 50.755 14.798C51.0156 14.3022 51.1459 13.7334 51.1459 13.0914C51.1459 12.4431 51.0156 11.8775 50.755 11.3944C50.5008 10.905 50.1131 10.5269 49.5919 10.2599C49.0707 9.98664 48.4097 9.84999 47.6089 9.84999H44.8251V26H40.697ZM64.4406 26.286C62.9342 26.286 61.6377 25.9809 60.5508 25.3708C59.4703 24.7543 58.6377 23.8835 58.053 22.7586C57.4683 21.6272 57.1759 20.2893 57.1759 18.7449C57.1759 17.2386 57.4683 15.9166 58.053 14.7789C58.6377 13.6412 59.4608 12.7546 60.5222 12.119C61.59 11.4834 62.8421 11.1656 64.2785 11.1656C65.2446 11.1656 66.1439 11.3213 66.9765 11.6328C67.8155 11.9379 68.5464 12.3987 69.1693 13.0152C69.7985 13.6317 70.2879 14.4071 70.6374 15.3414C70.987 16.2693 71.1618 17.3562 71.1618 18.6019V19.7173H58.7966V17.2004H67.3388C67.3388 16.6157 67.2117 16.0977 66.9574 15.6464C66.7032 15.1952 66.3505 14.8424 65.8992 14.5882C65.4543 14.3276 64.9363 14.1973 64.3452 14.1973C63.7287 14.1973 63.1821 14.3403 62.7054 14.6263C62.2351 14.906 61.8665 15.2842 61.5995 15.7609C61.3326 16.2312 61.1959 16.7555 61.1896 17.3339V19.7269C61.1896 20.4514 61.3231 21.0775 61.59 21.605C61.8633 22.1325 62.2478 22.5393 62.7436 22.8253C63.2393 23.1113 63.8272 23.2543 64.5073 23.2543C64.9586 23.2543 65.3717 23.1907 65.7467 23.0636C66.1217 22.9365 66.4426 22.7458 66.7096 22.4916C66.9765 22.2374 67.1799 21.926 67.3197 21.5573L71.076 21.8052C70.8853 22.7077 70.4944 23.4958 69.9033 24.1695C69.3186 24.8369 68.5623 25.3581 67.6343 25.7331C66.7127 26.1017 65.6482 26.286 64.4406 26.286ZM73.8121 26V11.3563H77.7495V13.9113H77.9021C78.169 13.0024 78.6171 12.316 79.2463 11.8521C79.8755 11.3817 80.6001 11.1466 81.42 11.1466C81.6234 11.1466 81.8427 11.1593 82.0778 11.1847C82.313 11.2101 82.5195 11.2451 82.6975 11.2896V14.8933C82.5068 14.8361 82.2431 14.7852 81.9062 14.7408C81.5694 14.6963 81.2611 14.674 80.9815 14.674C80.384 14.674 79.8501 14.8043 79.3798 15.0649C78.9158 15.3191 78.5472 15.6751 78.2739 16.1327C78.007 16.5903 77.8735 17.1178 77.8735 17.7153V26H73.8121ZM94.188 19.765V11.3563H98.2493V26H94.35V23.3401H94.1975C93.867 24.1981 93.3172 24.8877 92.5482 25.4089C91.7855 25.9301 90.8543 26.1907 89.7548 26.1907C88.776 26.1907 87.9148 25.9682 87.1712 25.5233C86.4276 25.0784 85.846 24.446 85.4265 23.6261C85.0134 22.8062 84.8037 21.8243 84.7973 20.6802V11.3563H88.8586V19.9557C88.865 20.82 89.097 21.5033 89.5546 22.0054C90.0122 22.5075 90.6255 22.7586 91.3946 22.7586C91.884 22.7586 92.3416 22.6473 92.7674 22.4249C93.1933 22.1961 93.5365 21.8592 93.7971 21.4143C94.064 20.9694 94.1943 20.4196 94.188 19.765ZM113.682 15.532L109.964 15.7609C109.9 15.4431 109.764 15.1571 109.554 14.9028C109.344 14.6422 109.068 14.4357 108.724 14.2831C108.388 14.1242 107.984 14.0448 107.514 14.0448C106.884 14.0448 106.354 14.1783 105.921 14.4452C105.489 14.7058 105.273 15.0554 105.273 15.4939C105.273 15.8435 105.413 16.139 105.693 16.3805C105.972 16.6221 106.452 16.8159 107.132 16.9621L109.783 17.496C111.206 17.7883 112.268 18.2587 112.967 18.907C113.666 19.5552 114.016 20.4069 114.016 21.462C114.016 22.4217 113.733 23.2638 113.167 23.9884C112.608 24.713 111.839 25.2786 110.86 25.6854C109.887 26.0858 108.766 26.286 107.495 26.286C105.556 26.286 104.012 25.8824 102.861 25.0752C101.717 24.2617 101.047 23.1558 100.85 21.7575L104.844 21.5478C104.965 22.1389 105.257 22.5901 105.721 22.9016C106.185 23.2066 106.78 23.3592 107.504 23.3592C108.216 23.3592 108.788 23.2225 109.22 22.9492C109.659 22.6696 109.881 22.3105 109.887 21.8719C109.881 21.5033 109.725 21.2014 109.42 20.9662C109.115 20.7247 108.645 20.5404 108.009 20.4133L105.473 19.908C104.043 19.622 102.979 19.1262 102.28 18.4207C101.587 17.7153 101.24 16.8159 101.24 15.7227C101.24 14.7821 101.495 13.9717 102.003 13.2916C102.518 12.6116 103.239 12.0872 104.167 11.7186C105.102 11.3499 106.195 11.1656 107.447 11.1656C109.296 11.1656 110.752 11.5565 111.813 12.3383C112.881 13.12 113.504 14.1846 113.682 15.532ZM120.749 26.2765C119.814 26.2765 118.982 26.1144 118.251 25.7903C117.52 25.4598 116.942 24.9735 116.516 24.3316C116.096 23.6833 115.887 22.8761 115.887 21.9101C115.887 21.0965 116.036 20.4133 116.335 19.8603C116.633 19.3074 117.04 18.8625 117.555 18.5256C118.07 18.1888 118.654 17.9345 119.309 17.7629C119.97 17.5913 120.663 17.4706 121.387 17.4006C122.239 17.3117 122.926 17.229 123.447 17.1528C123.968 17.0701 124.346 16.9494 124.581 16.7905C124.816 16.6316 124.934 16.3964 124.934 16.085V16.0278C124.934 15.424 124.743 14.9568 124.362 14.6263C123.987 14.2958 123.453 14.1306 122.76 14.1306C122.029 14.1306 121.448 14.2927 121.016 14.6168C120.583 14.9346 120.297 15.335 120.158 15.8181L116.401 15.513C116.592 14.6232 116.967 13.8541 117.526 13.2058C118.086 12.5512 118.807 12.0491 119.69 11.6995C120.58 11.3436 121.61 11.1656 122.779 11.1656C123.593 11.1656 124.372 11.261 125.115 11.4516C125.865 11.6423 126.529 11.9379 127.108 12.3383C127.692 12.7387 128.153 13.2535 128.49 13.8827C128.827 14.5056 128.995 15.2524 128.995 16.1231V26H125.144V23.9693H125.029C124.794 24.4269 124.48 24.8305 124.085 25.1801C123.691 25.5233 123.218 25.7934 122.665 25.9905C122.112 26.1811 121.473 26.2765 120.749 26.2765ZM121.912 23.4736C122.509 23.4736 123.037 23.356 123.494 23.1208C123.952 22.8793 124.311 22.5552 124.572 22.1484C124.832 21.7416 124.963 21.2808 124.963 20.766V19.212C124.835 19.2947 124.661 19.3709 124.438 19.4408C124.222 19.5044 123.977 19.5648 123.704 19.622C123.431 19.6728 123.158 19.7205 122.884 19.765C122.611 19.8031 122.363 19.8381 122.141 19.8699C121.664 19.9398 121.248 20.051 120.892 20.2035C120.536 20.3561 120.259 20.5626 120.062 20.8232C119.865 21.0775 119.767 21.3952 119.767 21.7766C119.767 22.3295 119.967 22.7522 120.367 23.0446C120.774 23.3306 121.289 23.4736 121.912 23.4736ZM136.208 17.5341V26H132.146V6.47507H136.093V13.9399H136.265C136.595 13.0755 137.129 12.3987 137.866 11.9093C138.604 11.4135 139.528 11.1656 140.641 11.1656C141.658 11.1656 142.544 11.3881 143.301 11.833C144.063 12.2715 144.654 12.9039 145.074 13.7302C145.5 14.5501 145.709 15.532 145.703 16.6761V26H141.642V17.4006C141.648 16.4981 141.419 15.7958 140.955 15.2937C140.498 14.7916 139.856 14.5405 139.03 14.5405C138.477 14.5405 137.987 14.6581 137.561 14.8933C137.142 15.1285 136.811 15.4717 136.57 15.9229C136.335 16.3678 136.214 16.9049 136.208 17.5341ZM153.075 26.2765C152.141 26.2765 151.308 26.1144 150.577 25.7903C149.846 25.4598 149.268 24.9735 148.842 24.3316C148.423 23.6833 148.213 22.8761 148.213 21.9101C148.213 21.0965 148.362 20.4133 148.661 19.8603C148.96 19.3074 149.366 18.8625 149.881 18.5256C150.396 18.1888 150.981 17.9345 151.635 17.7629C152.296 17.5913 152.989 17.4706 153.714 17.4006C154.565 17.3117 155.252 17.229 155.773 17.1528C156.294 17.0701 156.672 16.9494 156.907 16.7905C157.143 16.6316 157.26 16.3964 157.26 16.085V16.0278C157.26 15.424 157.07 14.9568 156.688 14.6263C156.313 14.2958 155.779 14.1306 155.087 14.1306C154.356 14.1306 153.774 14.2927 153.342 14.6168C152.91 14.9346 152.624 15.335 152.484 15.8181L148.728 15.513C148.918 14.6232 149.293 13.8541 149.853 13.2058C150.412 12.5512 151.133 12.0491 152.017 11.6995C152.907 11.3436 153.936 11.1656 155.106 11.1656C155.919 11.1656 156.698 11.261 157.441 11.4516C158.191 11.6423 158.856 11.9379 159.434 12.3383C160.019 12.7387 160.479 13.2535 160.816 13.8827C161.153 14.5056 161.322 15.2524 161.322 16.1231V26H157.47V23.9693H157.356C157.12 24.4269 156.806 24.8305 156.412 25.1801C156.018 25.5233 155.544 25.7934 154.991 25.9905C154.438 26.1811 153.8 26.2765 153.075 26.2765ZM154.238 23.4736C154.836 23.4736 155.363 23.356 155.821 23.1208C156.278 22.8793 156.637 22.5552 156.898 22.1484C157.159 21.7416 157.289 21.2808 157.289 20.766V19.212C157.162 19.2947 156.987 19.3709 156.764 19.4408C156.548 19.5044 156.304 19.5648 156.03 19.622C155.757 19.6728 155.484 19.7205 155.21 19.765C154.937 19.8031 154.689 19.8381 154.467 19.8699C153.99 19.9398 153.574 20.051 153.218 20.2035C152.862 20.3561 152.586 20.5626 152.389 20.8232C152.192 21.0775 152.093 21.3952 152.093 21.7766C152.093 22.3295 152.293 22.7522 152.694 23.0446C153.1 23.3306 153.615 23.4736 154.238 23.4736ZM168.648 26.2765C167.714 26.2765 166.881 26.1144 166.15 25.7903C165.419 25.4598 164.841 24.9735 164.415 24.3316C163.996 23.6833 163.786 22.8761 163.786 21.9101C163.786 21.0965 163.935 20.4133 164.234 19.8603C164.533 19.3074 164.94 18.8625 165.454 18.5256C165.969 18.1888 166.554 17.9345 167.209 17.7629C167.87 17.5913 168.562 17.4706 169.287 17.4006C170.139 17.3117 170.825 17.229 171.346 17.1528C171.867 17.0701 172.246 16.9494 172.481 16.7905C172.716 16.6316 172.833 16.3964 172.833 16.085V16.0278C172.833 15.424 172.643 14.9568 172.261 14.6263C171.886 14.2958 171.353 14.1306 170.66 14.1306C169.929 14.1306 169.347 14.2927 168.915 14.6168C168.483 14.9346 168.197 15.335 168.057 15.8181L164.301 15.513C164.492 14.6232 164.867 13.8541 165.426 13.2058C165.985 12.5512 166.706 12.0491 167.59 11.6995C168.48 11.3436 169.509 11.1656 170.679 11.1656C171.492 11.1656 172.271 11.261 173.015 11.4516C173.765 11.6423 174.429 11.9379 175.007 12.3383C175.592 12.7387 176.053 13.2535 176.39 13.8827C176.726 14.5056 176.895 15.2524 176.895 16.1231V26H173.043V23.9693H172.929C172.694 24.4269 172.379 24.8305 171.985 25.1801C171.591 25.5233 171.117 25.7934 170.564 25.9905C170.011 26.1811 169.373 26.2765 168.648 26.2765ZM169.811 23.4736C170.409 23.4736 170.936 23.356 171.394 23.1208C171.851 22.8793 172.211 22.5552 172.471 22.1484C172.732 21.7416 172.862 21.2808 172.862 20.766V19.212C172.735 19.2947 172.56 19.3709 172.338 19.4408C172.122 19.5044 171.877 19.5648 171.604 19.622C171.33 19.6728 171.057 19.7205 170.784 19.765C170.51 19.8031 170.263 19.8381 170.04 19.8699C169.563 19.9398 169.147 20.051 168.791 20.2035C168.435 20.3561 168.159 20.5626 167.962 20.8232C167.765 21.0775 167.666 21.3952 167.666 21.7766C167.666 22.3295 167.866 22.7522 168.267 23.0446C168.674 23.3306 169.188 23.4736 169.811 23.4736ZM184.107 17.5341V26H180.046V11.3563H183.916V13.9399H184.088C184.412 13.0883 184.956 12.4145 185.718 11.9188C186.481 11.4167 187.406 11.1656 188.492 11.1656C189.509 11.1656 190.396 11.3881 191.152 11.833C191.909 12.2779 192.497 12.9135 192.916 13.7397C193.336 14.5596 193.545 15.5384 193.545 16.6761V26H189.484V17.4006C189.49 16.5045 189.262 15.8053 188.798 15.3032C188.334 14.7948 187.695 14.5405 186.881 14.5405C186.335 14.5405 185.852 14.6581 185.432 14.8933C185.019 15.1285 184.695 15.4717 184.46 15.9229C184.231 16.3678 184.113 16.9049 184.107 17.5341Z" fill="#686864"/>
</svg>
