<svg width="166" height="46" viewBox="0 0 166 46" fill="none" xmlns="http://www.w3.org/2000/svg">
<path d="M55.8647 34V12.5455H64.3292C65.9564 12.5455 67.3427 12.8562 68.4881 13.4778C69.6335 14.0924 70.5065 14.9479 71.1071 16.0444C71.7147 17.1339 72.0185 18.391 72.0185 19.8157C72.0185 21.2404 71.7112 22.4975 71.0966 23.587C70.482 24.6765 69.5916 25.525 68.4252 26.1326C67.2659 26.7402 65.8622 27.044 64.214 27.044H58.8189V23.4089H63.4806C64.3536 23.4089 65.073 23.2588 65.6387 22.9585C66.2114 22.6512 66.6374 22.2286 66.9167 21.6909C67.2031 21.1461 67.3462 20.5211 67.3462 19.8157C67.3462 19.1033 67.2031 18.4818 66.9167 17.951C66.6374 17.4132 66.2114 16.9977 65.6387 16.7044C65.066 16.4041 64.3397 16.2539 63.4597 16.2539H60.4007V34H55.8647ZM74.881 34V17.9091H79.3437V34H74.881ZM77.1228 15.8349C76.4594 15.8349 75.8902 15.6149 75.4153 15.1749C74.9473 14.7279 74.7134 14.1937 74.7134 13.5721C74.7134 12.9575 74.9473 12.4302 75.4153 11.9902C75.8902 11.5433 76.4594 11.3198 77.1228 11.3198C77.7863 11.3198 78.352 11.5433 78.8199 11.9902C79.2948 12.4302 79.5323 12.9575 79.5323 13.5721C79.5323 14.1937 79.2948 14.7279 78.8199 15.1749C78.352 15.6149 77.7863 15.8349 77.1228 15.8349ZM93.2373 27.1488V17.9091H97.7V34H93.4154V31.0772H93.2478C92.8846 32.0201 92.2805 32.7778 91.4355 33.3505C90.5974 33.9232 89.5742 34.2095 88.366 34.2095C87.2905 34.2095 86.3442 33.9651 85.5271 33.4762C84.71 32.9873 84.0709 32.2924 83.61 31.3915C83.156 30.4906 82.9256 29.4116 82.9186 28.1545V17.9091H87.3813V27.3583C87.3883 28.3081 87.6432 29.0589 88.146 29.6106C88.6489 30.1623 89.3228 30.4382 90.1679 30.4382C90.7056 30.4382 91.2085 30.316 91.6764 30.0716C92.1443 29.8201 92.5215 29.45 92.8078 28.9611C93.1011 28.4722 93.2443 27.8681 93.2373 27.1488ZM109.828 17.9091V21.2614H100.138V17.9091H109.828ZM102.338 14.054H106.801V29.0554C106.801 29.4674 106.864 29.7887 106.989 30.0192C107.115 30.2427 107.29 30.3998 107.513 30.4906C107.744 30.5814 108.009 30.6268 108.309 30.6268C108.519 30.6268 108.728 30.6093 108.938 30.5744C109.148 30.5325 109.308 30.5011 109.42 30.4801L110.122 33.801C109.898 33.8708 109.584 33.9511 109.179 34.0419C108.774 34.1397 108.282 34.199 107.702 34.22C106.626 34.2619 105.683 34.1187 104.873 33.7905C104.07 33.4622 103.445 32.9524 102.998 32.261C102.551 31.5696 102.331 30.6966 102.338 29.642V14.054ZM117.324 34.3038C116.297 34.3038 115.382 34.1257 114.579 33.7695C113.776 33.4064 113.141 32.8721 112.673 32.1667C112.212 31.4544 111.981 30.5674 111.981 29.5059C111.981 28.6119 112.145 27.8612 112.474 27.2536C112.802 26.646 113.249 26.1571 113.814 25.7869C114.38 25.4168 115.023 25.1374 115.742 24.9489C116.468 24.7603 117.23 24.6276 118.026 24.5508C118.962 24.453 119.716 24.3622 120.289 24.2784C120.861 24.1876 121.277 24.0549 121.535 23.8803C121.794 23.7057 121.923 23.4473 121.923 23.1051V23.0423C121.923 22.3788 121.713 21.8655 121.294 21.5023C120.882 21.1391 120.296 20.9576 119.534 20.9576C118.731 20.9576 118.092 21.1357 117.617 21.4918C117.142 21.841 116.828 22.281 116.674 22.8118L112.547 22.4766C112.756 21.4988 113.168 20.6538 113.783 19.9414C114.398 19.2221 115.19 18.6703 116.161 18.2862C117.139 17.8951 118.27 17.6996 119.555 17.6996C120.449 17.6996 121.305 17.8043 122.122 18.0138C122.946 18.2234 123.676 18.5481 124.311 18.9881C124.954 19.4281 125.46 19.9938 125.83 20.6852C126.2 21.3696 126.386 22.1902 126.386 23.147V34H122.153V31.7686H122.028C121.769 32.2715 121.423 32.715 120.99 33.0991C120.557 33.4762 120.037 33.773 119.43 33.9895C118.822 34.199 118.12 34.3038 117.324 34.3038ZM118.602 31.2239C119.258 31.2239 119.838 31.0947 120.341 30.8363C120.844 30.5709 121.238 30.2147 121.525 29.7678C121.811 29.3208 121.954 28.8145 121.954 28.2488V26.5412C121.815 26.632 121.622 26.7158 121.378 26.7926C121.141 26.8625 120.872 26.9288 120.571 26.9917C120.271 27.0475 119.971 27.0999 119.67 27.1488C119.37 27.1907 119.098 27.2291 118.853 27.264C118.33 27.3408 117.872 27.4631 117.481 27.6307C117.09 27.7983 116.786 28.0253 116.57 28.3116C116.353 28.591 116.245 28.9402 116.245 29.3592C116.245 29.9668 116.465 30.4312 116.905 30.7525C117.352 31.0668 117.918 31.2239 118.602 31.2239ZM134.311 24.6974V34H129.848V17.9091H134.101V20.748H134.29C134.646 19.8122 135.243 19.0719 136.081 18.5272C136.919 17.9754 137.935 17.6996 139.129 17.6996C140.247 17.6996 141.221 17.944 142.052 18.4329C142.883 18.9218 143.529 19.6201 143.99 20.5281C144.451 21.429 144.682 22.5045 144.682 23.7546V34H140.219V24.5508C140.226 23.5661 139.974 22.7978 139.465 22.2461C138.955 21.6874 138.253 21.408 137.359 21.408C136.758 21.408 136.228 21.5372 135.767 21.7956C135.313 22.054 134.957 22.4312 134.698 22.927C134.447 23.4159 134.317 24.006 134.311 24.6974ZM155.448 40.3693C154.002 40.3693 152.763 40.1703 151.729 39.7722C150.703 39.3811 149.885 38.8468 149.278 38.1694C148.67 37.492 148.276 36.7307 148.094 35.8857L152.222 35.3304C152.347 35.6517 152.546 35.952 152.819 36.2314C153.091 36.5107 153.451 36.7342 153.898 36.9018C154.352 37.0764 154.903 37.1637 155.553 37.1637C156.524 37.1637 157.323 36.9263 157.952 36.4513C158.587 35.9834 158.905 35.1977 158.905 34.0943V31.1506H158.717C158.521 31.5975 158.228 32.0201 157.837 32.4181C157.446 32.8162 156.943 33.141 156.328 33.3924C155.714 33.6438 154.98 33.7695 154.128 33.7695C152.92 33.7695 151.82 33.4902 150.828 32.9315C149.844 32.3658 149.058 31.5033 148.471 30.3439C147.892 29.1776 147.602 27.704 147.602 25.9231C147.602 24.1003 147.899 22.5778 148.492 21.3556C149.086 20.1335 149.875 19.2186 150.86 18.611C151.851 18.0034 152.937 17.6996 154.118 17.6996C155.019 17.6996 155.773 17.8532 156.381 18.1605C156.988 18.4608 157.477 18.8379 157.847 19.2919C158.224 19.7389 158.514 20.1789 158.717 20.6119H158.884V17.9091H163.316V34.1571C163.316 35.526 162.98 36.6713 162.31 37.5932C161.639 38.5151 160.711 39.2065 159.523 39.6674C158.343 40.1354 156.985 40.3693 155.448 40.3693ZM155.542 30.4173C156.262 30.4173 156.869 30.2392 157.365 29.883C157.868 29.5198 158.252 29.003 158.518 28.3326C158.79 27.6551 158.926 26.845 158.926 25.9022C158.926 24.9593 158.793 24.1422 158.528 23.4508C158.263 22.7524 157.879 22.2112 157.376 21.8271C156.873 21.4429 156.262 21.2509 155.542 21.2509C154.809 21.2509 154.191 21.4499 153.688 21.848C153.185 22.2391 152.805 22.7839 152.546 23.4822C152.288 24.1806 152.159 24.9873 152.159 25.9022C152.159 26.831 152.288 27.6342 152.546 28.3116C152.812 28.9821 153.192 29.5024 153.688 29.8725C154.191 30.2357 154.809 30.4173 155.542 30.4173Z" fill="#686864"/>
<g clip-path="url(#clip0_59_6120)">
<g filter="url(#filter0_d_59_6120)">
<path d="M36.8491 8.77624L35.082 7L33.3057 8.77624L31.5295 7L29.7533 8.77624L27.977 7L26.2008 8.77624L24.4246 7L22.6483 8.77624L20.8721 7L19.0958 8.77624L17.3196 7L15.5434 8.77624L13.7671 7L12 8.77624V37.1232L13.7671 38.8994L15.5434 37.1232L17.3196 38.8994L19.0958 37.1232L20.8721 38.8994L22.6483 37.1232L24.4246 38.8994L26.2008 37.1232L27.977 38.8994L29.7533 37.1232L31.5295 38.8994L33.3057 37.1232L35.082 38.8994L36.8491 37.1232V8.77624Z" fill="white"/>
<path d="M35.0809 38.0999L33.705 36.7239L33.3057 36.3247L32.9065 36.7239L31.5295 38.1009L30.1525 36.7239L29.7533 36.3247L29.354 36.7239L27.977 38.1009L26.6 36.7239L26.2008 36.3247L25.8015 36.7239L24.4246 38.1009L23.0476 36.7239L22.6483 36.3247L22.2491 36.7239L20.8721 38.1009L19.4951 36.7239L19.0958 36.3247L18.6966 36.7239L17.3196 38.1009L15.9426 36.7239L15.5434 36.3247L15.1441 36.7239L13.7682 38.0999L12.5646 36.8901V9.00926L13.7682 7.79952L15.1441 9.17548L15.5434 9.57473L15.9426 9.17548L17.3196 7.79849L18.6966 9.17548L19.0958 9.57473L19.4951 9.17548L20.8721 7.79849L22.2491 9.17548L22.6483 9.57473L23.0476 9.17548L24.4246 7.79849L25.8015 9.17548L26.2008 9.57473L26.6 9.17548L27.977 7.79849L29.354 9.17548L29.7533 9.57473L30.1525 9.17548L31.5295 7.79849L32.9065 9.17548L33.3057 9.57473L33.705 9.17548L35.0809 7.79952L36.2845 9.00926V36.8901L35.0809 38.0999Z" stroke="#BFBFBF" stroke-width="1.12924"/>
</g>
<path d="M34.2134 15.1206H11.7964V15.5761H34.2134V15.1206Z" fill="#CED5E0"/>
<path d="M34.2134 30.9973H11.7964V31.4528H34.2134V30.9973Z" fill="#CED5E0"/>
<path d="M18.0448 12.4701C18.0448 12.8344 17.899 13.0622 17.6166 13.1715L18.1905 13.9822H17.5711L17.0701 13.2626H16.7149V13.9822H16.2139V11.7231H17.0701C17.4162 11.7231 17.6713 11.7778 17.817 11.8962C17.9719 12.0146 18.0448 12.2059 18.0448 12.4701ZM17.4345 12.7433C17.4982 12.6887 17.5255 12.5976 17.5255 12.4792C17.5255 12.3608 17.4891 12.2697 17.4254 12.2332C17.3616 12.1877 17.2523 12.1695 17.0883 12.1695H16.7149V12.8344H17.0792C17.2523 12.8253 17.3707 12.798 17.4345 12.7433Z" fill="#FF7058"/>
<path d="M20.1858 11.723V12.1693H19.0654V12.6339H20.0765V13.062H19.0654V13.5265H20.2223V13.9729H18.5645V11.7139H20.1858V11.723V11.723Z" fill="#FF7058"/>
<path d="M21.7065 13.5358C21.9524 13.5358 22.1528 13.4356 22.3168 13.2443L22.6356 13.5722C22.3805 13.8637 22.0799 14.0003 21.7338 14.0003C21.3877 14.0003 21.0962 13.891 20.8776 13.6724C20.6498 13.4538 20.5405 13.1805 20.5405 12.8435C20.5405 12.5065 20.6589 12.2332 20.8867 12.0055C21.1144 11.7778 21.3968 11.6685 21.7247 11.6685C22.0982 11.6685 22.4079 11.8051 22.6538 12.0875L22.3441 12.4427C22.1892 12.2423 21.9888 12.1421 21.752 12.1421C21.5607 12.1421 21.3968 12.2059 21.2692 12.3243C21.1326 12.4518 21.0688 12.6158 21.0688 12.8253C21.0688 13.0348 21.1326 13.1988 21.2601 13.3263C21.3694 13.472 21.5243 13.5358 21.7065 13.5358Z" fill="#FF7058"/>
<path d="M24.6575 11.723V12.1693H23.5371V12.6339H24.5482V13.062H23.5371V13.5265H24.694V13.9729H23.0361V11.7139H24.6575V11.723Z" fill="#FF7058"/>
<path d="M25.1409 11.7231H25.6419V13.9822H25.1409V11.7231Z" fill="#FF7058"/>
<path d="M27.7461 11.9234C27.901 12.06 27.9829 12.2604 27.9829 12.5428C27.9829 12.8252 27.901 13.0255 27.737 13.1531C27.573 13.2806 27.3271 13.3444 26.9901 13.3444H26.6895V13.9729H26.1885V11.7139H26.981C27.3362 11.723 27.5912 11.7867 27.7461 11.9234ZM27.3817 12.816C27.4455 12.7523 27.4728 12.6521 27.4728 12.5155C27.4728 12.3879 27.4364 12.2968 27.3544 12.2422C27.2724 12.1875 27.154 12.1602 26.9901 12.1602H26.6986V12.9162H27.0356C27.2087 12.9162 27.318 12.8798 27.3817 12.816Z" fill="#FF7058"/>
<path d="M29.3308 12.1604V13.9822H28.8298V12.1604H28.1921V11.7231H29.9684V12.1604H29.3308Z" fill="#FF7058"/>
<path d="M19.9852 17.4253H13.2173V18.0356H19.9852V17.4253Z" fill="#E6E9EE"/>
<path d="M18.0268 18.5913H13.2173V19.2016H18.0268V18.5913Z" fill="#E6E9EE"/>
<path d="M19.9852 22.1162H13.2173V22.7265H19.9852V22.1162Z" fill="#E6E9EE"/>
<path d="M18.0268 23.2822H13.2173V23.8925H18.0268V23.2822Z" fill="#E6E9EE"/>
<path d="M19.9852 26.7983H13.2173V27.4086H19.9852V26.7983Z" fill="#E6E9EE"/>
<path d="M18.0268 27.9644H13.2173V28.5747H18.0268V27.9644Z" fill="#E6E9EE"/>
<path d="M32.2649 17.4253H29.9785V18.0356H32.2649V17.4253Z" fill="#E6E9EE"/>
<path d="M32.2649 22.1162H29.9785V22.7265H32.2649V22.1162Z" fill="#E6E9EE"/>
<path d="M32.2649 26.7983H29.9785V27.4086H32.2649V26.7983Z" fill="#E6E9EE"/>
<path d="M21.8155 33.3382V34.7136H21.433V33.3382H20.9502V33.0103H22.2983V33.3382H21.8155Z" fill="#4CDBC4"/>
<path d="M23.9661 34.486C23.793 34.6499 23.5835 34.741 23.3285 34.741C23.0734 34.741 22.8639 34.659 22.6908 34.486C22.5178 34.3129 22.4358 34.1034 22.4358 33.8574C22.4358 33.6024 22.5178 33.402 22.6908 33.2289C22.8639 33.065 23.0734 32.9739 23.3285 32.9739C23.5835 32.9739 23.793 33.0559 23.9661 33.2289C24.1392 33.402 24.2211 33.6024 24.2211 33.8574C24.2211 34.1034 24.13 34.3129 23.9661 34.486ZM23.8295 33.8574C23.8295 33.7026 23.7839 33.5751 23.6837 33.4658C23.5835 33.3565 23.4651 33.3018 23.3285 33.3018C23.1827 33.3018 23.0643 33.3565 22.9641 33.4658C22.8639 33.5751 22.8184 33.7026 22.8184 33.8574C22.8184 34.0123 22.8639 34.1398 22.9641 34.2491C23.0643 34.3584 23.1827 34.4131 23.3285 34.4131C23.4742 34.4131 23.5926 34.3584 23.6837 34.2491C23.7839 34.1398 23.8295 34.0123 23.8295 33.8574Z" fill="#4CDBC4"/>
<path d="M25.2137 33.3382V34.7136H24.8312V33.3382H24.3484V33.0103H25.6965V33.3382H25.2137Z" fill="#4CDBC4"/>
<path d="M27.0714 34.7227L26.9165 34.3583H26.206L26.0512 34.7227H25.6504L26.3882 33.0193H26.7526L27.4904 34.7227H27.0714ZM26.5522 33.5203L26.3336 34.0122H26.7617L26.5522 33.5203Z" fill="#4CDBC4"/>
<path d="M27.6729 34.7227V33.0193H28.0554V34.3856H28.7841V34.7227H27.6729Z" fill="#4CDBC4"/>
</g>
<defs>
<filter id="filter0_d_59_6120" x="7.48303" y="7" width="33.8831" height="40.9333" filterUnits="userSpaceOnUse" color-interpolation-filters="sRGB">
<feFlood flood-opacity="0" result="BackgroundImageFix"/>
<feColorMatrix in="SourceAlpha" type="matrix" values="0 0 0 0 0 0 0 0 0 0 0 0 0 0 0 0 0 0 127 0" result="hardAlpha"/>
<feOffset dy="4.51697"/>
<feGaussianBlur stdDeviation="2.25848"/>
<feComposite in2="hardAlpha" operator="out"/>
<feColorMatrix type="matrix" values="0 0 0 0 0 0 0 0 0 0 0 0 0 0 0 0 0 0 0.25 0"/>
<feBlend mode="normal" in2="BackgroundImageFix" result="effect1_dropShadow_59_6120"/>
<feBlend mode="normal" in="SourceGraphic" in2="effect1_dropShadow_59_6120" result="shape"/>
</filter>
<clipPath id="clip0_59_6120">
<rect width="46" height="46" fill="white"/>
</clipPath>
</defs>
</svg>
